<svg xmlns="http://www.w3.org/2000/svg" viewBox="0 0 5036.76 5073"><defs><style>.cls-1{fill:#8cba4d;stroke:#50672e;stroke-width:39px;}.cls-1,.cls-4,.cls-5,.cls-8{stroke-miterlimit:10;}.cls-2{fill:#d3df6c;}.cls-3{fill:#8bba4a;}.cls-4{fill:#83552e;stroke:#030202;stroke-width:4px;}.cls-5{fill:none;stroke:#070909;stroke-width:5px;}.cls-6{fill:#070909;}.cls-7{fill:#ef636c;}.cls-8{fill:#d8eefa;stroke:#040708;stroke-width:3px;}.cls-9{fill:#080909;}</style></defs><title>avocado</title><g id="avacado"><path class="cls-1" d="M6513.54,8032.82c51.34-4.46,834.05-162.16,883.45-177.12,280.68-85,856-316.12,1141.75-608.28C8949,6828,9279.69,6472.69,9071.28,5925.86S8141.81,4394.94,7981.38,4247.08s-480.26-600.06-567-786.87-609.7-513.81-1279.84-438.48-1131,432.87-1342,788c-120.84,203.31-182.59,1034.49-284.67,1175.32S4099.44,6113.28,4141.74,6645.6s386.13,1184,1030.9,1306.1C5714.12,8054.24,6254,8055.39,6513.54,8032.82Z" transform="translate(-4118.26 -2991.16)"/><path class="cls-2" d="M6525.59,7817.38c45.15-3.76,733-142.33,776.37-155.61,246.5-75.45,751.47-281.68,1001.29-544.78,358.66-377.72,647.71-697.76,461.33-1194.26S7938.37,4530.8,7796.4,4396,7370.54,3849.75,7293.22,3680s-539.28-468.79-1128.52-404.22S5172,3661.77,4988.17,3982.34c-105.21,183.52-155,936.13-244,1063.14s-353.19,1019.79-313.05,1502.24S4777.31,7622.4,5345.3,7736.55C5822.31,7832.41,6297.35,7836.4,6525.59,7817.38Z" transform="translate(-4118.26 -2991.16)"/><ellipse class="cls-3" cx="6504.5" cy="5688.51" rx="1386.12" ry="1407.01" transform="translate(-5116.15 -1590.04) rotate(-11.42)"/><ellipse class="cls-4" cx="6493.16" cy="5684.58" rx="1183.63" ry="1290.95" transform="translate(-5115.59 -1592.37) rotate(-11.42)"/><path class="cls-5" d="M5690.71,5765.61s396.42,203,711,144.79,567-173.34,652.08-254.64S7272.52,5446,7272.52,5446" transform="translate(-4118.26 -2991.16)"/><path class="cls-6" d="M5821.91,5840.6s-14,505,62.49,596.38c39.7,47.43,166.28,195.11,532.68,159.46,305.86-29.76,536-117.89,649.76-143.36,39.74-8.9,76.09-26.81,104-51.23,64.88-56.82,127.11-132.84,162.27-225.57,33.83-89.23-59.25-436.77-101.65-503s-57.66-105.88-57.66-105.88-287.65,191.68-447.63,261.41-396.16,85.4-512.84,82.27S5821.91,5840.6,5821.91,5840.6Z" transform="translate(-4118.26 -2991.16)"/><path class="cls-7" d="M6383,6571.27,6933.48,6460s-74.26-188-145-179-130.32,37-126.18,57.55-24.42,76.54-24.42,76.54-65.82-92.42-93.49-85.8-110.55-8.68-127,53.41S6383,6571.27,6383,6571.27Z" transform="translate(-4118.26 -2991.16)"/><ellipse class="cls-8" cx="6069.9" cy="5231.94" rx="383.88" ry="382.53" transform="translate(-5034.32 -1685.17) rotate(-11.42)"/><ellipse class="cls-8" cx="6820.57" cy="5164.75" rx="311.9" ry="335.76" transform="translate(-5006.14 -1537.82) rotate(-11.42)"/><ellipse class="cls-9" cx="6186.37" cy="5286.12" rx="103.42" ry="76.18" transform="translate(-5042.75 -1661.03) rotate(-11.42)"/><ellipse class="cls-9" cx="6717.87" cy="5178.72" rx="103.42" ry="76.18" transform="translate(-5010.94 -1557.88) rotate(-11.42)"/></g></svg>