<svg xmlns="http://www.w3.org/2000/svg" viewBox="0 0 3558.32 3623.27">
  <defs>
    <style>
      .cls-1 {
        fill: #f69a79;
      }

      .cls-1, .cls-3 {
        stroke: #020202;
      }

      .cls-1, .cls-3, .cls-7 {
        stroke-miterlimit: 10;
      }

      .cls-1, .cls-7 {
        stroke-width: 4px;
      }

      .cls-2 {
        fill: #991c21;
      }

      .cls-3 {
        fill: none;
        stroke-width: 10px;
      }

      .cls-4 {
        fill: #090808;
      }

      .cls-5 {
        fill: #f05348;
      }

      .cls-6 {
        fill: #040407;
      }

      .cls-7 {
        fill: #fffbf8;
        stroke: #020203;
      }

      .cls-8 {
        fill: #0c0d0d;
      }

      .cls-9 {
        fill: #fff;
      }
    </style>
  </defs>
  <title>bacon</title>
  <g id="bacon">
    <g>
      <g>
        <path class="cls-1" d="M9053.91,4157.37s600.17-88,935.15-46.92,865.36,117.29,1102.64,117.29,1004.94-87.15,1116.6-64.1,265.19-23.87,251.23,40.64-111.66,164.21-111.66,193.53,41.87,187.67-14,240.45-418.72,527.81-432.68,697.88-27.91,416.38,125.62,557.13,237.28,375.33,181.45,521.95,0,492.62,111.66,656.83,279.15,457.44,279.15,527.81-362.89,35.19-530.38,35.19-265.19,0-432.68,8.8-446.64,20.53-572.26,0-265.19-61.58-502.47-44-893.28,99.7-1032.85,93.83-55.83-346-83.74-451.57-195.4-363.6-55.83-521.95,251.23-398.79,251.23-527.81S9374.94,5664.57,9291.19,5559s-41.87-428.11,14-533.68,0-387.06-55.83-510.22S9053.91,4157.37,9053.91,4157.37Z" transform="translate(-9044.96 -4072.74)"/>
        <g>
          <path class="cls-2" d="M11957.08,5822.56s-27.92,387.41-139.58,674.78-41.87,539.54,0,674.43,307.06,451.57,307.06,451.57h418.72s-395.28-885.55-393-938.33,86-463.3,72-492.62S11957.08,5822.56,11957.08,5822.56Z" transform="translate(-9044.96 -4072.74)"/>
          <g>
            <path class="cls-2" d="M9919.28,4099.54l-181.45,1255s362.89,468.91,362.89,598.06-14,422.38-111.66,516.21S9682,6961.45,9682,7031.82s83.74,604.05,83.74,604.05,851.41-76.24,907.24-76.24-321-1407.5-321-1407.5-97.7-451.57-97.7-516.08,55.83-451.57,14-563-181.45-738.94-167.49-780,14-193.53,14-193.53Z" transform="translate(-9044.96 -4072.74)"/>
            <path class="cls-2" d="M10678.63,4180.83l-61.47,715.48s-58.5,615.78,61.47,703.75S11008,6157.19,11008,6227.56s111.66,504.35,97.7,574.73-250.78,803.45-250.78,803.45l252,17.59s291.9-451.57,333.77-551.27,181.45-744.8,83.74-873.82-125.62-351.87-251.23-475-434.37-246.31-447.48-381.2-27.07-1133.82-27.07-1133.82Z" transform="translate(-9044.96 -4072.74)"/>
            <path class="cls-2" d="M10980,4227.75s14,686.15,0,756.53,125.62,539.54,293.11,533.68S11650,5130.89,11664,5048.79s226.89-876.6,226.89-876.6Z" transform="translate(-9044.96 -4072.74)"/>
            <path class="cls-2" d="M9305.15,5160.21s348.94-621.64,321-774.12,1.72-273.68,1.72-273.68L9109.74,4128s139.57,392.93,167.49,469.17S9305.15,5160.21,9305.15,5160.21Z" transform="translate(-9044.96 -4072.74)"/>
          </g>
        </g>
      </g>
      <path class="cls-3" d="M9053.07,4135.57s600.17-88,935.15-46.92,865.36,117.29,1102.64,117.29,1004.94-87.15,1116.6-64.1,265.19-23.87,251.23,40.64S12347,4346.69,12347,4376s41.87,187.67-14,240.45-418.72,527.81-432.68,697.88-27.91,416.38,125.62,557.13,237.28,375.33,181.45,521.95,0,492.62,111.66,656.83,279.15,457.44,279.15,527.81-362.89,35.19-530.38,35.19-265.19,0-432.68,8.8-446.64,20.53-572.26,0-265.19-61.58-502.47-44-893.28,99.7-1032.85,93.83-55.83-346-83.74-451.57-195.4-363.6-55.83-521.95,251.23-398.79,251.23-527.81-265.19-527.81-348.94-633.37-41.87-428.11,14-533.68,0-387.06-55.83-510.22S9053.07,4135.57,9053.07,4135.57Z" transform="translate(-9044.96 -4072.74)"/>
      <g>
        <path class="cls-4" d="M9522.91,6732.5s171.71,85.75,487.92,167.1c89.59,23,244.64,59.44,396.43,61.8,604.49,9.41,873.15,3.14,1067.18-59.58s410.46-153.65,410.46-153.65,15.37,127.15-44.78,197.55c-104.48,122.29-227.62,205.39-578.37,296.32-160.67,41.66-212.69,66.87-705.24,64.28-182.94-1-544.79-75.26-597-106.61s111.94,9.41,126.87-21.95,29.85-65.85-14.93-131.7S9522.91,6732.5,9522.91,6732.5Z" transform="translate(-9044.96 -4072.74)"/>
        <path class="cls-5" d="M10022.92,7217s197.76,69,473.89,86.23c507.91,31.72,794.2-49.28,776.13-84.66-16.64-32.59-89.55-62.71-209-69s-343.29-15.68-462.7-12.54S10060.23,7207.55,10022.92,7217Z" transform="translate(-9044.96 -4072.74)"/>
        <path class="cls-6" d="M10608.75,7137s-104.48,31.36-89.55,59.58,29.85-12.54,89.55-29.79,190.3-29.79,190.3-29.79Z" transform="translate(-9044.96 -4072.74)"/>
      </g>
      <g>
        <path class="cls-7" d="M11559.53,6515.44c-72.11,141.47-305.71,240.39-521.76,220.95S10705,6586.5,10777.14,6445s305.71-240.39,521.76-220.95S11631.64,6374,11559.53,6515.44Z" transform="translate(-9044.96 -4072.74)"/>
        <path class="cls-7" d="M10643.58,6440.78c30.35,127.3-78.74,236.12-243.65,243.06s-323.19-90.63-353.54-217.93,78.74-236.12,243.65-243.06S10613.23,6313.48,10643.58,6440.78Z" transform="translate(-9044.96 -4072.74)"/>
        <ellipse class="cls-8" cx="1433.32" cy="2487.49" rx="127.17" ry="87.32"/>
        <path class="cls-8" d="M11202.2,6583c-21.46,54.69-101.89,94.65-179.64,89.26s-123.39-54.08-101.93-108.77,101.89-94.65,179.64-89.26S11223.66,6528.33,11202.2,6583Z" transform="translate(-9044.96 -4072.74)"/>
        <ellipse class="cls-9" cx="1417.81" cy="2478.36" rx="37.22" ry="33.89"/>
        <path class="cls-9" d="M11101.44,6566.34c-5.42,20-30.51,35.27-56,34.05s-41.84-18.44-36.42-38.47,30.51-35.27,56-34.05S11106.86,6546.32,11101.44,6566.34Z" transform="translate(-9044.96 -4072.74)"/>
      </g>
    </g>
  </g>
</svg>
