<svg xmlns="http://www.w3.org/2000/svg" xmlns:xlink="http://www.w3.org/1999/xlink" viewBox="0 0 5000 5000"><defs><style>.cls-1{fill:#f68632;}.cls-2{fill:#f4aa6e;}.cls-3{fill:#c35d28;}.cls-4{fill:#fbaf5c;}.cls-5{fill:#597836;}.cls-6{fill:#3e451e;}.cls-7{fill:#7a9d3e;}.cls-8{fill:#f9f9fa;stroke:#c45d28;stroke-miterlimit:10;stroke-width:13px;}.cls-9{fill:#2293cd;}.cls-10{fill:#070909;}.cls-11{fill:#572f24;}.cls-12{fill:url(#linear-gradient);}</style><linearGradient id="linear-gradient" x1="9035.42" y1="5619.6" x2="9719.34" y2="5619.6" gradientTransform="matrix(1.33, 0.19, -0.14, 0.99, -2456.09, -1178.33)" gradientUnits="userSpaceOnUse"><stop offset="0" stop-color="#c4282d"/><stop offset="0.1" stop-color="#cc313c"/><stop offset="0.56" stop-color="#f0567e"/><stop offset="0.93" stop-color="#f39dc4"/></linearGradient></defs><title>bellPepper</title><g id="Layer_27" data-name="Layer 27"><path class="cls-1" d="M8803.89,2836.93s-240,54.14-294.6,90.24-371.06-135.36-643.87-90.24S7090.62,3234,6959.67,3414.46s-305.55,612.33-218.25,1077.71,261.9,871.45,283.73,1033.88,163.69,983.6,447.41,1128,807.53,279.74,916.65,252.67S8814.8,7195.47,9295,7195.47s1004-198.53,1069.43-252.67,360.11-108.29,600.19-252.67,436.5-767,425.59-992.63,229.16-1064.82,240.08-1137,163.69-974.58,0-1128-316.46-361-665.66-442.17-447.41-99.26-622-99.26-305.55,63.17-305.55,63.17-480.15-96.46-687.49-124.93S8803.89,2836.93,8803.89,2836.93Z" transform="translate(-6717.93 -2195.47)"/><path class="cls-2" d="M7188.84,3225s-369.37,281.59-436.5,694.84c-93,572.37,75,1055.45,218.25,1398.7,83.82,200.88,152.78,801.65,283.73,1055.8,48.3,93.74,149.05,337.85,632.93,460.22,236.82,59.89,502,63.17,502,63.17s406.15,289.75,1014.86,288.76c524.11-.85,873-216.57,960.3-252.67s433.68-63.17,630.1-261.69,319.29-433.15,352-622.65,98.21-875.32,131-983.6,251-965.56,240.08-1128-65.48-523.39-294.64-712.89-622-279.74-622-279.74,720.23,532.41,698.4,821.17-109.13,965.56-261.9,1218.23-174.6,929.46-207.34,1010.68-185.51,586.55-556.54,622.65-643.84,225.6-753,252.67-447.41,45.12-753-63.17-523.8-216.57-523.8-216.57-294.64,108.29-556.54-27.07S7330.7,6022.36,7243.4,5462.88s-152.78-740-229.16-920.44-120-785.08,21.83-983.6S7188.84,3225,7188.84,3225Z" transform="translate(-6717.93 -2195.47)"/><path class="cls-3" d="M7439.83,4993.64s43.65,803.13,261.9,1010.68,502,415.1,720.23,442.17,327.38,0,327.38,0S8967.58,6654,9174.91,6654s622-108.29,622-108.29-611.1-81.22-796.61-162.43-327.38-306.81-327.38-306.81-458.33,9-676.58-180.48S7439.83,4993.64,7439.83,4993.64Z" transform="translate(-6717.93 -2195.47)"/><path class="cls-3" d="M10146.13,6175.77s316.46-45.12,469.24-171.45,327.38-541.43,327.38-541.43-54.56,577.53-196.43,712.89-305.55,153.41-392.85,126.33S10146.13,6175.77,10146.13,6175.77Z" transform="translate(-6717.93 -2195.47)"/><path class="cls-4" d="M8411,3604s-371-9-360.11,234.62,76.15,812.15,179.94,1109.94,398.42,370,496.64,288.76,305.55-663.86,327.38-801.17-43.65-570.46-196.43-696.79S8411,3604,8411,3604Z" transform="translate(-6717.93 -2195.47)"/><path class="cls-4" d="M10135.22,3396.41s-349.44,90.24-349.2,351.93c.15,162.68,54.56,1451.72,76.39,1520s54.56,393.1,196.43,339,272.81-632.15,272.81-726.66,251-1024,207.34-1177.38S10462.59,3414.46,10135.22,3396.41Z" transform="translate(-6717.93 -2195.47)"/><path class="cls-5" d="M8400.13,3243s207.34-67.68,436.5,4.51,338.29,94.75,338.29,94.75,245-108.86,381.94-124.58c143.2-16.44,387.81,37.82,387.81,37.82s-256.86-418.58-366-472.72S9655.07,2503,9655.07,2503s-294.64,90.24-294.64,0,261.9-135.36,261.9-135.36-261.9-153.41-403.76-153.41-392.85,63.17-381.94,126.33,76.39,324.86,32.74,370-373.9,280.88-406.67,335S8400.13,3243,8400.13,3243Z" transform="translate(-6717.93 -2195.47)"/><path class="cls-6" d="M8574.73,2999.36s381.94-171.45,392.85-252.67,0-297.79,0-297.79,10.91-108.29,98.21-108.29,131,99.26,174.6,99.26,447.41-18,360.11-99.26-446-153.41-506.73-144.38-257.15,72.19-257.15,153.41,76.39,333.88,43.65,379S8574.73,2999.36,8574.73,2999.36Z" transform="translate(-6717.93 -2195.47)"/><path class="cls-7" d="M9196.74,2597.41s54.56,266.59,0,338.78-103,180.48-103,180.48l-268.06-54.14s296-149.28,268.06-205.48S9196.74,2597.41,9196.74,2597.41Z" transform="translate(-6717.93 -2195.47)"/><path class="cls-8" d="M10132.39,4450.39c58.41,346.89-89.84,650.62-331.14,678.41S9317,4897.9,9258.57,4551s89.84-650.62,331.14-678.41S10074,4103.51,10132.39,4450.39Z" transform="translate(-6717.93 -2195.47)"/><path class="cls-8" d="M9336.57,4631.14c-86.38,342.87-349.76,587.52-588.26,546.43s-361.83-352.35-275.44-695.22,349.76-587.52,588.26-546.43S9423,4288.26,9336.57,4631.14Z" transform="translate(-6717.93 -2195.47)"/><path class="cls-9" d="M9142.73,4551.92C9115.29,4709.59,9014.22,4834.1,8917,4830s-153.8-135.19-126.36-292.86,128.51-282.18,225.74-278.11S9170.17,4394.25,9142.73,4551.92Z" transform="translate(-6717.93 -2195.47)"/><path class="cls-9" d="M9835.36,4444.67c59.86,147.12,31.94,287.65-62.34,313.88s-219.25-71.76-279.11-218.88S9462,4252,9556.25,4225.79,9775.5,4297.55,9835.36,4444.67Z" transform="translate(-6717.93 -2195.47)"/><path class="cls-10" d="M9789.52,4457.42c43.79,107.62,23.37,210.42-45.61,229.61s-160.39-52.5-204.17-160.12-23.37-210.42,45.61-229.61S9745.74,4349.8,9789.52,4457.42Z" transform="translate(-6717.93 -2195.47)"/><path class="cls-10" d="M9096.89,4534.6c-1.34,115-60.73,212.7-132.64,218.19s-129.12-83.29-127.78-198.3,60.73-212.7,132.64-218.19S9098.24,4419.59,9096.89,4534.6Z" transform="translate(-6717.93 -2195.47)"/><path class="cls-11" d="M8398.19,5448.38s146.5,159.05,210.9,274,253.79,506.68,544.87,549.75,539.31-120.74,594.95-191.44,253.43-300.6,342.28-444.65c52.54-85.19,189.12-255.78,189.12-255.78s-397.47,235.39-501.09,266.06-421.51,135.89-648.39,91.24-487.06-127-525.8-161.64S8398.19,5448.38,8398.19,5448.38Z" transform="translate(-6717.93 -2195.47)"/><path class="cls-12" d="M8825.86,6060.31s109.06,218.92,422,218.92c279.5,0,364.68-64.14,423.32-117.31S9755,6073,9755,6073s-209.49-46.19-269.84-27.58S9350.56,6081,9330.48,6113s2.94,81.93-40.66,76.76-71.58-85.77-129.66-105.53S8889.31,6050.65,8825.86,6060.31Z" transform="translate(-6717.93 -2195.47)"/></g></svg>