<svg xmlns="http://www.w3.org/2000/svg" xmlns:xlink="http://www.w3.org/1999/xlink" viewBox="0 0 3552.05 3621.77">
  <defs>
    <style>
      .cls-1, .cls-9 {
        fill: #fff;
      }

      .cls-1, .cls-3 {
        stroke: #707272;
      }

      .cls-1, .cls-3, .cls-4, .cls-5, .cls-8 {
        stroke-miterlimit: 10;
      }

      .cls-1 {
        stroke-width: 3px;
      }

      .cls-2 {
        fill: #d8d8d8;
      }

      .cls-3, .cls-5 {
        fill: none;
      }

      .cls-3 {
        stroke-width: 5px;
      }

      .cls-4 {
        fill: #d37128;
      }

      .cls-4, .cls-5 {
        stroke: #773318;
      }

      .cls-4, .cls-8 {
        stroke-width: 4px;
      }

      .cls-5 {
        stroke-width: 6px;
      }

      .cls-6 {
        fill: #ea8527;
      }

      .cls-7 {
        fill: #984421;
      }

      .cls-8 {
        fill: #511414;
        stroke: #8a361e;
      }

      .cls-10 {
        fill: #f3859d;
      }

      .cls-11 {
        fill: #837674;
      }

      .cls-12 {
        fill: #d8506e;
      }

      .cls-13 {
        fill: url(#linear-gradient);
      }

      .cls-14 {
        fill: url(#linear-gradient-2);
      }

      .cls-15 {
        fill: #070909;
      }

      .cls-16 {
        fill: #f2f2f3;
      }

      .cls-17 {
        fill: #87361c;
      }
    </style>
    <linearGradient id="linear-gradient" x1="11720.34" y1="10011.41" x2="12651.31" y2="10011.41" gradientUnits="userSpaceOnUse">
      <stop offset="0" stop-color="#fff"/>
      <stop offset="1" stop-color="#b3b3b3"/>
    </linearGradient>
    <linearGradient id="linear-gradient-2" x1="12632.58" y1="10054.56" x2="13399.1" y2="10054.56" gradientTransform="matrix(1.08, 0.02, 0.02, 0.96, -597.36, 67.73)" xlink:href="#linear-gradient"/>
  </defs>
  <title>drumstix</title>
  <g id="drumstix">
    <g>
      <g>
        <path class="cls-1" d="M12595.13,11606.38s67.17-45.32,85.08-76.32,31.34-45.32,71.65-33.39,17.91,66.78,80.6,95.4,143.29-23.26,152.25-42.64,26.87-50.38,71.65-36.07-26.87,76.32,17.91,93,80.6,0,80.6,0-147.77,202.73-152.25,260-26.87,236.12,17.91,307.67,188.07,167,161.2,264.74c0,0,4.48,143.3-170.16,159.8s-371.66-33.39-416.44-57.24-58.21-52.47-103-47.7-129.86,57.24-237.32,57.24-295.54-50.09-309-112.1-22.39-159.8,94-209.88,246.28-47.7,313.45-97.79c78.69-58.67,197.21-233.73,208.31-298.13S12595.13,11606.38,12595.13,11606.38Z" transform="translate(-10877.18 -8982.56)"/>
        <path class="cls-2" d="M12482.65,12494.88l67.17-100.17s80.6,25,161.2,0,154.48-39.35,154.48-96.59-73.88-196.76-33.58-268.31,114.18-296.93,127.62-332.71a434.9,434.9,0,0,1,30.73-64.4s-77.75,42.93-111.33,21.47-15.57-86.85-81.67-82.78-144.06,82.78-144.06,82.78l-26.15-62-10.08-167,652.2,50.37s-188.75,235.83-208.9,296.64-100.75,207.5-67.17,293.36,161.2,225.38,161.2,282.62,100.75,136.15-13.43,200.34-315.69,60.82-396.29,39.35-87.32-28.62-147.77-71.55S12482.65,12494.88,12482.65,12494.88Z" transform="translate(-10877.18 -8982.56)"/>
      </g>
      <path class="cls-3" d="M12612.41,11606.38s67.17-45.32,85.08-76.32,31.34-45.32,71.65-33.39,17.91,66.78,80.6,95.4,143.29-23.26,152.25-42.64,26.87-50.38,71.65-36.07-26.87,76.32,17.91,93,80.6,0,80.6,0-147.77,202.73-152.25,260-26.87,236.12,17.91,307.67,188.07,167,161.2,264.74c0,0,4.48,143.3-170.16,159.8s-371.66-33.39-416.44-57.24-58.21-52.47-103-47.7-129.86,57.24-237.32,57.24-295.54-50.09-309-112.1-22.39-159.8,94-209.88,246.28-47.7,313.45-97.79c78.69-58.67,197.21-233.73,208.31-298.13S12612.41,11606.38,12612.41,11606.38Z" transform="translate(-10877.18 -8982.56)"/>
      <path class="cls-4" d="M13269.18,11475.58s241.79-193.18,342.54-236.1,332.46-193.18,372.76-246.84,100.75-220,141-273.67,272-268.3,272-343.42,90.67-381-50.37-579.53-181.34-338.06-231.72-364.89-181.34-64.39-221.64-118.05-302.24-225.37-362.69-246.84-574.25-80.7-765.67-80.7-433.21,70-564.18,91.43-534,69.76-745.52,166.35-443.28,246.84-493.66,381-20.15,327.33-50.37,397.08-70.52,268.3,50.37,413.18,221.64,246.84,322.39,289.76,261.94,80.49,362.69,134.15,191.42,64.39,261.94,123.42,141,177.08,221.64,203.91,261.94,134.15,302.24,187.81,86.6,178,113.46,201.83,58.21,33.39,80.6,16.7,35.82-76.32,67.17-85.86,67.17-21.47,89.56,4.77-13.43,93.12,71.65,89.49,83.85-44.18,104.61-56.1,38.68-40.55,87.93-33.39,26.87,76.71,40.3,89.63,67.17,10.54,103-22.85S13269.18,11475.58,13269.18,11475.58Z" transform="translate(-10877.18 -8982.56)"/>
      <path class="cls-5" d="M13269.18,11475.58s241.79-193.18,342.54-236.1,332.46-193.18,372.76-246.84,100.75-220,141-273.67,272-268.3,272-343.42,90.67-381-50.37-579.53-181.34-338.06-231.72-364.89-181.34-64.39-221.64-118.05-302.24-225.37-362.69-246.84-574.25-80.7-765.67-80.7-433.21,70-564.18,91.43-534,69.76-745.52,166.35-443.28,246.84-493.66,381-20.15,327.33-50.37,397.08-70.52,268.3,50.37,413.18,221.64,246.84,322.39,289.76,261.94,80.49,362.69,134.15,191.42,64.39,261.94,123.42,141,177.08,221.64,203.91,261.94,134.15,302.24,187.81,86.6,178,113.46,201.83,58.21,33.39,80.6,16.7,35.82-76.32,67.17-85.86,67.17-21.47,89.56,4.77-13.43,93.12,71.65,89.49,83.85-44.18,104.61-56.1,38.68-40.55,87.93-33.39,26.87,76.71,40.3,89.63,67.17,10.54,103-22.85S13269.18,11475.58,13269.18,11475.58Z" transform="translate(-10877.18 -8982.56)"/>
      <path class="cls-6" d="M11797.54,9421.81s443.3-135.95,651.52-135.95,362.7-17.89,476.89,0,201.5,0,315.69,14.31,120.9,7.16,221.65,75.13,134.33,135.95,241.8,135.95,188.07,7.16,147.77-39.35-302.25-261.16-443.3-300.51-335.84-85.86-544.06-78.71-335.84,50.09-503.75,57.24-342.55,64.4-476.89,93-382.85,96.59-322.4,132.37S11797.54,9421.81,11797.54,9421.81Z" transform="translate(-10877.18 -8982.56)"/>
      <path class="cls-7" d="M11255.72,10652.47s219.41,119.25,250.76,133.56,197,109.71,237.32,112.1,151.88,74.15,201.14,114.69,163.81,164.35,195.15,173.89,208.22,85.86,253,121.64,152.25,291,192.55,291,103-40.55,116.42-57.24,22.39-57.24,62.69-47.7,31.34,82.28,80.6,94.21,115.19-3.58,118-22.66,43.16-52.47,96.89-47.7,24.63,66.78,33.58,81.09,96.27,28.62,100.75,0,206-231.35,282.1-269.51,277.62-169.34,300-176.49,201.5-135.95,210.46-152.64,0-38.16,0-38.16-640.33,324.36-703,345.83-214.94,81.09-353.75,40.55-313.45-121.64-394-174.11-273.15-205.11-389.57-250.43-282.1-128.79-362.7-143.1S11255.72,10652.47,11255.72,10652.47Z" transform="translate(-10877.18 -8982.56)"/>
      <g>
        <path class="cls-8" d="M12345.46,10435.07s104.11,21.47,131,48.3,201.5,193.19,245.16,216.44,134.33,82.28,214.94,84.07,204.86-14.31,245.16-37.56,157.84-105.4,171.28-136.77,50.38-108.29,60.45-126.17,90.68-73.34,90.68-73.34-188.07,71.55-275.39,87.65-245.16,28.62-322.4,26.83-292.18-17.89-332.48-26.83S12345.46,10435.07,12345.46,10435.07Z" transform="translate(-10877.18 -8982.56)"/>
        <g>
          <path class="cls-9" d="M12522.95,10495.06s184.71,109.3,386.21,109.11c205.11-.19,344.21-44.2,406.36-69.76,45.73-18.81,97.39-55.45,97.39-55.45s3.36-14.31-26.87-10.73-114.18,55.45-366.06,67.78c-133.82,6.55-262-14.11-339.2-21.27S12522.95,10495.06,12522.95,10495.06Z" transform="translate(-10877.18 -8982.56)"/>
          <path class="cls-10" d="M12711,10675.72s142.21,87.48,248.52,96.59c132.1,11.33,214.31-35.65,241.8-48.3,49.26-22.66,84-59,84-59s-76.36-37.71-134.33-48.3c-39.18-7.16-70.08-3-110.83,12.52-21.33,8.13-39.29,14.31-49.87,14.31s-22.25-5.78-57.6-16.1c-38.06-11.11-100.75-11.11-144.41,8.94C12759.26,10649.69,12711,10675.72,12711,10675.72Z" transform="translate(-10877.18 -8982.56)"/>
          <path class="cls-11" d="M12525.19,10495.06l20.15,26.24s111.28,41.35,206,63.2c100.75,23.25,199.26,23.85,275.39,19.08s214.07-42.83,250.76-53.82c50.45-15.11,105.95-49.82,130.45-66.16,7.57-5,7.3-12.26-.6-17.16h0l-67.17,28.62s-94,45.32-185.83,64.4-223.89,22.66-286.58,16.7-223.89-32.2-253-48.89-40.3-25-40.3-25Z" transform="translate(-10877.18 -8982.56)"/>
          <path class="cls-12" d="M12711,10675.13l20.15,11.93s77.18-30.08,109.71-38.16c33.58-8.35,49.26-3.18,85.08,4s34.59,15.22,64.31,13.38,43.75-14.88,76.74-20.81c31.71-5.7,88.75-10.56,111.95-6.08,41.51,8,94,39.35,94,39.35l13.43-17.94s-82.93-34.91-129.86-45.27c-39.36-8.68-94-3.58-111.95,3.58s-39.29,28.62-54.35,22.66-46.4-21.47-95.66-22.66-87.32,7.16-111.95,16.7S12711,10675.13,12711,10675.13Z" transform="translate(-10877.18 -8982.56)"/>
        </g>
      </g>
      <g>
        <path class="cls-13" d="M12616.51,9948.35c97.35,188.61-16.56,369.74-254.42,404.57s-509.6-89.83-607-278.44,16.56-369.74,254.42-404.57S12519.16,9759.74,12616.51,9948.35Z" transform="translate(-10877.18 -8982.56)"/>
        <path class="cls-14" d="M14025.7,9981.3c-50.71,173.37-271.67,299-493.51,280.57s-360.57-173.88-309.86-347.24,271.67-299,493.51-280.57S14076.42,9807.93,14025.7,9981.3Z" transform="translate(-10877.18 -8982.56)"/>
        <path class="cls-15" d="M12465.07,10074.05c32.6,79.12-18.8,152.37-114.82,163.59s-200.29-43.82-232.89-122.94,18.8-152.37,114.82-163.59S12432.47,9994.93,12465.07,10074.05Z" transform="translate(-10877.18 -8982.56)"/>
        <ellipse class="cls-15" cx="2653.27" cy="1036.69" rx="174.64" ry="143.1"/>
        <ellipse class="cls-16" cx="1346.87" cy="1065.31" rx="83.96" ry="60.82"/>
        <ellipse class="cls-16" cx="2599.54" cy="993.76" rx="73.88" ry="64.4"/>
      </g>
      <ellipse class="cls-17" cx="831.36" cy="1522.34" rx="58.77" ry="31.3"/>
      <ellipse class="cls-17" cx="1179.32" cy="1491.04" rx="58.77" ry="31.3"/>
      <ellipse class="cls-17" cx="1007.68" cy="292.57" rx="58.77" ry="31.3"/>
      <ellipse class="cls-17" cx="3095.27" cy="1316.25" rx="58.77" ry="31.3"/>
      <ellipse class="cls-17" cx="3362.77" cy="1396.4" rx="58.77" ry="31.3"/>
      <ellipse class="cls-17" cx="2975.68" cy="1427.7" rx="58.77" ry="31.3"/>
      <ellipse class="cls-17" cx="890.13" cy="1396.4" rx="58.77" ry="31.3"/>
      <ellipse class="cls-17" cx="1296.86" cy="192.4" rx="58.77" ry="31.3"/>
      <ellipse class="cls-17" cx="1238.09" cy="310.46" rx="58.77" ry="31.3"/>
    </g>
  </g>
</svg>
