<svg xmlns="http://www.w3.org/2000/svg" viewBox="0 0 5032 5032"><defs><style>.cls-1{fill:#cebda5;stroke:#736459;stroke-width:32px;}.cls-1,.cls-5,.cls-7,.cls-8{stroke-miterlimit:10;}.cls-2,.cls-8{fill:#fff;}.cls-3{fill:#f19921;}.cls-4{fill:#f6eb22;}.cls-5{fill:#b53825;}.cls-5,.cls-7,.cls-8{stroke:#020202;}.cls-5,.cls-7{stroke-width:27px;}.cls-6{fill:#e15c2a;}.cls-7{fill:none;}.cls-8{stroke-width:16px;}.cls-9{fill:#070909;}</style></defs><title>egg</title><g id="egg"><path class="cls-1" d="M7721.33,6814s98.66-320.95,215.25-376.28,466.38-66.4,591.94-88.54,556.07-232.41,574-398.42S9255,5652,8977,5176.09s-134.53-819-107.63-996,44.84-431.62-242.16-653-825.13-265.61-905.85-365.22-349.78-442.69-394.63-531.22-313.91-221.34-484.32-221.34-421.53,332-511.22,387.35-475.35,132.81-654.72,121.74-412.57-55.34-565,121.74S4860.28,3350,4860.28,3637.75s9,475.89-71.75,608.69S4178.65,4667,4160.71,5010.08s-35.88,575.49,179.38,719.37,475.35,154.94,574,287.75,484.32,907.51,484.32,907.51,224.22,265.61,439.47,332,520.19,44.27,636.79,110.67,251.13,44.27,448.44,0,538.13-166,600.91-243.48S7721.33,6814,7721.33,6814Z" transform="translate(-4134.76 -2393.29)"/><path class="cls-2" d="M5667.47,3211.8s-287-138.21-385.66,0-143.5,248.88-125.56,370.62,143.5,254.54,89.69,354.15-61.55,154.94-93.56,287.75-139.63,354.15-247.26,409.49-466.38,188.14-493.28,431.62,26.91,453.75,170.41,464.82,313.91-77.47,403.6,77.47,35.88,210.28,170.41,309.88,242.16,88.54,313.91,332,134.53,542.29,340.81,597.63,358.75-66.4,466.38-55.34,206.28,188.14,296,210.28,152.47-66.4,251.13-55.34,403.6,33.2,502.25-77.47S7542,6592.68,7542,6338.14s296-265.61,367.72-254.54,322.88,177.07,412.57,33.2,44.84-409.49,322.88-398.42c53.78,2.14,242.16,11.07,233.19-154.94s-296-284.6-367.72-485.38-35.88-488.53,44.84-632.4,206.28-498,80.72-586.56-161.44-109.79-331.85-132.36-322.88-55.78-376.69-155.38-116.59-232.41-287-254.54-233.19-177.07-313.91-343.08-242.16-310.24-430.5-276.86-260.1,155.12-304.94,232.59,0,99.6-161.44,99.6-224.22,33.2-340.81,132.81S5667.47,3211.8,5667.47,3211.8Z" transform="translate(-4134.76 -2393.29)"/><ellipse class="cls-3" cx="2589.1" cy="2438.93" rx="1322.9" ry="1333.59"/><ellipse class="cls-4" cx="2555.66" cy="2360.13" rx="1289.46" ry="1254.37"/><path class="cls-5" d="M5992.31,4993.78s43.73,145.27,53.82,211.68,0,199.23,16.82,236.58,53.82,141.12,117.73,166,164.82-16.6,215.27-45.66,117.73-95.46,131.18-124.52,131.18-58.11,131.18-58.11-259,20.75-349.82-20.75-189.22-120.37-212.34-153.57S5992.31,4993.78,5992.31,4993.78Z" transform="translate(-4134.76 -2393.29)"/><path class="cls-6" d="M6061.68,5395.34s34.48,157,106.45,191.1c38.15,18.09,136.57,21.49,182.19-1.27s98.8-78.5,98.8-78.5-67.06-48-98.8-52.17S6234.49,5467,6234.49,5467s-4.56-55.86-43.73-69.13C6132.3,5378,6061.68,5395.34,6061.68,5395.34Z" transform="translate(-4134.76 -2393.29)"/><path class="cls-7" d="M6604.5,4694.94s-84.09,4.15-107.64-20.75-77.36-87.16-114.36-112.07-127-50.81-180.82-30.05S6089,4637.9,6078.59,4695.2c-16.91,92.95,14.64,157.46,75.18,215.57S6332,5018.69,6369,5010.39" transform="translate(-4134.76 -2393.29)"/><path class="cls-8" d="M6759.83,4857.59s133.93,53.18,177.66,90.54,121.09,132.47,121.09,132.47,227-193.73,248.91-223c47.09-63,109.15-253.71,53.82-370.18-57.18-120.37-151.36-174.33-259-153.57S6883.68,4462.51,6850,4508.16s-70.64,158.18-70.64,197.38S6759.83,4857.59,6759.83,4857.59Z" transform="translate(-4134.76 -2393.29)"/><path class="cls-8" d="M6480.22,4657.43s151.36-116.22,198.45-182.63,87.45-240.73,30.27-327.9-151.36-120.37-208.55-103.77S6349,4122,6291.86,4200.87s-107.64,186.78-104.27,232.43-.16,95.46-.16,95.46,101.07-24.9,185.16,20.75S6480.22,4657.43,6480.22,4657.43Z" transform="translate(-4134.76 -2393.29)"/><ellipse class="cls-9" cx="3038.1" cy="2227.84" rx="210.23" ry="259.41"/><ellipse class="cls-9" cx="2416.5" cy="1883.57" rx="183.67" ry="226.64"/><ellipse class="cls-2" cx="3101.77" cy="2192.25" rx="124.38" ry="153.48"/><ellipse class="cls-2" cx="2466.11" cy="1883.57" rx="106.17" ry="131.01"/></g></svg>