<svg xmlns="http://www.w3.org/2000/svg" xmlns:xlink="http://www.w3.org/1999/xlink" viewBox="0 0 3546.05 3616.27">
  <defs>
    <style>
      .cls-1 {
        fill: url(#linear-gradient);
      }

      .cls-2, .cls-3 {
        fill: #eaf7fe;
      }

      .cls-2 {
        stroke: #030303;
      }

      .cls-2, .cls-3, .cls-7, .cls-8, .cls-9 {
        stroke-miterlimit: 10;
      }

      .cls-2, .cls-3, .cls-7 {
        stroke-width: 3px;
      }

      .cls-3, .cls-7, .cls-8, .cls-9 {
        stroke: #8f7b2f;
      }

      .cls-4 {
        fill: #7a3422;
      }

      .cls-5 {
        fill: #0b1310;
      }

      .cls-6 {
        fill: #f2f5f7;
      }

      .cls-7, .cls-8 {
        fill: none;
      }

      .cls-8, .cls-9 {
        stroke-width: 2px;
      }

      .cls-9 {
        fill: #471213;
      }

      .cls-10 {
        fill: #df1f26;
      }

      .cls-11 {
        fill: #fffefe;
      }
    </style>
    <linearGradient id="linear-gradient" x1="3806.36" y1="8706.39" x2="7352.4" y2="8706.39" gradientUnits="userSpaceOnUse">
      <stop offset="0" stop-color="#e7cf20"/>
      <stop offset="1" stop-color="#d1992a"/>
    </linearGradient>
  </defs>
  <title>lemondrop</title>
  <g id="Layer_19" data-name="Layer 19">
    <g>
      <path class="cls-1" d="M5613.68,7143.06s-655.82,164.41-847.27,277.9c-234.41,138.95-601.56,439-790.79,851.07-135,294-259.83,720.8-79.08,1120.28s552.62,677.38,818.57,790.28S5094,10304.17,5116.61,10365s158.16,165,259.83,147.63,282.42-86.84,305-130.27,79.08-86.84,146.86-104.21,809.75-291,881.16-373.43c79.6-91.86,531-408.17,610-738.17s11.3-868.44-158.16-1146.34-485.77-607.91-598.74-660-169.45-147.63-192-251.85S6280.2,6908.59,6122,6899.9s-259.83,17.37-305,69.47S5613.68,7143.06,5613.68,7143.06Z" transform="translate(-3806.36 -6898.26)"/>
      <ellipse class="cls-2" cx="1085.73" cy="1321.11" rx="445.73" ry="432.05"/>
      <ellipse class="cls-3" cx="2272.17" cy="1423.51" rx="445.73" ry="461.86"/>
      <g>
        <path class="cls-4" d="M5269.53,8307.08c20.24,141.81-76.94,266.36-217.06,278.17s-270.11-93.57-290.35-235.38,76.94-266.36,217.06-278.17S5249.3,8165.26,5269.53,8307.08Z" transform="translate(-3806.36 -6898.26)"/>
        <ellipse class="cls-4" cx="2338.28" cy="1524.87" rx="248.53" ry="281.36"/>
      </g>
      <g>
        <path class="cls-5" d="M5137.12,8341c21.42,80.73-21.93,155.7-96.82,167.44s-153-44.19-174.38-124.92,21.93-155.7,96.82-167.44S5115.7,8260.23,5137.12,8341Z" transform="translate(-3806.36 -6898.26)"/>
        <ellipse class="cls-5" cx="2335.46" cy="1551.8" rx="149.68" ry="151.98"/>
      </g>
      <g>
        <ellipse class="cls-6" cx="1070.2" cy="1406.34" rx="70.61" ry="71.65"/>
        <ellipse class="cls-6" cx="2222.49" cy="1468.22" rx="81.9" ry="87.93"/>
      </g>
      <ellipse class="cls-7" cx="1087.14" cy="1321.67" rx="445.73" ry="432.05"/>
      <g>
        <path class="cls-8" d="M4393.61,8758.36s96-52.11,146.86-52.11,118.62,26.05,118.62,26.05" transform="translate(-3806.36 -6898.26)"/>
        <path class="cls-8" d="M6359.28,8875.59s135.56,26.05,163.81,47.76,107.32,69.47,101.67,99.87" transform="translate(-3806.36 -6898.26)"/>
        <path class="cls-8" d="M4532,8711.57s28.24,173.69,197.7,247.5c132.92,57.9,392.14,148.35,426.37,160.32a182,182,0,0,0,28.44,7.41l354.09,35.37s445.06-20.73,552.39-55.47,316.32-112.9,344.56-134.61,90.38-35.23,90.38-35.23" transform="translate(-3806.36 -6898.26)"/>
        <g>
          <path class="cls-9" d="M4868.08,9044.94s180.75,277.9,169.45,382.11,11.3,364.74,203.35,382.11,451.88-26.05,508.36-147.63,192-269.22,180.75-338.69.67-191.06.67-191.06-372.8,26.05-531.29,26.05S4868.08,9044.94,4868.08,9044.94Z" transform="translate(-3806.36 -6898.26)"/>
          <path class="cls-10" d="M5822.68,9531.26s-265.48-30.4-350.21,0-186.4,117.24-209,169.35-28.24,112.9-28.24,112.9,226.17,19.29,350.21-34.74C5754.89,9705,5822.68,9531.26,5822.68,9531.26Z" transform="translate(-3806.36 -6898.26)"/>
          <path class="cls-11" d="M5156.15,9140.47s-11.3,173.69,220.29,199.74,440.58-26.05,485.77-43.42S5930,9262,5930,9262V9123.1s-340.92,47.76-407.7,39.08S5156.15,9140.47,5156.15,9140.47Z" transform="translate(-3806.36 -6898.26)"/>
          <path class="cls-8" d="M4839.33,9010.2s209.51,312.64,198.21,416.85,11.3,364.74,203.35,382.11,451.88-26.05,508.36-147.63,192-269.22,180.75-338.69.67-191.06.67-191.06-372.8,26.05-531.29,26.05S4839.33,9010.2,4839.33,9010.2Z" transform="translate(-3806.36 -6898.26)"/>
        </g>
      </g>
    </g>
  </g>
</svg>
