<svg xmlns="http://www.w3.org/2000/svg" viewBox="0 0 907.01 941.41"><defs><style>.cls-1{fill:#dade57;}.cls-1,.cls-5{stroke:#38471f;}.cls-1,.cls-17,.cls-3,.cls-4,.cls-5,.cls-9{stroke-miterlimit:10;}.cls-1,.cls-5,.cls-9{stroke-width:3px;}.cls-2{fill:#232323;}.cls-3{fill:#dfdfde;}.cls-3,.cls-4{stroke:#737371;}.cls-17,.cls-3,.cls-4{stroke-width:2px;}.cls-4{fill:#e6e6e5;}.cls-5,.cls-9{fill:none;}.cls-6{fill:#12133d;}.cls-7{fill:#7472a4;}.cls-8{fill:#8784b2;}.cls-9{stroke:#12133d;}.cls-10{fill:#7f8233;}.cls-11{fill:#aabf38;}.cls-12{fill:#303e1d;}.cls-13{fill:#acb937;}.cls-14{fill:#eaed95;}.cls-15{fill:#aea834;}.cls-16{fill:#f7ec1f;}.cls-17{fill:#bbc645;stroke:#26341a;}.cls-18{fill:#26341a;}.cls-19{font-size:142px;fill:#ec1e37;font-family:Avenir-Black, Avenir;}.cls-20{letter-spacing:-0.09em;}.cls-21{letter-spacing:-0.02em;}.cls-22{letter-spacing:0em;}</style></defs><title>pickle</title><g id="topDog"><path class="cls-1" d="M1093.48,321s-69.23-10.65-96.62,7.61-67,65.43-76.84,88.25S899.48,496,896.43,505.15s-18.26,18.26-21.3,27.39,0,30.43,0,30.43-22.82,35-22.82,53.26,9.13,85.21,9.13,85.21l-9.13,121.73s3,86.73,27.39,120.21,74.56,68.47,115.64,77.6,136.94,3,156.73-12.17,59.34-51.73,62.39-68.47,9.13-73,7.61-86.73-24.35-50.21-24.35-56.3-25.87-22.82-30.43-27.39-6.09-38-6.09-44.13-6.09-16.74-6.09-16.74-80.65-7.61-95.86-7.61h-35c3.41-2.68-27,8.76-28.15,7.61-4.56-4.56-19-130.86-19-130.86s60.86,42.61,97.38,42.61h83.69l-32-33.48s1.52-19.78,7.61-28.91,39.56-80.65,44.13-106.51,24.35-77.6-12.17-98.9A372.36,372.36,0,0,0,1093.48,321Z" transform="translate(-660.06 -85.56)"/><path class="cls-2" d="M977.08,581.23,992.3,713.61s21.3-10.65,30.43-12.17,83.69,5.33,83.69,5.33l-12.93-87.49s-34.24,6.09-51.73-3S977.08,581.23,977.08,581.23Z" transform="translate(-660.06 -85.56)"/><path class="cls-3" d="M977.08,581.23l7.61,53.26s86.73,28.91,108.8,30.43,58.58,0,58.58,0l-10.65-39.22a85.47,85.47,0,0,0-37.28-2.28c-19.78,3.47-49.45-2.62-69.23-10.23S977.08,581.23,977.08,581.23Z" transform="translate(-660.06 -85.56)"/><path class="cls-4" d="M987.73,665.59l4.56,48s14.77-12.3,30.43-12.17c24,.19,103.47,7.61,103.47,7.61l9.13-43.45Z" transform="translate(-660.06 -85.56)"/><path class="cls-1" d="M1093.48,566.39s-11.79-22.82-21.3-12.55-9.89,29.67,0,33.09,27.39-1.14,40.32,0,54,17.12,66.57,19.4,29.67,0,34.24-9.13,13.69-26.25,0-28.53-35.38,2.28-37.66,5.71-27.05,4.56-32.93,0-19.57-16.73-21.85-23.2-3.42-64.67-3.42-64.67" transform="translate(-660.06 -85.56)"/><path class="cls-5" d="M1155.11,618.89s-38.8-5.71-47.93,0-36.52,3.42-47.93,0-59.34-21.68-63.91-26.25-20.54-18.26-20.54-18.26L996.1,709s14.07-3.8,22.06-7.61,40.7,7.61,54,6.47,60.1.08,60.1.08" transform="translate(-660.06 -85.56)"/><path class="cls-6" d="M1023.87,427.16s-22.82,25.11-24,41.08,14.07,44.51,35,53.64,38.42,14.84,50.21,0S1106,471.67,1106,471.67L1112.5,442Z" transform="translate(-660.06 -85.56)"/><path class="cls-6" d="M1132.28,450l-12.55,29.09,2.28,63.35h32s18.26-27.39,18.26-38.8V466Z" transform="translate(-660.06 -85.56)"/><path class="cls-7" d="M1023.87,427.16s-1.9,34.22,11,51.92,56,33.6,56,33.6L1112.5,442Z" transform="translate(-660.06 -85.56)"/><path class="cls-8" d="M1119.73,478.52s6.85,37.66,17.12,43.37,26.61,4.76,26.61,4.76l8.77-23V466l-39.94-16Z" transform="translate(-660.06 -85.56)"/><path class="cls-9" d="M943.6,479.08s-12.93-24.53-6.85-29.09,81.41-22.82,81.41-22.82L1112.5,442l59.72,24" transform="translate(-660.06 -85.56)"/><rect class="cls-10" x="887.87" y="810.7" width="17.12" height="34.24" rx="3.75" ry="3.75" transform="translate(-837.01 1322.55) rotate(-71.12)"/><path class="cls-11" d="M1060.34,317.9s-85.21,10.65-109.56,57.82S906.66,486.8,903.61,497.45s-28.91,27.39-25.87,41.08,7.61,27.39,7.61,27.39S858,610.05,862.53,626.79s-.51,83.69-.51,83.69l9.64,101.19s-13.2,54-9.64,69.23,43.12,95.86,65.18,109.56,84.45,36.52,84.45,36.52,4.56-16.74-21.3-38-29.47-51.73-29.47-51.73l-48.13-33.48s-12.17-91.3-9.13-92.06S917.31,643.53,927.2,599.4s10.29-109.56,33.68-126.29S1010.12,451.8,1004,432s-3-54.78,1.52-67S1060.34,317.9,1060.34,317.9Z" transform="translate(-660.06 -85.56)"/><path class="cls-12" d="M1000.31,530.22c-2.59-6.45-9.45-9.3-15.49-11.63-4.11-1.59-5.9,5-1.82,6.6,3.41,1.32,7.48,2.78,9.86,5.73,1.82,2.26,2.63,6.43-.25,8.19-3.75,2.3-.31,8.23,3.46,5.91C1001.17,541.9,1002.48,535.6,1000.31,530.22Z" transform="translate(-660.06 -85.56)"/><path class="cls-12" d="M958.13,608.6c-2.72-11.68-4-23.41-4.87-35.34-.33-4.37-7.18-4.4-6.85,0,.81,10.66,1.66,21.34,3.87,31.82,2.82,13.39,4.85,24,1.19,37.72-4.3,16-10.17,32.65-.5,47.94,2.35,3.71,8.28.28,5.91-3.46-11.2-17.7,1.91-37.19,3.77-55.53C961.46,623.75,959.94,616.36,958.13,608.6Z" transform="translate(-660.06 -85.56)"/><path class="cls-12" d="M950,510.05c2.56-3.6-3.38-7-5.91-3.46-12.62,17.78-28.63,41.24-31.71,63.4a22.34,22.34,0,0,0,.73,10.85c1.45,3.89,5.1,5.61,6.88,9l1.33,8.31a8.16,8.16,0,0,0-2.48,2.23c-.55,1.45-1.32,2-1.71,3.93-1.3,6.42,7.95,19.58-7.81,20.43-2.84.15-4.67,3.7-2.42,5.84,4.51,4.29,13.76,10.17,16.47,15.67q3.09,1.67.44,4.82.18,5.22-4.66,3.2c-2,.75-5.6.49-7.8,1.14-3,.89-3.51,6,0,6.6l.86,14.08c-4.27,1.07-2.46,7.68,1.82,6.6,11.31-2.84,14.29-14.38,9-21.6,5.57-.38,11-1.55,11.75-8,1-8.08-10.47-17.09-18.19-23.32a14.91,14.91,0,0,0,8.9-11.54c.34-2.33-.35-3.84-.36-6a12.41,12.41,0,0,1,1.05-9.32l2.2-1.89c1.54-3.39,2.57-5.62,1.3-9.4-1.82-5.39-6.9-8.1-9-13.43-3.56-9,1.71-18.42,5.45-26.77A243.76,243.76,0,0,1,950,510.05Z" transform="translate(-660.06 -85.56)"/><path class="cls-12" d="M922.47,801.23c-1.1-8.78-2.46-18.28-10.09-23.88a16.85,16.85,0,0,0-7.47-3.19c-.15,0-1.1,0-2.35.12a12.72,12.72,0,0,0,1.56-10.53,14.68,14.68,0,0,0-5.78-7.94c-6.28-4.43-10.65-1.35-8.17-11.52l5.44-22.3c1.57-6.45,5-14.13,3.63-20.86-.81-4-3.29-6.28-6.24-8.94-4.32-3.9-4.51-2.78-5-10.11-.56-8.67,3.38-11.51,9.62-16.71a2.84,2.84,0,0,0,.41-4.18,3.28,3.28,0,0,0-6.36.28C885.12,667,878.25,674,879,683.35a15.44,15.44,0,0,0,3.63,8.8c1.56,1.94,4,3,5.5,4.87,3.88,4.64,3.63,9.13,2.83,15-1.73,12.72-9.24,26-9.32,38.84,0,2.73.31,4.46,2.23,6.41a7.84,7.84,0,0,0,2.44,1.71l2.63.7q10,.18,2.35,14.93a3.46,3.46,0,0,0-2,5c1.54,2.5,2.8,3.2,5.87,3.14,4.93-.1,3.49-1.55,9.62,0,9,2.31,9.81,10.16,10.84,18.4C916.16,805.55,923,805.6,922.47,801.23Z" transform="translate(-660.06 -85.56)"/><path class="cls-12" d="M1026.64,898.5c-19.58-34.82-46.93-72.38-44.85-114.13.22-4.4-6.63-4.39-6.85,0-2.14,43.11,25.59,81.67,45.79,117.59C1022.88,905.8,1028.8,902.35,1026.64,898.5Z" transform="translate(-660.06 -85.56)"/><path class="cls-12" d="M1061.09,807.69a17.57,17.57,0,0,0-6.31-5c-1.37-.61-5.83-.8-6.71-2.51-1.28-2.48,3.53-6.22-.15-10.08-1.48-1.56-3.39-1.27-5.05-2.25-3.83-2.26-2.62-3.69-4.44-7a28.28,28.28,0,0,0-2.86-3.73c-4.9-6.24-3.57-5.75-4.8-12.29-1.35-7.2-5.86-6.37-10.49-10.56-7.8-7.05,2.48-35-17.44-29.66-4.25,1.14-2.45,7.74,1.82,6.6,6.32-1.69,4.64,19.49,6.54,23.25,2.53,5,7.72,5.73,10.67,10.27s.72,10.5,4.4,15c2.76,3.37,3.78,3.32,6.12,7.73,1.54,2.9,2,3.79,4.68,5.81s3.81-.44,5.09,3.42c.28.85-1.59,2.66-1.46,3.89.36,3.36.44,4.21,3.25,6.42,1.43,1.12,7.37,3.18,8.47,3.86,7.73,4.76,7.48,11.35,7.56,19.94,0,4.4,6.89,4.41,6.85,0C1066.76,822.78,1066.51,814.2,1061.09,807.69Z" transform="translate(-660.06 -85.56)"/><path class="cls-12" d="M1111.07,798.57c-4.38-2.11-7-1.23-9.76-5.08-1.92-2.67-1.78-5.19-5.11-7.22s-7.57-2.13-11.36-2c-7.11.18-12.65-1.28-12.2-11.36.18-4.08,2-8.65,2.88-12.64,1-4.29-5.62-6.12-6.6-1.82-1.75,7.68-7.33,20.24-2.47,27.75,4.24,6.54,11.85,4.95,18.39,4.92,1.86,0,4.89-.46,6.52.53,8,4.89.55,4.46,3.89,8.45a11,11,0,0,0,4,3.15c1.18.64,2.56-.07,3.75.31,8.21,2.62,10.6,4.86,13.92,11.59,4.89,9.9,2,15.06-9.44,17.65-4.3,1-2.48,7.58,1.82,6.6,7.6-1.72,18.45-5.29,18.14-14.62S1119.48,802.62,1111.07,798.57Z" transform="translate(-660.06 -85.56)"/><path class="cls-12" d="M1182.08,819.22c1.77-13.92.82-27.75-13.19-34.53-14.75-7.13-32.6-1.05-46.08-11.45-3.49-2.69-6.9,3.26-3.46,5.91,8.88,6.85,19.28,7.27,30,8.19,6.24.54,13.17,1.2,18.64,4.61,9.1,5.67,8.52,16.72,7.36,26.1a21.47,21.47,0,0,0-6.06,1.25c-4.13,1.46-2.35,8.08,1.82,6.6,20.28-7.18,16.9,30.09,7.67,38-3.35,2.88,1.51,7.7,4.84,4.84C1195.6,858.52,1196.7,825.94,1182.08,819.22Z" transform="translate(-660.06 -85.56)"/><path class="cls-12" d="M1182.45,901.9c0-4.41-6.86-4.41-6.85,0q0,15.86.1,31.72c0,8.87,2.11,22.17-6.53,27.76-3.69,2.38-.26,8.31,3.46,5.91,6.82-4.4,9.09-11.14,9.76-19C1183.7,933,1182.5,917.21,1182.45,901.9Z" transform="translate(-660.06 -85.56)"/><path class="cls-12" d="M1158.44,931.86c-2.88-7.89-9.39-10.69-15.67-15.43-3.52-2.66-6.93,3.29-3.46,5.91,5.21,3.94,11.16,6.29,13.1,13.13,1.63,5.72.77,12-.08,17.82-.63,4.31,6,6.17,6.6,1.82C1160.06,947.49,1161.14,939.29,1158.44,931.86Z" transform="translate(-660.06 -85.56)"/><path class="cls-12" d="M1133,964.56c-2.31-17.27-14.48-25.15-30.51-27.62-4.71-.73-5-1.88-8.55-5.12a17.72,17.72,0,0,0-7.4-4c-4-1.11-8.18-.9-12.27-.46-9.43,1-16.24-3.15-17.66-12.71-.65-4.34-7.25-2.5-6.6,1.82,1,6.39,2.88,13.19,8.82,16.66,6.75,3.95,13.93.45,21.14.67,8.52.26,9.81,8.23,16.44,10.22,5.36,1.61,10.94-.59,16.49,2.25a23.82,23.82,0,0,1,13.24,18.26C1126.74,968.86,1133.6,968.92,1133,964.56Z" transform="translate(-660.06 -85.56)"/><path class="cls-12" d="M927.57,910c-9-4.88-3.71-9.31-7.82-15-1.13-1.57-2.21-1.61-3.43-2.59-4.21-3.39-8.51-6.29-9.29-12.31-1.51-11.64,3.23-18-8.28-24-3.44-1.78-2.55.6-2.89-2.32-.09-.79,1.56-3,1.59-4,.06-2.79-1.61-4.69-3.77-6.13-6.89-4.57-15-1.3-16.72-12-1-6.48,1.84-11.87.6-18.41-.82-4.32-7.42-2.49-6.6,1.82,1.32,7-3.94,13.26-1.77,20.31,1.37,4.45,5,7.8,9,10,2.09,1.2,7.75,1.86,9.12,3.24,4.33,4.35.45,1.72.51,5.15s-.78,5.29,2.52,7.57c1.76,1.21,3.9.35,5.51,1.32,7.84,4.7,4.26,12.39,4.39,18.88.09,4.56,1,9.26,4.26,12.69,1.38,1.48,3.05,2,4.65,3.2,3.11,2.27,4.26,3,5.73,6.69,2.21,5.52,3.79,8.86,9.29,11.83C928,918,931.45,912.11,927.57,910Z" transform="translate(-660.06 -85.56)"/><path class="cls-12" d="M1127.87,996.77c-27.52-.19-70.14,26.75-90.62-2.16-2.53-3.57-8.47-.15-5.91,3.46,23.49,33.18,65.62,5.34,96.53,5.56C1132.28,1003.64,1132.28,996.8,1127.87,996.77Z" transform="translate(-660.06 -85.56)"/><path class="cls-12" d="M1034.07,329.81c-17.42,2.29-29.13,14.83-35.49,30.66-3.42,8.52-7.43,19.12-7.33,28.38,0,3.65,1.62,5.75,2.48,9.06,4.32,16.64-11.52,15.36-20.94,12.67-3.62-1-6.26,4.63-2.64,6.26,13,5.82,19.17,19.68,14.6,33.2-1.41,4.18,5.2,6,6.6,1.82A33.19,33.19,0,0,0,984.68,419c9.94-.07,19.68-3.62,18.4-15.76-.53-5.07-3.44-8.8-3.88-14.08-.58-6.92,1.31-13.25,3.45-19.83,4.9-15.13,14.22-30.45,31.42-32.71C1038.38,336.09,1038.44,329.24,1034.07,329.81Z" transform="translate(-660.06 -85.56)"/><path class="cls-12" d="M1103.64,433c-4.7-5.25-7.06-10.86-9.49-17.35-1.54-4.12-3.65-8.14-7.67-10.3-6.9-3.71-16-.35-19.2,6.66-1.8,4,4.1,7.47,5.91,3.46a7.62,7.62,0,0,1,8.73-4.6c4,1,5.3,5.69,6.47,9.05a51.56,51.56,0,0,0,10.4,17.92C1101.74,441.11,1106.57,436.25,1103.64,433Z" transform="translate(-660.06 -85.56)"/><path class="cls-12" d="M1138.64,363c-1-4.28-7.63-2.47-6.6,1.82,2.88,12,1,27.27.1,39.58-.87,11.39-9.17,18.18-12.26,28.66-1.25,4.23,5.36,6,6.6,1.82,3.35-11.33,11.53-18.08,12.51-30.48C1140,391.36,1141.71,375.87,1138.64,363Z" transform="translate(-660.06 -85.56)"/><rect class="cls-12" x="935.04" y="919.56" width="17.12" height="34.24" rx="3.75" ry="3.75" transform="translate(-908.1 1440.81) rotate(-71.12)"/><rect class="cls-13" x="1140.43" y="960.72" width="17.12" height="34.24" rx="3.75" ry="3.75" transform="translate(423.82 2399.63) rotate(-127.93)"/><rect class="cls-10" x="1072.39" y="951.8" width="17.12" height="34.24" rx="3.75" ry="3.75" transform="translate(-845.71 1592.57) rotate(-71.12)"/><rect class="cls-14" x="1018.54" y="564.85" width="17.12" height="20.38" rx="3.75" ry="3.75" transform="translate(1543.66 524.06) rotate(152.44)"/><rect class="cls-15" x="924.22" y="481.91" width="17.12" height="20.38" rx="3.75" ry="3.75" transform="translate(1327.34 411.23) rotate(152.44)"/><rect class="cls-16" x="1050.69" y="344.81" width="17.12" height="20.38" rx="3.75" ry="3.75" transform="translate(1502.49 94.09) rotate(152.44)"/><path class="cls-17" d="M866.76,648.94s-51.73,27.39-60.1,31.19-32.71,5.33-35,12.17-7.61,22.06,0,28.15,54.78,37.28,54.78,37.28-9.89,4.56-14.46,13.69S801.33,779,798.29,779s-14.46,3.8-12.93,10.65,16,37.28,22.82,41.84,45.65-3.8,53.26-9.13,24.35-21.3,24.35-26.63-4.56-32.71-12.17-42.61-9.89-18.26-21.3-16.74-16,4.46-16,4.46-42.61-28-42.61-31.85,76.08-45.65,76.08-45.65" transform="translate(-660.06 -85.56)"/><path class="cls-18" d="M832.93,754.61c-5.57,3.65-12.69,2.4-18.33,6.42A21.84,21.84,0,0,0,806,773.8a35.42,35.42,0,0,0-.89,9.93c-2.9-1.82-6.71,2.48-4.06,5.5s5.27,6.31,7.67,9.63a34.16,34.16,0,0,0,6.66,9.91c2.71,2.75,7.41-.79,5.38-4.15-1.87-3.09-3.87-6.06-6-9-3.29-7.44-4.3-16.72-1-23.26,4.88-9.7,14.87-6.82,22.56-11.86C840.06,758.12,836.63,752.19,832.93,754.61Z" transform="translate(-660.06 -85.56)"/><path class="cls-18" d="M845.84,811.16a8.42,8.42,0,0,0-1.46-4.11c-.51-.72-2.82-2.24-2.86-2.87-.28-4.38-7.13-4.41-6.85,0a7,7,0,0,0,1.18,3.79c.9,1.29,2.71,2.2,3.2,3.73s0,4.37,0,6.13q0,4.19-.07,8.38c0,4.41,6.81,4.41,6.85,0C845.84,821.29,846.41,816,845.84,811.16Z" transform="translate(-660.06 -85.56)"/><path class="cls-18" d="M863.32,779.18c-3.17-3.06-8,1.78-4.84,4.84,7.7,7.42,7.83,18.54,7.83,28.55,0,4.41,6.85,4.41,6.85,0C873.16,800.68,872.39,787.93,863.32,779.18Z" transform="translate(-660.06 -85.56)"/><text class="cls-19" transform="translate(2.84 121.27)"><tspan class="cls-20">Y</tspan><tspan x="78.95" y="0">ou’</tspan><tspan class="cls-21" x="289.11" y="0">r</tspan><tspan class="cls-22" x="344.35" y="0">e kind </tspan><tspan x="0" y="145">of a Big Dill!</tspan></text></g></svg>