<svg xmlns="http://www.w3.org/2000/svg" xmlns:xlink="http://www.w3.org/1999/xlink" viewBox="0 0 5042.32 5026.81"><defs><style>.cls-1{fill:#f2d6aa;stroke-width:21px;}.cls-1,.cls-2{stroke:#d39729;}.cls-1,.cls-11,.cls-13,.cls-2,.cls-3,.cls-7{stroke-miterlimit:10;}.cls-2{fill:#d1ba58;stroke-width:38px;}.cls-3{fill:#f2c25a;stroke:#b47d2b;stroke-width:33px;}.cls-4{fill:url(#linear-gradient);}.cls-5{fill:url(#linear-gradient-2);}.cls-6{fill:#d35127;}.cls-7{fill:#f2d8db;stroke-width:12px;}.cls-11,.cls-7{stroke:#572f24;}.cls-8{fill:#69a847;}.cls-9{fill:#6d5438;}.cls-10{fill:#572f24;}.cls-11{fill:none;stroke-width:10px;}.cls-12{fill:#fff;}.cls-13{stroke:#bf8b2c;fill:url(#radial-gradient);}.cls-14{fill:url(#linear-gradient-3);}.cls-15{fill:url(#linear-gradient-4);}.cls-16{fill:url(#linear-gradient-5);}</style><linearGradient id="linear-gradient" x1="7239.68" y1="5428.98" x2="7841.23" y2="5428.98" gradientTransform="translate(48.88 -109.57) rotate(0.35)" gradientUnits="userSpaceOnUse"><stop offset="0.06" stop-color="#f37231"/><stop offset="0.15" stop-color="#e25f2e"/><stop offset="0.27" stop-color="#d24d2a"/><stop offset="0.42" stop-color="#c74028"/><stop offset="0.61" stop-color="#c03826"/><stop offset="1" stop-color="#be3626"/></linearGradient><linearGradient id="linear-gradient-2" x1="5908.83" y1="5231.96" x2="6588.15" y2="5231.96" xlink:href="#linear-gradient"/><radialGradient id="radial-gradient" cx="11023.61" cy="4743.04" r="292.55" gradientTransform="matrix(1.48, 0.01, -0.01, 1.37, -6906.37, -2804.51)" gradientUnits="userSpaceOnUse"><stop offset="0.06" stop-color="#d87c28"/><stop offset="0.41" stop-color="#d19040"/><stop offset="0.74" stop-color="#cc9e50"/><stop offset="1" stop-color="#caa356"/></radialGradient><linearGradient id="linear-gradient-3" x1="6912.04" y1="6423.64" x2="7536.73" y2="6423.64" gradientTransform="translate(3072.5 -3144.22) rotate(26.8)" gradientUnits="userSpaceOnUse"><stop offset="0" stop-color="#c4282d"/><stop offset="0.1" stop-color="#cc313c"/><stop offset="0.56" stop-color="#f0567e"/><stop offset="0.93" stop-color="#f39dc4"/></linearGradient><linearGradient id="linear-gradient-4" x1="6619.97" y1="6300.53" x2="7048.53" y2="6300.53" xlink:href="#linear-gradient"/><linearGradient id="linear-gradient-5" x1="5303.97" y1="7067.51" x2="5929.62" y2="7067.51" xlink:href="#linear-gradient"/></defs><title>pizza</title><g id="Layer_26" data-name="Layer 26"><path class="cls-1" d="M6216.58,3795.32s-173.24,316.76-197.38,528.5,94.39,434.94,94.39,434.94-178.17,189.6-190.5,337.85S5817,5636.27,5793.79,5699.69s-230.53,348.19-242.47,432.88-116.86,433.65-116.86,433.65-126.13,84-127.11,242.89-46.59,148-81.1,190.2-104,200.65-104,200.65-253.69,401-185.57,465,308.64-51.08,434.7-124.46,355.62-262.67,469.87-272.57,240.71-146.84,355.23-199.11,654.14-525.7,734.07-525.21,665.88-578.59,711.75-610.1,747.05-779.39,782.09-906.3,219.83-466,276.93-465.63,206.24-112.45,195.87-282.84-102.05-118-170.57-118.4-250.57-107.48-307.6-118.43-410.77-54.31-513.54-54.94-170.82-76.4-296.37-87.76-262.44-33.39-365.21-34-205.14-33-319.24-65.53S6216.58,3795.32,6216.58,3795.32Z" transform="translate(-4914.56 -2787.93)"/><path class="cls-2" d="M4981.73,7663.15s204.68,141.86,341.77,132.11S7765,6305.87,7845.45,6221.61s883.36-662,907.24-831.37,288.86-549.13,312-591.36,275-157.22,412.52-230.54,459.23-399.76,460.6-622.23-7.13-699.26-155.12-774.33-387.74-85.35-479.42-32.94S8903.3,3385,8900.82,3685.47c-1.95,235.57-44.32,468.07-44.32,468.07s43.67,269.73-81.8,340.53-280.89,333-327.28,445.59-608.05,786.44-858.32,1020-603.86,524.41-603.86,524.41-348.83,269.54-637.5,460.17-370,248.85-507,303.29-469.87,272.57-469.87,272.57Z" transform="translate(-4914.56 -2787.93)"/><path class="cls-3" d="M6206.52,3805.26l616.72-10.34s296,73.35,410.61,80.21,399.44,26.07,482.76,70.83,516.28,70.19,633.75,98.77,258.16,129.8,366.21,125.54,145.07,30,145.07,30,39.13-402.63,55.49-589.18c9.6-109.47,206.4-430.46,457.07-441.25s296.41-14.19,296.41-14.19-295.88-167.92-432.9-168.76-137.35,52.13-616.63-3.79-708.18,27.43-867.85-5.33-433-151-592.88-152-445.08-45.11-616.63-3.79-401,220-424.72,357.6-104.27,243-105.18,391.34S6206.52,3805.26,6206.52,3805.26Z" transform="translate(-4914.56 -2787.93)"/><path class="cls-4" d="M7731.43,5517.3c-135.32,134.82-323.63,176.19-420.59,92.41s-65.87-261,69.46-395.8,323.63-176.19,420.59-92.41S7866.75,5382.48,7731.43,5517.3Z" transform="translate(-4914.56 -2787.93)"/><path class="cls-5" d="M6426,5323.42c-165.74,141-372.13,182.41-461,92.52s-26.53-277.06,139.21-418,372.13-182.41,461-92.52S6591.75,5182.43,6426,5323.42Z" transform="translate(-4914.56 -2787.93)"/><path class="cls-6" d="M6629,4455.09c-165.74,141-396.89,157.36-516.29,36.57s-81.83-333,83.91-474,396.89-157.36,516.29-36.57S6794.7,4314.1,6629,4455.09Z" transform="translate(-4914.56 -2787.93)"/><path class="cls-6" d="M8411.34,4691.47c-165.74,141-382.48,171.94-484.1,69.14s-49.64-300.44,116.1-441.43,382.48-171.94,484.1-69.14S8577.08,4550.48,8411.34,4691.47Z" transform="translate(-4914.56 -2787.93)"/><path class="cls-7" d="M7287.45,4469.9C7184.31,4737,6940.53,4900.1,6743,4834.28s-274.13-335.68-171-602.74,346.92-430.2,544.49-364.38S7390.59,4202.84,7287.45,4469.9Z" transform="translate(-4914.56 -2787.93)"/><path class="cls-7" d="M7841.78,4600.66c-52.93,279.44-263.4,478.52-470.1,444.65s-331.36-287.86-278.43-567.3,263.4-478.52,470.1-444.65S7894.71,4321.22,7841.78,4600.66Z" transform="translate(-4914.56 -2787.93)"/><path class="cls-8" d="M7072.56,4499.75c-42.62,139.24-160.67,230.06-263.68,202.84s-152-162.16-109.34-301.4,160.67-230.06,263.68-202.84S7115.18,4360.51,7072.56,4499.75Z" transform="translate(-4914.56 -2787.93)"/><path class="cls-8" d="M7677.65,4609.69c-30.65,161.82-152.53,277.1-272.22,257.49s-191.88-166.69-161.23-328.51,152.53-277.1,272.22-257.49S7708.3,4447.87,7677.65,4609.69Z" transform="translate(-4914.56 -2787.93)"/><path class="cls-9" d="M6999.79,4473.39c-24.35,79.57-91.81,131.47-150.68,115.91s-86.84-92.67-62.48-172.23,91.81-131.47,150.68-115.91S7024.14,4393.82,6999.79,4473.39Z" transform="translate(-4914.56 -2787.93)"/><ellipse class="cls-9" cx="7467.32" cy="4572.22" rx="149.81" ry="110.79" transform="translate(-2065.23 9223.4) rotate(-89.65)"/><path class="cls-10" d="M6253.38,5011.35s48.91,178.31,54.45,298.62,2.84,524,196.72,624.3,430.27-.72,495.28-55,288.58-227.25,403.45-342.89c67.93-68.4,226.49-198.86,226.49-198.86s-369,136.76-454.28,143.85-351,39.2-498.19-49.3-305-219-320.52-259.23S6253.38,5011.35,6253.38,5011.35Z" transform="translate(-4914.56 -2787.93)"/><path class="cls-11" d="M6249.21,5014.66s48.91,178.31,54.45,298.62,2.84,524,196.72,624.3,430.27-.72,495.28-55,288.58-227.25,403.45-342.89c67.93-68.4,226.49-198.86,226.49-198.86s-369,136.76-454.28,143.85-351,39.2-498.19-49.3-305-219-320.52-259.23S6249.21,5014.66,6249.21,5014.66Z" transform="translate(-4914.56 -2787.93)"/><path class="cls-12" d="M6278.35,5183.43s34.14,162,26,177,207.23,238.42,398.37,295.08,562.32-9.44,562.32-9.44l145.26-143.77s-420.81,99.33-579.64,57.82S6502.51,5411,6439,5352.92,6278.35,5183.43,6278.35,5183.43Z" transform="translate(-4914.56 -2787.93)"/><path class="cls-13" d="M9668.49,3892c-83.41,263.53-278.5,442.33-435.75,399.37s-217.1-291.42-133.69-554.95,278.5-442.33,435.75-399.37S9751.9,3628.52,9668.49,3892Z" transform="translate(-4914.56 -2787.93)"/><path class="cls-6" d="M6262.21,6429.26c-167.23,182-414,241.63-551.19,133.13s-112.81-344,54.42-526.06,414-241.63,551.19-133.13S6429.44,6247.24,6262.21,6429.26Z" transform="translate(-4914.56 -2787.93)"/><path class="cls-14" d="M6356.9,5685.19s-1.45,235.47,196.92,276c186.09,38,284.74,15.8,345.71-21.54s62.87-74.11,62.87-74.11-105.3-77.62-155.25-72.79-109.33,5.24-135.09,30.83-26.91,76.84-56.41,63-21-94.62-55.77-125S6405.91,5689.33,6356.9,5685.19Z" transform="translate(-4914.56 -2787.93)"/><path class="cls-15" d="M6962.06,6351.91c-99.12,84.32-232.19,99.34-297.21,33.56s-37.39-187.46,61.73-271.78,232.19-99.34,297.21-33.56S7061.18,6267.59,6962.06,6351.91Z" transform="translate(-4914.56 -2787.93)"/><path class="cls-16" d="M5797.39,7169.55c-143.45,122-338.19,141.59-435,43.69S5303.51,6937.06,5447,6815s338.19-141.59,435-43.69S5940.84,7047.53,5797.39,7169.55Z" transform="translate(-4914.56 -2787.93)"/></g></svg>