<svg xmlns="http://www.w3.org/2000/svg" viewBox="0 0 3552.05 3622.27">
  <defs>
    <style>
      .cls-1, .cls-3 {
        fill: #ffebda;
      }

      .cls-1 {
        stroke: #030202;
        stroke-width: 6px;
      }

      .cls-1, .cls-4, .cls-5, .cls-7, .cls-8 {
        stroke-miterlimit: 10;
      }

      .cls-2 {
        fill: #ec5541;
      }

      .cls-4, .cls-6 {
        fill: #fff;
      }

      .cls-4, .cls-5 {
        stroke: #030302;
        stroke-width: 4px;
      }

      .cls-5 {
        fill: #1774b8;
      }

      .cls-7, .cls-8 {
        fill: none;
        stroke: #231f20;
      }

      .cls-7 {
        stroke-width: 8px;
      }

      .cls-8 {
        stroke-width: 9px;
      }
    </style>
  </defs>
  <title>steak</title>
  <g id="steak">
    <g>
      <g>
        <g>
          <path class="cls-1" d="M9325.61,3121.73s1278.76-75.77,1507.11-293.59,525.21-681.89,411-1212.26-568.45-1316.43-946.44-1629-846.11-507-1143-461.87S8298-60.44,8126.77,252.09,8012.6,1256,7978.34,1417s-182.68,805-239.77,947.08,22.84,568.25,570.88,691.36S9325.61,3121.73,9325.61,3121.73Z" transform="translate(-7719.96 484.44)"/>
          <path class="cls-2" d="M9344.54,2950.63s1136.71-67.35,1339.69-261,466.86-606.14,365.37-1077.59-505.3-1170.2-841.3-1448-752.12-450.7-1016-410.56S8431.11,122,8278.87,399.77s-101.49,892.38-131.94,1035.5-162.39,715.59-213.13,841.87,20.3,505.12,507.46,614.56S9344.54,2950.63,9344.54,2950.63Z" transform="translate(-7719.96 484.44)"/>
        </g>
        <path class="cls-3" d="M8315.16,2861.29s171.26-99.44,188.39-151.53,114.18-279.39,114.18-279.39-114.18,189.42-151.28,215.46-202.66,139.69-276.87,153.9S8315.16,2861.29,8315.16,2861.29Z" transform="translate(-7719.96 484.44)"/>
        <path class="cls-3" d="M9411.24,2946.52h74.21L9448.35,2724s-25.69,151.53-37.11,170.47S9411.24,2946.52,9411.24,2946.52Z" transform="translate(-7719.96 484.44)"/>
        <polygon class="cls-3" points="3004.29 3146.84 3067.09 3078.18 2753.11 2929.01 3004.29 3146.84"/>
        <polygon class="cls-3" points="2901.53 1134.31 2696.02 1408.96 2975.75 1210.07 2901.53 1134.31"/>
        <polygon class="cls-3" points="2981.46 1271.63 2753.11 1446.84 3015.71 1309.52 2981.46 1271.63"/>
        <path class="cls-3" d="M9200-259.33s-45.67,113.65-28.54,189.42,45.67,208.36,97,251S9382.7,346.8,9382.7,346.8,9270.39,129,9275.16,72.15,9274.23-51,9302.78-93.59s40-61.56,45.67-99.44a493.69,493.69,0,0,0,5.71-66.3Z" transform="translate(-7719.96 484.44)"/>
        <path class="cls-3" d="M9017.34-230.91s74.21,146.8,57.09,184.68S9045.3,62.68,9077,138.44,9251.4,394.16,9251.4,394.16L9080.13-230.91Z" transform="translate(-7719.96 484.44)"/>
        <polygon class="cls-3" points="423.93 1759.38 681.13 1806.73 423.93 1655.2 423.93 1759.38"/>
      </g>
      <g>
        <path class="cls-4" d="M10132.25,999.62c-72.83,204.21-287.59,331.54-479.67,284.4s-288.76-250.89-215.92-455.1,287.59-331.54,479.67-284.4S10205.08,795.42,10132.25,999.62Z" transform="translate(-7719.96 484.44)"/>
        <path class="cls-4" d="M9446.26,921.39c47.36,240-80.72,457.21-286.08,485.09S8750,1262.38,8702.6,1022.35s80.72-457.21,286.08-485.09S9398.89,681.36,9446.26,921.39Z" transform="translate(-7719.96 484.44)"/>
        <ellipse class="cls-5" cx="1391.57" cy="1555.76" rx="88.49" ry="132.59"/>
        <ellipse class="cls-5" cx="1915.15" cy="1510.38" rx="90.11" ry="125.87"/>
        <ellipse class="cls-4" cx="1384.67" cy="1514.02" rx="35.3" ry="48.23"/>
        <ellipse class="cls-4" cx="1902.68" cy="1504.77" rx="35.3" ry="48.23"/>
      </g>
      <g>
        <path class="cls-6" d="M8640.56,1653.77s363.59,710.31,855.43,672.42,606-246.24,606-246.24l-114.18-322s-354.24,82.11-548,96.44C9142.93,1876.33,8823.24,1729.53,8640.56,1653.77Z" transform="translate(-7719.96 484.44)"/>
        <path class="cls-7" d="M8578.31,1563.44s218.39,513.55,523,650.95c325.4,146.8,681,130.75,818.05,36s308.27-259.83,308.27-259.83" transform="translate(-7719.96 484.44)"/>
        <path class="cls-8" d="M8389.38,1189.7s57.09,473.54,605.13,606.13,970.49-28.41,1107.5-94.71,376.78-275.32,422.45-374.43,79.92-279.05,79.92-279.05" transform="translate(-7719.96 484.44)"/>
      </g>
    </g>
  </g>
</svg>
