<svg xmlns="http://www.w3.org/2000/svg" viewBox="0 0 500 500"><defs><style>.cls-1{fill:#e32028;}.cls-2{fill:#e83a2d;}.cls-3{fill:#b92126;}.cls-4{fill:#357c3c;}.cls-5{fill:#fff;}.cls-6{fill:#080909;}.cls-7{fill:#060809;}</style></defs><title>tomato</title><g id="teeth"><path class="cls-1" d="M784.46,92.18s-106.33,0-158.73,38.22-94,92.36-89.38,164,32.36,148.09,90.92,194.27S742.85,546,792.17,546s115.58-17.52,160.27-60.51,87.84-124.2,83.22-183.12S1011,162.24,964.77,136.76,848.17,86.8,784.46,92.18Z" transform="translate(-536 -46)"/><path class="cls-2" d="M900,437.72s-53.94,20.7-70.89,33.44-33.9,28.66-21.58,41.4,77.05,3.18,104.79-14.33,61.64-73.64,80.14-84.39,29.28-95.12,29.28-95.12,0-66.38,0-80-18.49-36.62-18.49-36.62,1.54,119.43-3.08,129-10.79,66.88-43.15,71.66S900,437.72,900,437.72Z" transform="translate(-536 -46)"/><path class="cls-3" d="M913.91,310.33s-50.86,68.47-74,65.29-69.35-25.48-74-25.48-90.92,13-101.71,25.59-72.86,76.36-72.86,76.36,69.6,75.33,128.31,84.47,94-1.7,94-8.07-10.79-39.81-3.08-46.18,75.51-36.18,109.42-57.1,69.35-68.69,69.35-68.69,12.17-137.72,15.41-152.87-53.63-74-53.63-74S883.09,141.54,900,159.06s43.15,46.18,38.53,78S913.91,310.33,913.91,310.33Z" transform="translate(-536 -46)"/><path class="cls-4" d="M770.59,230.71s-2.31-19.9,5.39-30.25,25.43-17.52,34.67-17.52,46.23,15.92,63.18,27.87,52.4,34.24,64,37.42,42.38,7.17,42.38,7.17-69.35-35.83-93.23-56.53-43.15-41.4-43.15-41.4,8.48-11.94,27-12.74,102.48,7.17,102.48,7.17-43.92-30.25-60.1-29.46-61.64,11.15-61.64,11.15a278.51,278.51,0,0,1,47.24-19c25.19-7.27,53.7-11.25,53.7-11.25s-65-7.3-82.21-3.25-54.17,37.49-54.17,37.49V108.9s10.06-10.11,5.5-16.73C809.67,74.95,790.81,58.74,786,60.33c-5.19,1.71-8.47,31.85-6.16,39s2.31,45.38,2.31,45.38-39.3-25.48-50.08-40.61S709.72,46,709.72,46s-17,26.37-10.79,45.43,47,59.27,47,59.27-43.15-12.34-63.18-20.3-58.56-4-71.66,2.39-20.8,17.91-20.8,17.91,43.92-16.32,57-11.54S752.87,175,752.87,175s-3.08,29.46,1.54,39S770.59,230.71,770.59,230.71Z" transform="translate(-536 -46)"/><path class="cls-5" d="M792,307c-7,37.86-30.94,64.95-53.46,60.5s-35.1-38.75-28.09-76.61,30.94-64.95,53.46-60.5S799,269.18,792,307Z" transform="translate(-536 -46)"/><path class="cls-5" d="M875.95,294c4.37,38.28-10.55,71.56-33.32,74.34s-44.77-26-49.13-64.29,10.55-71.56,33.32-74.34S871.58,255.68,875.95,294Z" transform="translate(-536 -46)"/><ellipse class="cls-6" cx="222.14" cy="209.02" rx="10.47" ry="21.63"/><ellipse class="cls-6" cx="303.45" cy="212.39" rx="14.62" ry="18.26"/><ellipse class="cls-5" cx="222.14" cy="203.26" rx="7.31" ry="9.13"/><ellipse class="cls-5" cx="303.45" cy="207.43" rx="7.31" ry="9.13"/><path class="cls-7" d="M618,404.28s-34.67,10.35-33.13,19.9,23.89,19.9,23.89,19.9-22.35-14.33-14.64-19.9S618,404.28,618,404.28Z" transform="translate(-536 -46)"/><path class="cls-7" d="M954.75,414.63s16.18,11.94,15.41,19.11-15.41,19.9-15.41,19.9,29.28-9.55,25.43-19.51S954.75,414.63,954.75,414.63Z" transform="translate(-536 -46)"/><polygon class="cls-7" points="414.13 387.74 82.03 381.37 82.03 368.63 414.13 368.63 414.13 387.74"/><path class="cls-7" d="M756,383.58s17-5.57,27,0a133.34,133.34,0,0,1,17,11.15l4.62-10.35s-19.26-12.74-24.27-12.74S756,383.58,756,383.58Z" transform="translate(-536 -46)"/></g></svg>