<svg xmlns="http://www.w3.org/2000/svg" xmlns:xlink="http://www.w3.org/1999/xlink" viewBox="0 0 5032 5032"><defs><style>.cls-1{fill:#ebbd6a;stroke-width:32px;}.cls-1,.cls-12{stroke:#8e5730;}.cls-1,.cls-10,.cls-12,.cls-6,.cls-7{stroke-miterlimit:10;}.cls-2{fill:#cc8f4f;}.cls-3{fill:#a35526;}.cls-4{fill:#b36f3c;}.cls-5{fill:#d58b3a;}.cls-6{stroke:#e6a549;stroke-width:16px;fill:url(#linear-gradient);}.cls-7{fill:#471213;stroke:#b36f3b;}.cls-12,.cls-7{stroke-width:42px;}.cls-8{fill:#df1f26;}.cls-9{fill:#fffefe;}.cls-10{fill:#e5e3e3;stroke:#451516;stroke-width:7px;}.cls-11{fill:#8e5730;}.cls-12{fill:none;}.cls-13{fill:#070808;}</style><linearGradient id="linear-gradient" x1="4463.86" y1="5498.84" x2="6701.75" y2="5498.84" gradientUnits="userSpaceOnUse"><stop offset="0" stop-color="#f1b156"/><stop offset="1" stop-color="#ded476"/></linearGradient></defs><title>waffle</title><g id="waffle"><path class="cls-1" d="M430.63,16H4601.38A414.63,414.63,0,0,1,5016,430.63V4601.38A414.62,414.62,0,0,1,4601.38,5016H430.63A414.62,414.62,0,0,1,16,4601.38V430.63A414.63,414.63,0,0,1,430.63,16Z"/><rect class="cls-2" x="3343.23" y="3428.24" width="1152.45" height="1130.77" rx="141.12" ry="141.12"/><rect class="cls-2" x="1784.91" y="3428.24" width="1152.45" height="1130.77" rx="141.12" ry="141.12"/><rect class="cls-2" x="353.51" y="3428.24" width="1152.45" height="1130.77" rx="141.12" ry="141.12"/><rect class="cls-3" x="1846.45" y="1950.62" width="1152.45" height="1130.77" rx="141.12" ry="141.12"/><rect class="cls-2" x="3339.38" y="1950.62" width="1152.45" height="1130.77" rx="141.12" ry="141.12"/><rect class="cls-2" x="353.51" y="1950.62" width="1152.45" height="1130.77" rx="141.12" ry="141.12"/><rect class="cls-2" x="3339.38" y="501.92" width="1152.45" height="1130.77" rx="141.12" ry="141.12"/><rect class="cls-2" x="1846.45" y="501.92" width="1152.45" height="1130.77" rx="141.12" ry="141.12"/><rect class="cls-2" x="353.51" y="501.92" width="1152.45" height="1130.77" rx="141.12" ry="141.12"/><rect class="cls-4" x="3621.99" y="3706.79" width="868.56" height="852.22" rx="105.61" ry="105.61"/><rect class="cls-4" x="2068.05" y="3706.79" width="868.56" height="852.22" rx="105.61" ry="105.61"/><rect class="cls-4" x="637.4" y="3706.79" width="868.56" height="852.22" rx="105.61" ry="105.61"/><rect class="cls-4" x="620.28" y="2216.94" width="868.56" height="852.22" rx="105.61" ry="105.61"/><rect class="cls-4" x="3621.99" y="2229.16" width="868.56" height="852.22" rx="105.61" ry="105.61"/><rect class="cls-4" x="3627.12" y="758.61" width="868.56" height="852.22" rx="105.61" ry="105.61"/><rect class="cls-4" x="637.4" y="758.61" width="868.56" height="852.22" rx="105.61" ry="105.61"/><path class="cls-5" d="M5557.15,4438.8s-92.45-332.59-287.61-342.67-267.07,221.73-349.25,282.2-390.33,40.31-462.24,60.47-287.61,30.24-205.44,201.57,226,272.12,154.08,362.83-205.44,131-318.43,302.36-339,604.72-143.81,695.43,369.79,151.18,452,90.71-71.9,181.42,61.63,231.81S4628,6132,4712.49,6172.33s187.25,100.79,84.53,241.89-349.25,302.36-308.16,503.93,174.62,453.54,339,433.38,215.71-443.46,318.43-463.62,195.17-131,267.07,70.55-123.26,564.4,143.81,473.7,359.52-191.49,369.79-413.22-41.09-262,154.08-342.67,277.34,40.31,349.25-282.2-41.09-705.5-195.17-846.6S5557.15,4438.8,5557.15,4438.8Z" transform="translate(-3372.23 -3596.15)"/><path class="cls-6" d="M6444.51,6109.85,5615.76,6541.5c-235.58,122.7-530.64,34-655.69-197.17l-439.93-813.16c-125.05-231.14-34.62-520.65,201-643.35l828.75-431.65c235.58-122.7,530.64-34,655.69,197.17l439.93,813.16C6770.52,5697.64,6680.09,5987.15,6444.51,6109.85Z" transform="translate(-3372.23 -3596.15)"/><path class="cls-7" d="M5157.14,7008s317.92,487.41,298,663.77,19.87,617.24,357.66,646.63,794.79-44.09,894.14-249.83,337.79-455.58,317.92-573.15,1.17-323.32,1.17-323.32-655.7,44.09-934.47,44.09S5157.14,7008,5157.14,7008Z" transform="translate(-3372.23 -3596.15)"/><path class="cls-8" d="M6837.38,7834.61s-466.94-51.44-616,0-327.85,198.4-367.59,286.57-49.67,191-49.67,191,349,44.66,622.2-50.22C6770,8142.65,6837.38,7834.61,6837.38,7834.61Z" transform="translate(-3372.23 -3596.15)"/><path class="cls-9" d="M5662.57,7154S5642.7,7488,6050,7532.1s774.92-44.09,854.4-73.48,119.22-58.78,119.22-58.78V7164.7s-599.14,39.24-717.09,49.33C6064.78,7234.72,5662.57,7154,5662.57,7154Z" transform="translate(-3372.23 -3596.15)"/><ellipse class="cls-10" cx="2361.13" cy="2445.73" rx="548.25" ry="938.11"/><ellipse class="cls-11" cx="2361.13" cy="2445.73" rx="289.36" ry="495.11"/><path class="cls-12" d="M5157.14,7008s317.92,487.41,298,663.77,19.87,617.24,357.66,646.63,794.79-44.09,894.14-249.83,337.79-455.58,317.92-573.15,1.17-323.32,1.17-323.32-655.7,44.09-934.47,44.09S5157.14,7008,5157.14,7008Z" transform="translate(-3372.23 -3596.15)"/><ellipse class="cls-10" cx="3879.46" cy="2380.62" rx="548.25" ry="938.11"/><ellipse class="cls-11" cx="3879.46" cy="2380.62" rx="289.36" ry="495.11"/><ellipse class="cls-13" cx="3875.61" cy="2391.56" rx="206.07" ry="352.6"/><ellipse class="cls-13" cx="2361.13" cy="2448.16" rx="206.07" ry="352.6"/></g></svg>