<svg xmlns="http://www.w3.org/2000/svg" viewBox="0 0 3004 3004"><defs><style>.cls-1{fill:#8cba4d;}.cls-1,.cls-4{stroke:#030202;stroke-width:4px;}.cls-1,.cls-4,.cls-5,.cls-8{stroke-miterlimit:10;}.cls-2{fill:#d3df6c;}.cls-3{fill:#8bba4a;}.cls-4{fill:#83552e;}.cls-5{fill:none;stroke:#070909;stroke-width:5px;}.cls-6{fill:#070909;}.cls-7{fill:#ef636c;}.cls-8{fill:#d8eefa;stroke:#040708;stroke-width:3px;}.cls-9{fill:#080909;}</style></defs><title>avacado</title><g id="avacado"><path class="cls-1" d="M-5221.81,5874.85c30.73,3.48,509.79,3.75,540.62.83,175.17-16.62,541-84.18,743.77-222,291.11-197.92,527.83-367.57,470.25-713.93s-364.68-1010.82-441.46-1116.85-211.13-410-239.92-530.15-297.51-374.64-700.58-410-716.57,120.17-882.92,304c-95.23,105.21-230.33,586.7-307.1,657.38s-374.28,615-412.67,933.06,86.37,742.21,451.06,890.65C-5694.51,5792.44-5377.13,5857.28-5221.81,5874.85Z" transform="translate(6460.48 -2875.68)"/><path class="cls-2" d="M-5189.12,5749.58c27,3.15,448,3.4,475.09.75,153.94-15.08,475.43-76.35,653.61-201.39,255.82-179.51,463.85-333.38,413.25-647.53s-320.48-916.8-387.95-1013S-4220.66,3516.59-4246,3407.6s-261.44-339.79-615.66-371.85-629.71,109-775.9,275.68c-83.69,95.43-202.41,532.13-269.88,596.24S-6236.3,4465.45-6270,4754s75.9,673.18,396.38,807.81C-5604.51,5674.84-5325.61,5733.64-5189.12,5749.58Z" transform="translate(6460.48 -2875.68)"/><ellipse class="cls-3" cx="1511.97" cy="1619.38" rx="831.67" ry="844.21"/><ellipse class="cls-4" cx="1505.77" cy="1615.72" rx="710.18" ry="774.57"/><path class="cls-5" d="M-5436.28,4443.69s209,166.51,401,169.66,354-34.56,413.76-72.26,153.56-97.4,153.56-97.4" transform="translate(6460.48 -2875.68)"/><path class="cls-6" d="M-5368,4503.38s-68.25,295.33-34.12,358.16c17.71,32.61,74.6,134.51,294.32,157.09,183.42,18.85,329.26-5.62,399.17-7.09,24.43-.51,47.93-6.73,67.23-17.77,44.91-25.71,90.54-63,122.24-113.38,30.5-48.46,17.06-263.91,0-307.89s-21.33-69.12-21.33-69.12-191.95,78.54-294.32,100.54-243.14,3.14-311.38-12.57S-5368,4503.38-5368,4503.38Z" transform="translate(6460.48 -2875.68)"/><path class="cls-7" d="M-5124.89,4999.78h337s-21.33-119.39-64-122.53-81,6.28-81,18.85-23.46,42.11-23.46,42.11-27.73-62.18-44.79-61.57-64-18.24-81,16.32S-5124.89,4999.78-5124.89,4999.78Z" transform="translate(6460.48 -2875.68)"/><ellipse class="cls-8" cx="1310.64" cy="1299.21" rx="230.33" ry="229.52"/><ellipse class="cls-8" cx="1760.1" cy="1348.91" rx="187.14" ry="201.46"/><ellipse class="cls-9" cx="1372.7" cy="1344.92" rx="62.05" ry="45.71"/><ellipse class="cls-9" cx="1698.04" cy="1344.92" rx="62.05" ry="45.71"/></g></svg>
