<svg xmlns="http://www.w3.org/2000/svg" viewBox="0 0 3550.05 3620.27">
  <defs>
    <style>
      .cls-1 {
        fill: #8cba4d;
      }

      .cls-1, .cls-4 {
        stroke: #030202;
        stroke-width: 4px;
      }

      .cls-1, .cls-4, .cls-5, .cls-8 {
        stroke-miterlimit: 10;
      }

      .cls-2 {
        fill: #d3df6c;
      }

      .cls-3 {
        fill: #8bba4a;
      }

      .cls-4 {
        fill: #83552e;
      }

      .cls-5 {
        fill: none;
        stroke: #070909;
        stroke-width: 5px;
      }

      .cls-6 {
        fill: #070909;
      }

      .cls-7 {
        fill: #ef636c;
      }

      .cls-8 {
        fill: #d8eefa;
        stroke: #040708;
        stroke-width: 3px;
      }

      .cls-9 {
        fill: #080909;
      }
    </style>
  </defs>
  <title>avocado</title>
  <g id="avacado">
    <g>
      <g>
        <path class="cls-1" d="M3805.26,7823c36.32,4.19,602.58,4.52,639,1,207.05-20,639.48-101.47,879.15-267.65,344.09-238.58,623.91-443.08,555.84-860.59s-431.06-1218.46-521.81-1346.27-249.56-494.2-283.59-639.05-351.66-451.6-828.09-494.2-847,144.85-1043.63,366.39c-112.56,126.82-272.25,707.22-363,792.43s-442.41,741.3-487.78,1124.73,102.09,894.67,533.16,1073.61C3246.53,7723.69,3621.67,7801.84,3805.26,7823Z" transform="translate(-2341.5 -4208.18)"/>
        <path class="cls-2" d="M3843.9,7672c31.92,3.8,529.53,4.1,561.56.91,182-18.17,562-92,772.58-242.76,302.39-216.39,548.28-401.87,488.47-780.55S5287.7,5544.49,5208,5428.57s-219.31-448.24-249.22-579.62-309-409.6-727.72-448.24S3486.69,4532.09,3313.9,4733c-98.92,115-239.25,641.44-319,718.72s-388.78,672.36-428.65,1020.12,89.72,811.46,468.53,973.76C3352.9,7581.93,3682.57,7652.81,3843.9,7672Z" transform="translate(-2341.5 -4208.18)"/>
      </g>
      <g>
        <ellipse class="cls-3" cx="1786.8" cy="1951.62" rx="983.05" ry="1017.62"/>
        <ellipse class="cls-4" cx="1779.47" cy="1947.21" rx="839.44" ry="933.68"/>
      </g>
      <g>
        <g>
          <path class="cls-5" d="M3551.76,6097.87s247.05,200.72,473.94,204.51,418.48-41.66,489.07-87.1,181.51-117.4,181.51-117.4" transform="translate(-2341.5 -4208.18)"/>
          <path class="cls-6" d="M3632.43,6169.83s-80.67,356-40.34,431.74c20.94,39.31,88.18,162.14,347.89,189.36,216.8,22.72,389.19-6.78,471.83-8.54,28.88-.62,56.66-8.11,79.47-21.42,53.08-31,107-76,144.49-136.67,36.05-58.41,20.17-318.12,0-371.14s-25.21-83.32-25.21-83.32-226.89,94.68-347.89,121.19-287.39,3.79-368.06-15.15S3632.43,6169.83,3632.43,6169.83Z" transform="translate(-2341.5 -4208.18)"/>
        </g>
        <path class="cls-7" d="M3919.82,6768.2h398.31s-25.21-143.91-75.63-147.7-95.8,7.57-95.8,22.72S4119,6694,4119,6694s-32.77-75-52.94-74.22-75.63-22-95.8,19.67S3919.82,6768.2,3919.82,6768.2Z" transform="translate(-2341.5 -4208.18)"/>
      </g>
      <g>
        <ellipse class="cls-8" cx="1548.83" cy="1565.69" rx="272.25" ry="276.67"/>
        <ellipse class="cls-8" cx="2080.1" cy="1625.6" rx="221.2" ry="242.84"/>
        <ellipse class="cls-9" cx="1622.18" cy="1620.79" rx="73.35" ry="55.1"/>
        <ellipse class="cls-9" cx="2006.75" cy="1620.79" rx="73.35" ry="55.1"/>
      </g>
    </g>
  </g>
</svg>
