<svg xmlns="http://www.w3.org/2000/svg" viewBox="0 0 3570.05 3640.27">
  <defs>
    <style>
      .cls-1 {
        fill: #f8e50e;
      }

      .cls-1, .cls-10, .cls-5, .cls-6 {
        stroke: #030202;
      }

      .cls-1, .cls-10, .cls-12, .cls-5, .cls-6, .cls-7, .cls-8 {
        stroke-miterlimit: 10;
        stroke-width: 24px;
      }

      .cls-2, .cls-3, .cls-4 {
        fill: #e7cd1d;
      }

      .cls-2 {
        opacity: 0.58;
      }

      .cls-3 {
        opacity: 0.6;
      }

      .cls-4 {
        opacity: 0.68;
      }

      .cls-5 {
        fill: #fef7e5;
      }

      .cls-6 {
        fill: #f5efc7;
      }

      .cls-7 {
        fill: #fcf3d9;
        stroke: #070305;
      }

      .cls-8 {
        fill: #6a381f;
        stroke: #080405;
      }

      .cls-9 {
        fill: #fffef5;
      }

      .cls-10 {
        fill: #f9f8f7;
      }

      .cls-11 {
        fill: #030202;
      }

      .cls-12 {
        fill: none;
        stroke: #c02026;
      }
    </style>
  </defs>
  <title>banana</title>
  <g id="banana">
    <g>
      <path class="cls-1" d="M500.41,5621.1c-104.56,29.4-165,104-145.52,179.59,50.5,196.12,197.54,564.95,330.18,685.91,178.84,163.1,481.48,410.07,811.64,503.27s701.58,65.24,701.58,65.24l220.11-186.39S2129.5,6701,2033.21,6486.6s-192.59-782.86-192.59-866.74V5482c0-60.32-62.9-112.94-150.52-123.68-60.06-7.36-127.24-.09-179.64,47.24-80.35,72.58-178.08,192.26-236.79,267.34-28.72,36.73-96,50.73-150.08,31.12-121.78-44.16-327.13-112.06-438.53-112.06C623.54,5591.91,558.19,5604.85,500.41,5621.1Z" transform="translate(836.53 -3489.19)"/>
      <path class="cls-2" d="M1094.43,6501.12c-44.68-21-52.4-67.2-72-99.32-22.66-37.23-58.23-67-93.8-98.82-39.68-35.47-60.31-68.35-73-112.06-8.87-30.55-20.29-57.29-42.15-82.62,1.41-11.57-4.32-23.74-20.44-34.38C736.88,6036.82,689,5996,648.41,5951.5a35.57,35.57,0,0,0-3-12.59c-5.74-13.32-12.25-26.82-22.74-38.88-.36-.41-1.55-1.47-3.26-2.93,17.13-15.87,29.93-32.49,38.77-51.95,8.58-18.88,8.39-48,26.67-63.74,51-43.88,194.3-5.49,250.27,15,26.83,9.84,52.66,6.73,71.82-2.72,44.17-2.1,87.94-34.83,61-70.37-37.93-50-105.66-81.85-187.71-89.38-96.43-8.85-216.06-12.07-311.55,1.05-194.12,26.68-237.21,173.71-178.93,283.88,16.13,30.49,62.77,37.16,97.18,27.85,53.19,72,123.76,136.89,208.84,193.07a80.46,80.46,0,0,0,30.16,12c26.67,33.4,24.61,78,43,113.08,21.06,40.07,61.11,72,98.36,105.41,68.74,61.71,73.78,149.32,171.51,195.21C1097.23,6592.9,1152.31,6528.3,1094.43,6501.12Z" transform="translate(836.53 -3489.19)"/>
      <path class="cls-3" d="M1790.49,5541.6a170.2,170.2,0,0,0-18.74-25.68c-.72-3.64-1.31-7.29-2.07-10.94-13.35-64-75.47-110.3-177.56-86.36a189.6,189.6,0,0,0-63.14,27.69c-51.24,9.2-97,32-130.29,60.51-36.93,31.65-75,74.86-89.71,118.31-44.26,42.71-69.83,90.28-54.48,146.93,2,7.39,6.48,12.95,12.25,17.19,1.36,31.1,9.17,62.25,20.4,91.94,46.91,124,141.23,243.51,246.6,348.85,39.51,39.5,134.9,2.23,95-37.63-103.8-103.78-199.52-221.59-240.42-344.85-18.27-55.07-22.18-117.39,35.24-162.7,37.79-29.82,82.71-56.17,81.75-94.37,10,16.06,34.43,27.5,63.5,21.26,93.44-20.07,102.47,146.59,111.56,184.17,3.05,12.62,13.49,20.33,26.67,24.06,5.15,43.17,102.84,39.8,109.61-5.22C1830.28,5724.25,1842.65,5627.95,1790.49,5541.6Z" transform="translate(836.53 -3489.19)"/>
      <path class="cls-4" d="M1903.09,6895.5c-28-40.87-48.57-72.06-49.07-118.38-.87-81.12-21.37-155.05-71.37-229.13-19.18-28.42-92.32-21.65-100.57,8.91l-30.86,114.2-126.06-33.55c-35.1-9.34-68.22,14.09-69.65,35.95a113.18,113.18,0,0,0,1.84,29.06c-53-27.59-109.79-51.14-174.65-64.49-67.92-14-96.94,58-29.26,71.89,74.24,15.28,131.78,47.93,189.51,81.79,54.33,31.87,109.77,63.25,161.64,97,23.49,15.28,45.9,31.18,66.21,48.17,5.31,5.47,10.71,10.92,16.38,16.28s11.4,10.44,17.44,15.5a281.38,281.38,0,0,1,22.24,26.56c22.56,30.94,33.76,34.62,97.35,40.4,24.75,2.25,57.34,4.53,67.07-9.45,21.14-3.85,39.58-16,42.53-35C1939.15,6956.72,1924.26,6926.45,1903.09,6895.5Z" transform="translate(836.53 -3489.19)"/>
      <path class="cls-5" d="M1244.06,5718.19S880.27,5634,609.4,5605.89c-213.35-22.12-557.14,242.31-619,349.49s-41.27,699-41.27,699S-271,6822.11-346.68,6756.87s48.15-261,0-307.55-412.7-316.87-440.21-396.09-68.78-549.86,0-661.7,364.55-265.61,529.63-312.21,354.38-26.74,529.63,9.32c151.32,31.13,282,88.54,350.79,97.86S808.87,5275,953.32,5368.23,1244.06,5718.19,1244.06,5718.19Z" transform="translate(836.53 -3489.19)"/>
      <path class="cls-6" d="M1205.52,5659.21c-5.12,20.1,43.34,30.55,59.57,13.36,62.42-66.13,215.67-268.23,327.91-276.38,192.59-14,254.5,9.32,337,88.54,32.3,31,158,285.87,172,335.51,27.51,97.86,89.42,261,178.84,321.53s192.59,172.42,282,153.78S2666,5944.31,2666,5845s89.42-532.68,41.27-616.56S2439,4925.55,2267.07,4897.59s-362.22-61.15-515.87-23.3c-75.66,18.64,41.27,130.48-13.76,205-26.1,35.37-220.11,88.54-337,195.71C1331.18,5338.49,1226.88,5575.36,1205.52,5659.21Z" transform="translate(836.53 -3489.19)"/>
      <path class="cls-7" d="M1194.06,5657.14s75.66-274.93,199.47-358.81,350.79-149.12,350.79-209.69,6.88-764.22,0-880.71,96.3-293.57,110.05-349.49,0-302.89-137.57-340.17-454-14-605.29,74.56-701.58,526.56-791,731.6-48.15,764.22-48.15,764.22,213.23,37.28,488.36,163.1S1194.06,5657.14,1194.06,5657.14Z" transform="translate(836.53 -3489.19)"/>
      <path class="cls-5" d="M272.37,4622.65l21.36,470.23s-358.39-78.8-557.86.42-364.55,163.1-364.55,163.1-6.88-233,27.51-302.89,330.16-247,481.48-288.91S272.37,4622.65,272.37,4622.65Z" transform="translate(836.53 -3489.19)"/>
      <path class="cls-8" d="M2455.2,6881.19c49.33,38.25,146.09,141.24,48.42,199.05s-241.56,40.17-290.88,1.92S2200,6989.55,2287.92,6925C2379.07,6858,2405.87,6842.94,2455.2,6881.19Z" transform="translate(836.53 -3489.19)"/>
      <path class="cls-9" d="M201.07,5169.26c25.53-22.69-4-66.9-59.37-59.85q-40.91,5.21-82.19,10c-10.88-1.77-21.8-3.38-32.8-4.65a660.27,660.27,0,0,0-183.3.36c-86.73,10-170.64,33.45-244,68.12-131.33,27.32-250.2,76.22-314.36,162.09-73,97.7-70.33,207.74-55.37,314.06q5.51,39.15,9.87,78.13c-11.91,62.81-13.63,126.14-2.16,187a117.1,117.1,0,0,0,13.12,35.52c.07,3.86.48,7.7.74,11.54-.62,24.3-1.7,48.64-3.77,73.07-1.59,18.7,14.26,30,34.35,34.07,35.37,72.18,96.49,103.27,161.58,164,24.52,22.87,51.31,36.94,78.46,60.9,29.94,49,80.52,57.77,121.67,104.13,59.78,67.34,48.44,188.49,26.08,270.7-11.77,46.76,134.5,57.89,147.39,10.5,2.44-9-63.83-254.42-191.49-369-44.23-80.49-71.69-164.72-128.65-242.64-33.79-46.22-101.87-83.92-134.49-130q.12-6.85.18-13.71a189.34,189.34,0,0,1,18.89-59.38c9.33-18.37-2.5-32.4-21.38-39.71-1.85-30.58-4.75-61.14-8.53-91.7,2.76-13.8,5.8-27.52,9.35-41C-605,5573-530,5450.38-418.23,5343.49c37.4-35.75,80-73.34,130.9-103,111.49-17.26,224.61-30.69,337.44-44.3a457,457,0,0,1,70.82,23.43c42.29,18,81.95-8.51,81-34.73A23.26,23.26,0,0,0,201.07,5169.26Z" transform="translate(836.53 -3489.19)"/>
      <path class="cls-9" d="M1991.15,5157.34c-94.95-6.88-194.52-4-285.41,12.88-69.69,1.59-119,20.23-153.36,47.28-97.69,46.11-157,115.53-143.06,187.3,7.33,37.61,106.94-3.46,106.69-5.2,22.28,3.55,131.3-41.86,168.75-54.13,32.86-10.77,59.8-23.59,83-40.48,30.69-22.33,51.21-43.89,95.49-59.26,43.06-14.94,93.83-22.34,142.16-30C2067.85,5205.72,2048.05,5161.47,1991.15,5157.34Z" transform="translate(836.53 -3489.19)"/>
      <path class="cls-9" d="M2351.31,4999l-208-74.13c-62.17-22.16-127.87-52.15-199.85-55.35-103.33-4.6-193.95,62.36-140.9,129.82,33.31,42.36,128.35,4.74,95-37.63-22.37-28.45,90.59-7.43,98.94-4.79,34.92,11,68.7,24.3,102.79,36.46l196.4,70C2358.39,5085.71,2414.07,5021.39,2351.31,4999Z" transform="translate(836.53 -3489.19)"/>
      <path class="cls-9" d="M2516.22,6145.88c-112.84,4.24-123.66-96.42-133.41-150.37-11-60.71-37.9-113.72-78-168.29-45.55-61.91-89.44-119.56-92.69-190.31-3.26-71,23-140.81,48-209.19,15.62-42.58-71.58-62.67-99.72-30.18L2036,5390.31c-38.63-2.25-81.74-2.56-104.95,22.91-23.75,26.07-4.74,53.45,19.36,75.16,31.3,28.18,63.32,56,95,84,15.92,14.08,117.27,231.27,133.14,306.23,12.05,56.92,19.42,76.35,28.28,124.54,6.55,35.67,80.15,80.92,100,114.62,34.64,58.74,112.08,106.34,209.38,102.68C2586.65,6217.79,2587.1,6143.22,2516.22,6145.88Z" transform="translate(836.53 -3489.19)"/>
      <path class="cls-9" d="M1392.14,3671.9c38.28-21.79,10.65-54.18-27.84-60.72-3-25.35-40.63-48.48-79.94-30.15C731.9,3838.54,333.85,4170.11,306,4622.65c-6,97.92,47.5,411.37,66.21,428.93,17.26,16.19,291.54,134.19,300.51,127.64,58.28,21.56,121.6,38.79,175.71,62.57,104.46,45.91,194.14,105.88,265.56,174.84,40.38,39,135.83,1.77,95-37.63-108.82-105.07-250.51-188.72-420.71-245.43-42.22-14.06-86.79-26.75-123.42-47.11-41.49-23.06-58.85-54.68-74.52-88.45-31.61-68.17-50.57-138.78-56.87-210.08-25.15-285,135.2-559.1,384.55-784.42C1054.72,3880.07,1218.08,3771,1392.14,3671.9Z" transform="translate(836.53 -3489.19)"/>
      <ellipse class="cls-10" cx="1526.18" cy="993.66" rx="224.69" ry="236.1"/>
      <ellipse class="cls-10" cx="2158.98" cy="1030.94" rx="224.69" ry="236.1"/>
      <ellipse class="cls-11" cx="2158.98" cy="1058.9" rx="84.83" ry="57.47"/>
      <ellipse class="cls-11" cx="1526.18" cy="1001.43" rx="84.83" ry="57.47"/>
      <path class="cls-12" d="M774.48,4849.43S808.87,5048.26,992.29,5042s321-68.34,330.16-130.48" transform="translate(836.53 -3489.19)"/>
    </g>
  </g>
</svg>
