<svg xmlns="http://www.w3.org/2000/svg" viewBox="0 0 1388.15 549.71"><defs><style>.cls-1{font-size:142px;fill:#ed1b36;font-family:Avenir-Black, Avenir;}.cls-2{letter-spacing:-0.09em;}.cls-3{letter-spacing:-0.02em;}.cls-4{letter-spacing:0em;}.cls-5{fill:#faa957;}.cls-6{fill:#fdbc5a;}.cls-7{fill:#c08341;}.cls-8{fill:#fff;}.cls-9{fill:#161616;}.cls-10{fill:#f0a69b;}.cls-11{fill:none;stroke:#000;stroke-miterlimit:10;stroke-width:6px;}</style></defs><title>bread</title><g id="bread"><text class="cls-1" transform="translate(2.84 121.27)"><tspan class="cls-2">Y</tspan><tspan x="78.95" y="0">ou’</tspan><tspan class="cls-3" x="289.11" y="0">r</tspan><tspan class="cls-4" x="344.35" y="0">e on a Roll!</tspan></text><path class="cls-5" d="M708.33,472.13s-51-1.5-117,51-111,133.49-109.49,154.49,16.5,79.5,51,102,85.5,43.5,192,48,264,12,349.48,0,216-64.5,234-78,75-64.5,76.5-73.5-16.5-60-33-76.5-45-76.5-100.49-96-129-18-129-18-54-51-88.5-52.5-73.44-10.5-100.47-6-45,13.5-45,13.5-16.5-16-43.5-14.75-82.5,17.75-100.49,26.75S708.33,472.13,708.33,472.13Z" transform="translate(-325.81 -289.9)"/><path class="cls-6" d="M742.12,637.13s-61.5-6-75,15,27,46.5,48,52.5,171,34.5,171,34.5,225,1.5,246,0,117-30,127.49-37.5,33-31.68,45-34.59,46.5-17.91,28.5-22.41-75,25.32-102,22.41-120-42-135-30.7-28.5,24.61-58.5,30.7-78-17.91-88.5-16.41-46.5,10-88.5,8.73S742.12,637.13,742.12,637.13Z" transform="translate(-325.81 -289.9)"/><path class="cls-6" d="M527.63,628.13s85.5-102,102-103.49,34.8-34.5,34.8-34.5,40.2,7.5,44.69,33-10.5,85.5-27,94.5-76.5,25.5-100.49,25.5S527.63,628.13,527.63,628.13Z" transform="translate(-325.81 -289.9)"/><path class="cls-6" d="M770.62,454.13s15,46.5,43.5,60,67.5,30,72,43.5,47.95,18,47.22,9-27.72-63-29.22-76.5-27-42-43.5-43.5S770.62,454.13,770.62,454.13Z" transform="translate(-325.81 -289.9)"/><path class="cls-6" d="M959.61,446.47s-1.5,42.17,7.5,54.17,25.32,30,52.41,28.5,61.59,1.68,72.09.09,10.5-37.59,0-39.09-19.5-19.5-52.5-30S959.61,446.47,959.61,446.47Z" transform="translate(-325.81 -289.9)"/><path class="cls-6" d="M1163.6,508.89s36,53.24,55.5,57.74,10.5,10.5,48,16.5,52.5,4.5,54,0-22.5-42.41-45-53.45-49.5-39.54-78-39.54S1163.6,508.89,1163.6,508.89Z" transform="translate(-325.81 -289.9)"/><path class="cls-7" d="M487.13,667s-12,46.59,9,69.09,54,69,96,78,354,25.5,354,25.5,199.49-12,273-46.5,135-69,144-79.5,16.5-28.5,16.5-28.5-159,81-174,81-36,27-84,27-198,9-235.49-3-138-22.5-138-22.5-31.69,12.15-52.5,7.5C598.13,753.32,487.13,667,487.13,667Z" transform="translate(-325.81 -289.9)"/><path d="M784.52,518s22-18,37.33-11.33,35.33,16.67,44,24.67S928.16,574.7,933.34,576s43.85,16.67,47.85,13.33S963.85,584.7,941.85,568s-52-51.33-63.33-56.67-30.67-18-48-17.33S784.52,518,784.52,518Z" transform="translate(-325.81 -289.9)"/><path d="M1025.18,589.84s40.67-11.81,46-21.81,23.33-20.89,26-22.11,30.67-9.89,30.67-9.89-20.67-14-32-8.67S1025.18,589.84,1025.18,589.84Z" transform="translate(-325.81 -289.9)"/><path class="cls-8" d="M832.12,509.63s-21,55.5-9,87,31.5,54,55.5,46.5,55.45-33,54.72-40.5,6.78-25.52,6.78-25.52Z" transform="translate(-325.81 -289.9)"/><path class="cls-8" d="M1048.11,577.1s-1.5,42,31.5,36,42-43.5,42-43.5l-10.5-34.5Z" transform="translate(-325.81 -289.9)"/><path class="cls-9" d="M862.12,526.13s-13.5,10.5-9,27,19.5,40.5,36,36,27-15,27-22.5S862.12,526.13,862.12,526.13Z" transform="translate(-325.81 -289.9)"/><path class="cls-9" d="M1057,568.28s-2.43,16,11.17,17.26,33.08-21.14,33.87-24.32-3.59-18.63-3.59-18.63Z" transform="translate(-325.81 -289.9)"/><path d="M1010.52,682s-20,16-22,25-6.85,44-6.85,44-39.51,6-48.33,10-29.82,33-29.82,33-23.72-15-19.36-56,14.36-62,20.36-66,21.1-8,42.55-6S1010.52,682,1010.52,682Z" transform="translate(-325.81 -289.9)"/><path class="cls-8" d="M1015.52,682.7s-1.33,9.67-8.67,12-35,.67-45.33,1.67A186.72,186.72,0,0,0,933.34,701c-7.49,2-14.15,8-21.49,7s-14.33-10.67-14.33-14.67,8.67-23.33,14-25.33,24.52-6,28.59-4.33,28.74,4.33,31.41,6.67S1015.52,682.7,1015.52,682.7Z" transform="translate(-325.81 -289.9)"/><path class="cls-10" d="M932.34,807.7s23.51-.33,30.51-3S989.52,803,989.52,803s21.67-14.33,25-16.33,11.33-7.67,10.67-16S1014.52,756,1004.85,755s-33.67-2.67-41-2-33.33,7.33-41.33,13-20.33,26.33-20.33,26.33S914.16,805,932.34,807.7Z" transform="translate(-325.81 -289.9)"/><path class="cls-11" d="M1019.52,644.58s12.5,20,10,28.46-1,13-10,11.5-41.85-12.68-52.09-14.64-16.91-9.19-34.09-7.48c-9.41.94-24.88-.14-31.85,13.71s-18.08,48-17.33,67.42,3.36,36.15,13.36,46.07a57.26,57.26,0,0,0,35.82,16.09c12.72,1,37.13-1.95,43.15-2.83s10.79.29,17.27-4,19.22-10.3,24.27-16,11.9-11.4,7.2-17.4-10-12-19.38-12.5S972,751.4,972,751.4" transform="translate(-325.81 -289.9)"/></g></svg>