<svg xmlns="http://www.w3.org/2000/svg" viewBox="0 0 820 652"><defs><style>.cls-1{font-size:159.01px;fill:#ed1b36;font-family:Avenir-Black, Avenir;}.cls-2{letter-spacing:-0.09em;}.cls-3{letter-spacing:-0.02em;}.cls-4{fill:#faa957;}.cls-5{fill:#fdbc5a;}.cls-6{fill:#c08341;}.cls-7{fill:#fff;}.cls-8{fill:#161616;}.cls-9{fill:#f0a69b;}.cls-10{fill:none;stroke:#000;stroke-miterlimit:10;stroke-width:6px;}</style></defs><title>bread</title><g id="bread"><text class="cls-1" transform="translate(19.46 148.32) scale(0.64 1)"><tspan class="cls-2">Y</tspan><tspan x="88.41" y="0">ou’</tspan><tspan class="cls-3" x="323.75" y="0">r</tspan><tspan x="385.61" y="0">e on a Roll!</tspan></text><path class="cls-4" d="M293.53,216.59s-36.81-1.68-84.45,57.11S129,423.19,130,446.7s11.91,89,36.81,114.22,61.72,48.71,138.59,53.75,190.56,13.44,252.28,0,155.91-72.22,168.91-87.34,54.14-72.22,55.22-82.3S769.94,377.84,758,359.36s-32.48-85.66-72.54-107.5-93.11-20.16-93.11-20.16-39-57.11-63.88-58.79-53-11.76-72.52-6.72a97.92,97.92,0,0,0-32.5,15.12s-11.91-17.91-31.4-16.51-59.55,19.87-72.54,30S293.53,216.59,293.53,216.59Z"/><path class="cls-5" d="M317.93,401.35s-44.39-6.72-54.14,16.8,19.49,52.07,34.65,58.79,123.43,38.63,123.43,38.63,162.41,1.68,177.57,0,84.45-33.59,92-42S715.29,438.1,724,434.84s33.56-20.05,20.57-25.09-54.14,28.35-73.63,25.09-86.62-47-97.45-34.38S552.88,428,531.23,434.84s-56.3-20.05-63.88-18.37-33.56,11.15-63.88,9.77S317.93,401.35,317.93,401.35Z"/><path class="cls-5" d="M163.1,391.27s61.72-114.22,73.63-115.9,25.12-38.63,25.12-38.63,29,8.4,32.26,37-7.58,95.74-19.49,105.82-55.22,28.55-72.54,28.55S163.1,391.27,163.1,391.27Z"/><path class="cls-5" d="M338.5,196.43s10.83,52.07,31.4,67.19,48.72,33.59,52,48.71,34.61,20.16,34.09,10.08-20-70.55-21.09-85.66-19.49-47-31.4-48.71S338.5,196.43,338.5,196.43Z"/><path class="cls-5" d="M474.92,187.85s-1.08,47.22,5.41,60.66,18.28,33.59,37.83,31.91,44.46,1.88,52,.1,7.58-42.09,0-43.77-14.08-21.84-37.9-33.59S474.92,187.85,474.92,187.85Z"/><path class="cls-5" d="M622.17,257.75s26,59.62,40.06,64.66,7.58,11.76,34.65,18.48,37.9,5,39,0S719.62,293.4,703.38,281s-35.73-44.28-56.3-44.28S622.17,257.75,622.17,257.75Z"/><path class="cls-6" d="M133.86,434.84s-8.66,52.17,6.5,77.37,39,77.26,69.29,87.34S465.18,628.1,465.18,628.1s144-13.44,197.06-52.07,97.45-77.26,103.94-89,11.91-31.91,11.91-31.91-114.77,90.7-125.6,90.7S626.51,576,591.86,576s-142.92,10.08-170-3.36-99.61-25.19-99.61-25.19-22.88,13.61-37.9,8.4C214,531.47,133.86,434.84,133.86,434.84Z"/><path d="M348.53,268s15.88-20.16,26.95-12.69S401,274,407.24,282.92s45,48.53,48.72,50,31.65,18.66,34.54,14.93S478,342.64,462.1,324s-37.54-57.48-45.72-63.46-22.14-20.16-34.65-19.41S348.53,268,348.53,268Z"/><path d="M522.26,348.4s29.36-13.22,33.21-24.42,16.84-23.39,18.77-24.76,22.14-11.08,22.14-11.08-14.92-15.68-23.1-9.71S522.26,348.4,522.26,348.4Z"/><path class="cls-7" d="M382.89,258.58s-15.16,62.15-6.5,97.42,22.74,60.47,40.06,52.07,40-37,39.5-45.35,4.89-28.58,4.89-28.58Z"/><path class="cls-7" d="M538.8,334.14s-1.08,47.06,22.74,40.34,30.32-48.71,30.32-48.71l-7.58-38.63Z"/><path class="cls-8" d="M404.55,277.06s-9.74,11.76-6.5,30.23,14.08,45.35,26,40.31,19.49-16.8,19.49-25.19S404.55,277.06,404.55,277.06Z"/><path class="cls-8" d="M545.2,324.26s-1.75,17.91,8.06,19.32,23.88-23.67,24.45-27.23-2.59-20.87-2.59-20.87Z"/><path d="M511.67,451.64s-14.44,17.92-15.88,28-4.94,49.27-4.94,49.27-28.52,6.72-34.89,11.2-21.53,37-21.53,37-17.13-16.8-14-62.71,10.37-69.43,14.7-73.91,15.23-9,30.72-6.72S511.67,451.64,511.67,451.64Z"/><path class="cls-7" d="M515.28,452.39s-1,10.82-6.26,13.44-25.27.75-32.72,1.87A92.09,92.09,0,0,0,456,472.92c-5.4,2.24-10.22,9-15.51,7.84s-10.35-11.94-10.35-16.42,6.26-26.13,10.11-28.37,17.7-6.72,20.64-4.85,20.75,4.85,22.67,7.47S515.28,452.39,515.28,452.39Z"/><path class="cls-9" d="M455.23,592.36s17-.37,22-3.36,19.25-1.87,19.25-1.87,15.64-16.05,18-18.29,8.18-8.59,7.7-17.92-7.7-16.42-14.68-17.54-24.3-3-29.6-2.24-24.06,8.21-29.84,14.56-14.68,29.49-14.68,29.49S442.11,589.38,455.23,592.36Z"/><path class="cls-10" d="M518.17,409.69s9,22.35,7.22,31.87-.72,14.56-7.22,12.88S488,440.24,480.57,438s-12.21-10.29-24.61-8.38c-6.79,1-18-.16-23,15.35s-13.05,53.74-12.51,75.49,2.43,40.48,9.65,51.59,16.68,16.9,25.86,18,26.81-2.18,31.15-3.17,7.79.32,12.47-4.46,13.88-11.53,17.52-17.87,8.59-12.76,5.2-19.48-7.23-13.42-14-14-24.42-1.83-24.42-1.83"/></g></svg>