<svg xmlns="http://www.w3.org/2000/svg" viewBox="0 0 5088 5056.31"><defs><style>.cls-1{fill:#fefbeb;}.cls-1,.cls-2,.cls-3,.cls-4,.cls-6{stroke:#f1b7d0;}.cls-1,.cls-10,.cls-12,.cls-13,.cls-14,.cls-16,.cls-2,.cls-3,.cls-4,.cls-6,.cls-7,.cls-9{stroke-miterlimit:10;}.cls-2{fill:#f9d2e1;stroke-width:54px;}.cls-3{fill:#f2b8d1;}.cls-4{fill:#e39ebc;}.cls-5{fill:#2a2a2a;}.cls-6{fill:#da6b66;}.cls-16,.cls-7,.cls-9{fill:none;}.cls-16,.cls-7{stroke:#c6bc9b;}.cls-7{stroke-width:87px;}.cls-8{fill:#e9deb4;}.cls-9{stroke:#e39ebc;stroke-width:64px;}.cls-10{fill:#c1e6f6;stroke:#2a2a2a;stroke-width:16px;}.cls-11{fill:#070909;}.cls-12{fill:#e11f28;stroke-width:31px;}.cls-12,.cls-13,.cls-14{stroke:#030202;}.cls-13{fill:#31aae1;stroke-width:32px;}.cls-14{fill:#f2ea28;stroke-width:22px;}.cls-15{fill:#c6bc9b;}.cls-16{stroke-width:89px;}</style></defs><title>cupcake</title><g id="cupcake"><path class="cls-1" d="M6241,4666.61S5860.63,5034,6082.5,5401.35,6970,6023,7508.81,6065.43s2091.93,14.13,2662.46-169.55,833-480.4,833-650S10932,4822,10773.5,4723.13s0-268.46-206-494.53-301.11-113-301.11-113,174.33-367.37-95.09-664.09c0,0-475.44-438-760.7-409.76s-380.35,56.52-380.35,56.52,205.57-260.87,126.78-339.11c-176.93-175.7-538.83-183.68-808.25,0s-618.07,339.11-618.07,339.11-491.29-42.39-713.16,226.07-301.11,579.31-301.11,621.7-317,288.83-348.66,419.94S6241,4666.61,6241,4666.61Z" transform="translate(-5962.67 -2567.48)"/><path class="cls-2" d="M6605.48,5822.83,6843.2,7012.11s443.74,650,1537.25,579.31,1632.34-141.29,1743.28-508.66,253.57-1248.14,253.57-1248.14-1061.81,273.21-1885.91,259.08S6605.48,5822.83,6605.48,5822.83Z" transform="translate(-5962.67 -2567.48)"/><path class="cls-3" d="M6769.61,6662.18s-32.22,688.27,914.13,891.27C8600,7750,9770.61,7390.51,9855.34,7367.12c196.92-54.38,298.31-336,298.31-427.91s62.54-226.34,62.54-226.34S9566.57,7086.61,9162,7133.16s-1081.78,109.07-1473.08,0S6769.61,6662.18,6769.61,6662.18Z" transform="translate(-5962.67 -2567.48)"/><path class="cls-4" d="M6605.48,5822.83l34.19,221.49s895.93,265.37,2014.55,222.93,1694.66-222.47,1694.66-222.47l28.42-210.17s-760.59,217.84-1885.91,210.76S6605.48,5822.83,6605.48,5822.83Z" transform="translate(-5962.67 -2567.48)"/><path class="cls-5" d="M7873.32,4327.51s538.83,226.07,697.31,226.07,649.77-31.82,649.77-31.82S9046.07,4746.87,9046.07,5060s-31.7,539.18-31.7,539.18-610.2,141.29-927.16,0S7651.45,5104.63,7699,4807.91,7873.32,4327.51,7873.32,4327.51Z" transform="translate(-5962.67 -2567.48)"/><path class="cls-6" d="M7744.23,5222.51s78.1,352.13,468.06,417.32c380.81,63.66,674.35-23.58,674.35-23.58S8780.86,5226.07,8669.79,5219s-171.89,17.66-235.36,53-134.87,120.24-134.87,120.24-100.43-239.86-206.27-240.49C7887,5150.56,7744.23,5222.51,7744.23,5222.51Z" transform="translate(-5962.67 -2567.48)"/><path class="cls-7" d="M6234.14,4666.61S5853.79,5034,6075.66,5401.35s887.49,545.1,1426.32,587.49,2091.93,90.73,2662.46-93,833-480.4,833-650-72.3-423.88-230.78-522.79,0-268.46-206-494.53-301.11-113-301.11-113,174.33-367.37-95.09-664.09c0,0-475.44-438-760.7-409.76s-380.35,56.52-380.35,56.52,205.57-260.87,126.78-339.11c-176.93-175.7-538.83-183.68-808.25,0s-618.07,339.11-618.07,339.11-491.29-42.39-713.16,226.07-301.11,579.31-301.11,621.7-317,288.83-348.66,419.94S6234.14,4666.61,6234.14,4666.61Z" transform="translate(-5962.67 -2567.48)"/><path class="cls-8" d="M6060,4941.8s211.48,546.78,761.31,669.33,2188.77,122.55,2188.77,122.55,1184.26-18.85,1438-254.53,444.1-537.35,444.1-537.35,149.35,338.2,85.91,441.9-614.6,510.25-1005.83,585.66S8280.5,6044.78,7921,6044.78,6620.41,5865.67,6419.51,5762s-380-461.93-390.57-537.35S6060,4941.8,6060,4941.8Z" transform="translate(-5962.67 -2567.48)"/><line class="cls-9" x1="1038.4" y1="3420.74" x2="1281.6" y2="4768.83"/><line class="cls-9" x1="1662.15" y1="3477.3" x2="1768" y2="4947.95"/><line class="cls-9" x1="2539.14" y1="3536.22" x2="2539.14" y2="4995.08"/><line class="cls-9" x1="3364.63" y1="3477.3" x2="3279.96" y2="4947.95"/><line class="cls-9" x1="4030.78" y1="3420.74" x2="3808.73" y2="4768.83"/><ellipse class="cls-10" cx="2375.99" cy="1313.76" rx="375.37" ry="334.67"/><ellipse class="cls-10" cx="3015.66" cy="1233.63" rx="264.3" ry="254.53"/><ellipse class="cls-11" cx="2317.83" cy="1313.76" rx="142.75" ry="127.27"/><ellipse class="cls-11" cx="3036.56" cy="1252.27" rx="121.84" ry="108.63"/><path class="cls-12" d="M9334.7,3901.89c21.15,46.93,81.52,69.89,134.15,51l195.82-70.15c52.63-18.86,78.39-72.68,57.24-119.61" transform="translate(-5962.67 -2567.48)"/><path class="cls-12" d="M9721.92,3763.17c-21.15-46.93-81.52-69.89-134.15-51l-195.82,70.15c-52.63,18.86-78.39,72.68-57.24,119.61" transform="translate(-5962.67 -2567.48)"/><path class="cls-12" d="M9877.14,5246c56.72,0,103.14-41.38,103.14-92V4965.9c0-50.57-46.41-92-103.14-92" transform="translate(-5962.67 -2567.48)"/><path class="cls-12" d="M9877.14,4873.95c-56.72,0-103.14,41.38-103.14,92v188.15c0,50.57,46.41,92,103.14,92" transform="translate(-5962.67 -2567.48)"/><path class="cls-12" d="M7088.48,3740.58c0,50.57,46.41,92,103.14,92h211c56.72,0,103.14-41.38,103.14-92" transform="translate(-5962.67 -2567.48)"/><path class="cls-12" d="M7505.79,3740.58c0-50.57-46.41-92-103.14-92h-211c-56.72,0-103.14,41.38-103.14,92" transform="translate(-5962.67 -2567.48)"/><path class="cls-12" d="M9275.73,5901.45c56.72,0,103.14-41.38,103.14-92V5621.34c0-50.57-46.41-92-103.14-92" transform="translate(-5962.67 -2567.48)"/><path class="cls-12" d="M9275.73,5529.39c-56.72,0-103.14,41.38-103.14,92V5809.5c0,50.57,46.41,92,103.14,92" transform="translate(-5962.67 -2567.48)"/><path class="cls-12" d="M10311.24,5293.61c33.42,40.87,98.26,49.92,144.1,20.13l170.53-110.85c45.84-29.79,56-87.61,22.58-128.47" transform="translate(-5962.67 -2567.48)"/><path class="cls-12" d="M10648.44,5074.42c-33.42-40.87-98.26-49.92-144.1-20.13l-170.53,110.85c-45.84,29.79-56,87.61-22.58,128.47" transform="translate(-5962.67 -2567.48)"/><path class="cls-12" d="M7003.89,5423.24c0,50.57,46.41,92,103.14,92h211c56.72,0,103.14-41.38,103.14-92" transform="translate(-5962.67 -2567.48)"/><path class="cls-12" d="M7421.2,5423.24c0-50.57-46.41-92-103.14-92H7107c-56.72,0-103.14,41.38-103.14,92" transform="translate(-5962.67 -2567.48)"/><path class="cls-13" d="M7727.95,3561c56.72,0,103.14-41.38,103.14-92V3280.88c0-50.57-46.41-92-103.14-92" transform="translate(-5962.67 -2567.48)"/><path class="cls-13" d="M7727.95,3188.93c-56.72,0-103.14,41.38-103.14,92V3469c0,50.57,46.41,92,103.14,92" transform="translate(-5962.67 -2567.48)"/><path class="cls-13" d="M9112.68,4371.7c24.33-45.69,2.31-100.81-48.93-122.5l-190.64-80.7c-51.24-21.69-113.07-2.06-137.4,43.62" transform="translate(-5962.67 -2567.48)"/><path class="cls-13" d="M8735.71,4212.12c-24.33,45.69-2.31,100.81,48.93,122.5l190.64,80.7c51.24,21.69,113.07,2.06,137.4-43.62" transform="translate(-5962.67 -2567.48)"/><path class="cls-13" d="M9170.21,5165.17c0,50.57,46.41,92,103.14,92h211c56.72,0,103.14-41.38,103.14-92" transform="translate(-5962.67 -2567.48)"/><path class="cls-13" d="M9587.52,5165.17c0-50.57-46.41-92-103.14-92h-211c-56.72,0-103.14,41.38-103.14,92" transform="translate(-5962.67 -2567.48)"/><path class="cls-13" d="M9671.41,3529.95c-9.46,49.86,28.55,97.57,84.48,106L9964,3667.35c55.93,8.44,109.43-25.46,118.9-75.32" transform="translate(-5962.67 -2567.48)"/><path class="cls-13" d="M10082.87,3592c9.46-49.86-28.55-97.57-84.48-106l-208.08-31.39c-55.93-8.44-109.43,25.46-118.9,75.32" transform="translate(-5962.67 -2567.48)"/><path class="cls-13" d="M6699.06,4717.88c19.15,47.61,78.5,72.59,131.9,55.52l198.65-63.51c53.4-17.07,81.42-70,62.27-117.59" transform="translate(-5962.67 -2567.48)"/><path class="cls-13" d="M7091.88,4592.29c-19.15-47.61-78.5-72.59-131.9-55.52l-198.65,63.51c-53.4,17.07-81.42,70-62.27,117.59" transform="translate(-5962.67 -2567.48)"/><path class="cls-13" d="M7219.15,5750.77c0,50.57,46.41,92,103.14,92h211c56.72,0,103.14-41.38,103.14-92" transform="translate(-5962.67 -2567.48)"/><path class="cls-13" d="M7636.46,5750.77c0-50.57-46.41-92-103.14-92h-211c-56.72,0-103.14,41.38-103.14,92" transform="translate(-5962.67 -2567.48)"/><path class="cls-14" d="M9723.63,4384.52c-9.46,49.86,28.55,97.57,84.48,106l208.08,31.39c55.93,8.44,109.43-25.46,118.9-75.32" transform="translate(-5962.67 -2567.48)"/><path class="cls-14" d="M10135.09,4446.6c9.46-49.86-28.55-97.57-84.48-106l-208.08-31.39c-55.93-8.44-109.43,25.46-118.9,75.32" transform="translate(-5962.67 -2567.48)"/><path class="cls-14" d="M9774.54,5582.56c-9.46,49.86,28.55,97.57,84.48,106L10067.1,5720c55.93,8.44,109.43-25.46,118.9-75.32" transform="translate(-5962.67 -2567.48)"/><path class="cls-14" d="M10186,5644.63c9.46-49.86-28.55-97.57-84.48-106l-208.08-31.39c-55.93-8.44-109.43,25.46-118.9,75.32" transform="translate(-5962.67 -2567.48)"/><path class="cls-14" d="M7215.47,4446.9c-9.46,49.86,28.55,97.57,84.48,106L7508,4584.3c55.93,8.44,109.43-25.46,118.9-75.32" transform="translate(-5962.67 -2567.48)"/><path class="cls-14" d="M7626.93,4509c9.46-49.86-28.55-97.57-84.48-106l-208.08-31.39c-55.93-8.44-109.43,25.46-118.9,75.32" transform="translate(-5962.67 -2567.48)"/><path class="cls-14" d="M6460.08,5016.86c-56.71,1-102.22,43.14-101.13,93.71l4.06,188.12c1.09,50.56,48.39,91.14,105.1,90.16" transform="translate(-5962.67 -2567.48)"/><path class="cls-14" d="M6468.12,5388.85c56.71-1,102.22-43.14,101.13-93.71L6565.19,5107c-1.09-50.56-48.39-91.14-105.1-90.16" transform="translate(-5962.67 -2567.48)"/><path class="cls-14" d="M8147.27,5954.68c32.34,41.55,96.93,52,143.53,23.12l173.38-107.27c46.6-28.83,58.27-86.42,25.93-128" transform="translate(-5962.67 -2567.48)"/><path class="cls-14" d="M8490.11,5742.55c-32.34-41.55-96.93-52-143.53-23.12L8173.2,5826.71c-46.6,28.83-58.27,86.42-25.93,128" transform="translate(-5962.67 -2567.48)"/><path class="cls-14" d="M9173.14,3314.65c-9.46,49.86,28.55,97.57,84.48,106l208.08,31.39c55.93,8.44,109.43-25.46,118.9-75.32" transform="translate(-5962.67 -2567.48)"/><path class="cls-14" d="M9584.6,3376.73c9.46-49.86-28.55-97.57-84.48-106L9292,3239.33c-55.93-8.44-109.43,25.46-118.9,75.32" transform="translate(-5962.67 -2567.48)"/><path class="cls-14" d="M8296.08,2936.27c-9.46,49.86,28.55,97.57,84.48,106l208.08,31.39c55.93,8.44,109.43-25.46,118.9-75.32" transform="translate(-5962.67 -2567.48)"/><path class="cls-14" d="M8707.53,2998.34c9.46-49.86-28.55-97.57-84.48-106L8415,2860.95c-55.93-8.44-109.43,25.46-118.9,75.32" transform="translate(-5962.67 -2567.48)"/><path class="cls-15" d="M6967.29,4188.73c-.5-9.9-4.15-20.18-12.58-27.08a48.63,48.63,0,0,0-30.37-11.22q-8-.19-16-.94a240.71,240.71,0,0,1-44.46-10.94,248.4,248.4,0,0,1-43.17-22.58,234.84,234.84,0,0,1-35.92-32,203.13,203.13,0,0,1-24.24-36.81,171.14,171.14,0,0,1-12.34-41.72,28,28,0,0,0-7.69-13,31.38,31.38,0,0,0-12.05-9.86c-9.21-4.8-22.78-6.84-33.1-3.86s-20.42,8.74-25.67,17.6l-4.33,9.15a34.54,34.54,0,0,0,0,20.36c3.43,21.56,11.55,41.86,21.78,61.57s24.18,37.37,39.77,53.89,34.22,30.66,54,43.19,41.5,21.86,64.12,29.35c25.19,8.34,52.46,12.58,79.28,13.23,10.82.26,22.79-4.46,30.37-11.22S6967.77,4198.27,6967.29,4188.73Z" transform="translate(-5962.67 -2567.48)"/><path class="cls-15" d="M6697.41,4892.43c-.5-9.9-4.15-20.18-12.58-27.08s-18.82-11.42-30.37-11.22a280.92,280.92,0,0,1-32.47-1.32,318.62,318.62,0,0,1-62.25-15.54,389.37,389.37,0,0,1-72.73-38.38c-31-21.95-58.57-47.58-83.86-74.68q-9.34-10-18.32-20.29c-18.65-21.72-36.4-44-54.11-66.34a30.51,30.51,0,0,0-11.06-10.75A33.81,33.81,0,0,0,6305,4620a36.34,36.34,0,0,0-17.13-.68,34.74,34.74,0,0,0-16,4.54c-9.17,5.27-17.25,13.12-19.74,22.89-2.44,9.55-2.27,21.19,4.33,29.51,38.34,48.33,77,97.17,123.59,139.56a512.12,512.12,0,0,0,78.22,58.63,417.67,417.67,0,0,0,87.85,39.9,312.31,312.31,0,0,0,48.18,11.65c19.81,3.12,40,5.12,60.09,4.76,11.15-.2,22.43-4.13,30.37-11.22C6692.28,4912.86,6697.89,4902,6697.41,4892.43Z" transform="translate(-5962.67 -2567.48)"/><path class="cls-15" d="M9112.77,3073.75c-52.9-12.44-108.33-14.1-162.55-9.31-55.59,4.91-110.29,14.95-165.06,24.45-27.46,4.77-55,9.31-82.68,12.78-41.65,4.68-83.83,6.52-125.59,2.13q-7.52-1-15-2.3c-11.48-2-22.73-1.55-33.1,3.86-8.91,4.65-17.41,13.76-19.74,22.89-2.5,9.8-2,20.81,4.33,29.51,5.79,8,14.78,15.72,25.67,17.6,51.66,8.9,103.85,9.16,156,3.72,52.88-5.52,104.94-15,157.16-24,25.85-4.46,51.76-4,77.84-7.24C8971,3143.19,9123.77,3076.34,9112.77,3073.75Z" transform="translate(-5962.67 -2567.48)"/><path class="cls-15" d="M10336.08,3987.32a28.58,28.58,0,0,0-8.88-12.33c-7.45-6.64-19.67-11.64-30.37-11.22-11.11.44-22.63,3.7-30.37,11.22l-6.72,7.75a35,35,0,0,0-5.86,19.33c-.78,10-1.82,20-3.19,30-4.22,25.67-10.93,51-21.69,75.18a212.15,212.15,0,0,1-25.22,39.26,199.58,199.58,0,0,1-29.15,26.05,190.83,190.83,0,0,1-30.61,16.1,171.24,171.24,0,0,1-28.19,7,161.42,161.42,0,0,1-16.29.5,46.83,46.83,0,0,0-30.37,11.22c-7.45,6.64-13.06,17.54-12.58,27.08.5,9.9,4.15,20.18,12.58,27.08a48.44,48.44,0,0,0,30.37,11.22c55.5,1.12,108.58-21.82,148-55.63,40.27-34.53,65.38-81.38,78.4-129.33,7.62-28,11.6-57,13.84-85.73A26.3,26.3,0,0,0,10336.08,3987.32Z" transform="translate(-5962.67 -2567.48)"/><path class="cls-15" d="M10716.39,4600.33c-5.21-7.94-15.43-15.52-25.67-17.6-11-2.23-23.34-1.75-33.1,3.86-9.11,5.23-17.38,13.14-19.74,22.89-8.18,33.86-17.08,67.67-29.76,100.45q-4.52,11.67-9.74,23.11a279.36,279.36,0,0,1-34.63,54.49,160.59,160.59,0,0,1-66,46.35,276,276,0,0,1-52.64,12.31c-45.73,4.69-92,1.19-137.63-2.69a35.63,35.63,0,0,0-16.55,3.3,32.86,32.86,0,0,0-13.82,7.92c-7.45,6.64-13.06,17.54-12.58,27.08.5,9.9,4.15,20.18,12.58,27.08l8.69,6a46.8,46.8,0,0,0,21.68,5.23c39.82,3.38,79.93,6.46,119.93,4.12,45.73-2.67,91.14-11.49,131.13-32.19,34.57-17.9,62.51-43.46,84.92-72.73,20.88-27.27,35.7-58.31,47.7-89.42,11.24-29.15,19.51-59.14,27-89.22q1.34-5.41,2.64-10.82C10723.15,4619.79,10722.33,4609.39,10716.39,4600.33Z" transform="translate(-5962.67 -2567.48)"/><path class="cls-16" d="M6242.86,4654.25S5862.51,5021.62,6084.38,5389s887.49,545.1,1426.32,587.49,2091.93,90.73,2662.46-93,833-480.4,833-650-72.3-423.88-230.78-522.79,0-268.46-206-494.53-301.11-113-301.11-113,174.33-367.37-95.09-664.09c0,0-475.44-438-760.7-409.76s-380.35,56.52-380.35,56.52,205.57-260.87,126.78-339.11c-176.93-175.7-538.83-183.68-808.25,0s-618.07,339.11-618.07,339.11-491.29-42.39-713.16,226.07-301.11,579.31-301.11,621.7-317,288.83-348.66,419.94S6242.86,4654.25,6242.86,4654.25Z" transform="translate(-5962.67 -2567.48)"/></g></svg>