<svg xmlns="http://www.w3.org/2000/svg" xmlns:xlink="http://www.w3.org/1999/xlink" viewBox="0 0 1002.61 1050.01"><defs><style>.cls-1{fill:#dab989;}.cls-2{fill:#c48951;}.cls-3{fill:#c49158;}.cls-4{fill:url(#linear-gradient);}.cls-5{fill:#a77c4a;}.cls-6{fill:#070909;}.cls-7{fill:url(#linear-gradient-2);}.cls-8{font-size:190.27px;fill:#ec1e37;font-family:Avenir-Black, Avenir;}.cls-9{letter-spacing:-0.09em;}.cls-10{letter-spacing:-0.02em;}</style><linearGradient id="linear-gradient" x1="268.39" y1="498.27" x2="486.52" y2="498.27" gradientTransform="translate(128.55 -53.42) rotate(10.92)" gradientUnits="userSpaceOnUse"><stop offset="0" stop-color="#f6f5db"/><stop offset="1" stop-color="#faf1a2"/></linearGradient><linearGradient id="linear-gradient-2" x1="636.11" y1="556.96" x2="848.46" y2="556.96" gradientTransform="translate(-41.25 45.84) rotate(-2.89)" xlink:href="#linear-gradient"/></defs><title>dimSum</title><g id="dimsum"><path class="cls-1" d="M287.59,548.42s-50.56-.54-53.73,16.31-23.88,258-23.88,258,139.64,50.11,184.43,51.76S544.22,862,544.22,862l12.24-198.53-10.15-8.31,1.41-46a45.36,45.36,0,0,0-32.09-26.75C491,576.86,287.59,548.42,287.59,548.42Z" transform="translate(-121.54 1.77)"/><path class="cls-2" d="M226.28,643.11l7.12,17s151.33,39.74,177.25,42.24,125.87-15.85,133.46-16.45l7.58-.6,3-22.37S492.09,682.23,474,684s-113.23-1.76-167.12-19.61S226.28,643.11,226.28,643.11Z" transform="translate(-121.54 1.77)"/><path class="cls-3" d="M213.73,737.84s82.08,59.88,102.88,65.72,77.37,17.62,100.67,18.7,64.65.4,73.1-6.78,38.92-17.73,38.92-17.73S397.73,814.05,379.65,809s-77.4-24.45-85.92-30.94S213.73,737.84,213.73,737.84Z" transform="translate(-121.54 1.77)"/><path class="cls-2" d="M531.13,615.66c.75-14.39-62.4-33.12-141.06-41.83s-143-4.11-143.79,10.27,62.4,33.12,141.06,41.83S530.37,630,531.13,615.66Z" transform="translate(-121.54 1.77)"/><path class="cls-4" d="M298.14,603.24c2.89-.55,78.69,28.91,106.68,29.94s88.09-6.66,88.09-6.66,9.34-49.24,7.67-57.89-10.6-26.17-12.09-36.14,1.93-50-3-55.42-26.77-10.24-27.36-20,8.18-26.36,2-29.45-16.27-4.57-16.27-4.57,14.68-25.9,6.17-32.39S430.52,392,425.68,392s-12.25-.71-17.3,2-16.32,24.08-27.86,26.3-30.36-4.43-38.29-1.19-40.92,54-47.81,84.84S298.14,603.24,298.14,603.24Z" transform="translate(-121.54 1.77)"/><path class="cls-5" d="M401.17,439.49c-6.09,4.69-7.08.86-8.69-3.57s-3.23-7.78,2.85-12.47,21-7.82,18.66-4.12C409,427.24,407.26,434.8,401.17,439.49Z" transform="translate(-121.54 1.77)"/><path class="cls-5" d="M449,461.41c.49,10-2.32,9.77-5.76,10.13s-6.2,1.16-6.69-8.84,3.57-31.1,5-26.51C444.47,446,448.51,451.41,449,461.41Z" transform="translate(-121.54 1.77)"/><path class="cls-5" d="M425.8,454.14c-2.05,9.57-4.61,7.87-7.9,6.37s-6.06-2.21-4-11.78,11.12-27.06,11.26-22.05C425.46,437.38,427.86,444.57,425.8,454.14Z" transform="translate(-121.54 1.77)"/><path class="cls-6" d="M343.24,773.21s20.32,48.4,30.16,49.47c18.09,2,27.6-21.45,32.84-25.57s18.23-21.6,16.4-27.08-8.91-6.85-13.58-3.81-20.5,22.59-26.67,24.08-16.57-23.17-22.5-26.7-12.12-8.37-15.05-2.36A20,20,0,0,0,343.24,773.21Z" transform="translate(-121.54 1.77)"/><path class="cls-6" d="M339.22,704.48c-1.23,2.86-3.73,4.09-5.95,3.08s-5.68-1.49-5.45,4.76c.47,12.56,22.08,10.55,25.76,5.37s6.45-10,4.44-17.39-4.36-18.62-13.11-18.59-16.89.85-15,8.84,10.67,6.1,9.92,11.78A8.13,8.13,0,0,1,339.22,704.48Z" transform="translate(-121.54 1.77)"/><path class="cls-6" d="M422.72,704.71c1.23-2.86,3.73-4.09,5.95-3.08s5.68,1.49,5.45-4.76c-.47-12.56-22.08-10.55-25.76-5.37s-6.45,10-4.44,17.39,4.36,18.62,13.11,18.59,16.89-.85,15-8.84-10.67-6.1-9.92-11.78A8.13,8.13,0,0,1,422.72,704.71Z" transform="translate(-121.54 1.77)"/><path class="cls-1" d="M624.68,646s-49.19,17-49.51,34.49,19.11,258.88,19.11,258.88,143.82.18,187.59-13.77S925.3,861.36,925.3,861.36L904.64,664.31l-11.22-4.54-6.17-45.16s-10.76-18-35.55-14.83S624.68,646,624.68,646Z" transform="translate(-121.54 1.77)"/><path class="cls-2" d="M580.66,759.2l9.71,14s153.47-13.95,179.06-20.52,119.64-59.09,126.91-62.31l7.26-3.22-.79-22.75S845.21,704.9,828,712.87s-110.25,37.61-165.51,39S580.66,759.2,580.66,759.2Z" transform="translate(-121.54 1.77)"/><path class="cls-3" d="M584,855.55s89.53,29.66,110.68,28.1,78-9.75,100.83-16.79,62.85-22.05,69.88-32,34.89-30.74,34.89-30.74S775.18,865.67,756.79,867s-79.17,3.13-88.51-.21S584,855.55,584,855.55Z" transform="translate(-121.54 1.77)"/><path class="cls-2" d="M872.21,626.69c-1.63-14.23-66-10.5-143.85,8.35s-139.58,45.67-138,59.9,66,10.5,143.85-8.35S873.83,640.93,872.21,626.69Z" transform="translate(-121.54 1.77)"/><path class="cls-7" d="M643.91,695.52c2.71-1.54,81.15.75,108.51-8s84.45-37.06,84.45-37.06,1-51.06-2-58.88-14.58-21.74-17.66-30.9-6.31-49.18-12-52.79-27.68-.65-29.84-9.89,3.62-28.44-2.86-29.31S755.94,470,755.94,470s10-30.25.68-33.59-18.77,8.09-23.48,9.77-12,3.56-16.47,7.92-11.9,29-22.75,35.21-30.21,6.24-37.38,12.13-30.88,66.67-32.52,99S643.91,695.52,643.91,695.52Z" transform="translate(-121.54 1.77)"/><path class="cls-5" d="M717.12,500.73c-5.14,6.67-6.73,3.29-9-.45s-4.41-6.43.73-13.1,19.1-14.88,17.45-10.48C722.75,486.1,722.27,494.06,717.12,500.73Z" transform="translate(-121.54 1.77)"/><path class="cls-5" d="M767.16,505.41c2.12,9.54-.65,10.3-3.93,11.84s-5.83,3.28-7.94-6.26-1.64-31.44.46-27.47C760.24,492,765,495.87,767.16,505.41Z" transform="translate(-121.54 1.77)"/><path class="cls-5" d="M743.45,506.41c-.42,10-3.19,9.24-6.63,8.93s-6.25,0-5.82-10,6.36-30.14,7.32-25.32C740.36,490.25,743.87,496.4,743.45,506.41Z" transform="translate(-121.54 1.77)"/><path class="cls-6" d="M715.57,844.93s27.67,39.94,37.4,37.57c17.9-4.37,23.29-30.42,27.7-36.24s14.16-27.3,11.48-32-9.78-3.56-13.81,1-16.2,29.05-22,32.65-19.89-16.75-26.23-18.12-13.15-3.92-15,2.93A20.06,20.06,0,0,0,715.57,844.93Z" transform="translate(-121.54 1.77)"/><path class="cls-6" d="M700.4,779.58c-.73,3.21-3,5.26-5.27,5.06s-5.76.52-4.51,6.52c2.52,12,23.17,2.58,25.89-3.73S721.13,775.48,718,769s-7.28-16.57-15.78-13.5-16.26,6.69-13.12,13.79,11.36,2.22,11.56,8A9,9,0,0,1,700.4,779.58Z" transform="translate(-121.54 1.77)"/><path class="cls-6" d="M781.53,750.81c.73-3.21,3-5.26,5.27-5.06s5.76-.52,4.51-6.52c-2.52-12-23.17-2.58-25.89,3.73S760.8,754.91,764,761.4s7.28,16.57,15.78,13.5,16.26-6.69,13.12-13.79-11.36-2.22-11.56-8A9,9,0,0,1,781.53,750.81Z" transform="translate(-121.54 1.77)"/><path class="cls-6" d="M412.28,864.24s11.66,21.44,11.66,30.37-4.91,89.33,0,90.22,31.3.89,31.3,4.47,1.23,14.29-4.91,14.29-38.06-7.15-38.06-7.15,3.68-76.82,3.07-84-11-27.69-11.66-35.73a65.38,65.38,0,0,1,0-12.51Z" transform="translate(-121.54 1.77)"/><path class="cls-6" d="M340.46,853.52s7.37,14.29,4.91,23.23-41.74,92-41.74,92,3.68,12.51,9.82,13.4,28.24,0,24.55,6.25-15.35,13.4-25.17,10.72-25.17-13.4-25.17-13.4Z" transform="translate(-121.54 1.77)"/><path class="cls-6" d="M605.43,831.78s-8.59,28.59-8.59,40.2,3.07,28.59,4.3,25.91,1.84-20.55,4.3-28.59,10.43-23.23,10.43-29.48S605.43,831.78,605.43,831.78Z" transform="translate(-121.54 1.77)"/><ellipse class="cls-6" cx="479.6" cy="906.8" rx="8.59" ry="12.51"/><path class="cls-6" d="M893.34,765.64s15.77,21.14,19,31.77,5.09,28,3.23,26.23-7.37-17.73-11.84-23.65-16-15.15-17.7-20.88S893.34,765.64,893.34,765.64Z" transform="translate(-121.54 1.77)"/><path class="cls-6" d="M909.66,835.22c1.91,6.32,7,9.2,11.32,6.42s6.32-10.16,4.41-16.48-7-9.2-11.32-6.42S907.75,828.89,909.66,835.22Z" transform="translate(-121.54 1.77)"/><path class="cls-6" d="M245.91,706.89s-13.25,24.53-15.25,35.77-2,28.79-.31,26.65,5.33-19.22,9.09-26.1,14.11-18.67,15.18-24.72S245.91,706.89,245.91,706.89Z" transform="translate(-121.54 1.77)"/><path class="cls-6" d="M237.43,779.36c-1.19,6.69-5.88,10.7-10.47,9s-7.35-8.56-6.16-15.24,5.88-10.7,10.47-9S238.63,772.68,237.43,779.36Z" transform="translate(-121.54 1.77)"/><path class="cls-6" d="M536,748s11.62,26.22,12.9,37.68.11,28.93-1.4,26.57-4.07-19.85-7.38-27.22-12.85-20.5-13.54-26.67S536,748,536,748Z" transform="translate(-121.54 1.77)"/><path class="cls-6" d="M539.8,821.33c.76,6.82,5.17,11.45,9.86,10.35s7.87-7.53,7.11-14.34-5.17-11.45-9.86-10.35S539,814.51,539.8,821.33Z" transform="translate(-121.54 1.77)"/><path class="cls-6" d="M727.13,908.89s-11.66,21.44-11.66,30.37,4.91,89.33,0,90.22-31.3.89-31.3,4.47-1.23,14.29,4.91,14.29,38.06-7.15,38.06-7.15-3.68-76.82-3.07-84,11-27.69,11.66-35.73a65.38,65.38,0,0,0,0-12.51Z" transform="translate(-121.54 1.77)"/><path class="cls-6" d="M799,898.17s-7.37,14.29-4.91,23.23,41.74,92,41.74,92-3.68,12.51-9.82,13.4-28.24,0-24.55,6.25,15.35,13.4,25.17,10.72,25.17-13.4,25.17-13.4Z" transform="translate(-121.54 1.77)"/><text class="cls-8" transform="translate(2.61 162.49) scale(0.69 1)"><tspan class="cls-9">Y</tspan><tspan x="105.79" y="0">ou’</tspan><tspan class="cls-10" x="387.39" y="0">r</tspan><tspan x="461.41" y="0">e all that </tspan><tspan x="0" y="194.29">and Dim Sum!</tspan></text><text x="-121.54" y="1.77"></text></g></svg>