<svg xmlns="http://www.w3.org/2000/svg" xmlns:xlink="http://www.w3.org/1999/xlink" viewBox="0 0 1088.95 685.58"><defs><style>.cls-1{fill:#dab989;}.cls-2{fill:#c48951;}.cls-3{fill:#c49158;}.cls-4{fill:url(#linear-gradient);}.cls-5{fill:#a77c4a;}.cls-6{fill:#070909;}.cls-7{fill:url(#linear-gradient-2);}.cls-8{font-size:142px;fill:#ec1e37;font-family:Avenir-Black, Avenir;}.cls-9{letter-spacing:-0.09em;}.cls-10{letter-spacing:-0.02em;}.cls-11{letter-spacing:0em;}</style><linearGradient id="linear-gradient" x1="498.07" y1="400.71" x2="728.69" y2="400.71" gradientTransform="translate(104.35 -110.2) rotate(10.92)" gradientUnits="userSpaceOnUse"><stop offset="0" stop-color="#f6f5db"/><stop offset="1" stop-color="#faf1a2"/></linearGradient><linearGradient id="linear-gradient-2" x1="882.85" y1="434.29" x2="1113.47" y2="434.29" gradientTransform="translate(-33.09 60) rotate(-2.89)" xlink:href="#linear-gradient"/></defs><title>dimSum</title><g id="bigDill"><path class="cls-1" d="M506.45,431.28s-54.92-.41-58.36,12.17S422.15,636,422.15,636s151.66,37.4,200.31,38.63,162.72-9.36,162.72-9.36l13.3-148.16-11-6.2L789,476.6s-8.15-15.83-34.85-20S506.45,431.28,506.45,431.28Z" transform="translate(-329.86 -118.72)"/><path class="cls-2" d="M439.86,502l7.74,12.69S612,544.31,640.11,546.17s136.71-11.83,144.95-12.27l8.23-.45,3.22-16.69s-68,14.39-87.56,15.7-123-1.31-181.51-14.64S439.86,502,439.86,502Z" transform="translate(-329.86 -118.72)"/><path class="cls-3" d="M426.23,572.65s89.15,44.69,111.73,49,84,13.15,109.34,14,70.21.3,79.39-5.06S769,617.36,769,617.36s-142.89,12.16-162.53,8.37-84.07-18.25-93.32-23.09S426.23,572.65,426.23,572.65Z" transform="translate(-329.86 -118.72)"/><ellipse class="cls-2" cx="616.27" cy="469.69" rx="19.5" ry="155.14" transform="translate(-228.7 929.8) rotate(-85.65)"/><path class="cls-4" d="M517.91,472.19c3.14-.41,85.46,21.57,115.86,22.35s95.67-5,95.67-5,10.14-36.74,8.33-43.2-11.51-19.53-13.13-27,2.1-37.28-3.23-41.36-29.08-7.64-29.72-14.9,8.89-19.67,2.2-22-17.67-3.41-17.67-3.41,15.95-19.33,6.7-24.17-21.24,1-26.5,1S643.12,314,637.65,316s-17.72,18-30.26,19.62-33-3.3-41.58-.89-44.44,40.31-51.93,63.31S517.91,472.19,517.91,472.19Z" transform="translate(-329.86 -118.72)"/><path class="cls-5" d="M629.81,350c-6.61,3.5-7.69.64-9.44-2.66s-3.51-5.8,3.1-9.31,22.8-5.84,20.27-3.07C638.35,340.85,636.42,346.49,629.81,350Z" transform="translate(-329.86 -118.72)"/><path class="cls-5" d="M681.76,366.35c.53,7.46-2.52,7.29-6.25,7.56s-6.73.87-7.26-6.6,3.87-23.21,5.38-19.79C676.84,354.84,681.23,358.89,681.76,366.35Z" transform="translate(-329.86 -118.72)"/><path class="cls-5" d="M656.57,360.92c-2.23,7.14-5,5.87-8.58,4.76s-6.58-1.65-4.35-8.79,12.08-20.2,12.23-16.46C656.19,348.42,658.8,353.78,656.57,360.92Z" transform="translate(-329.86 -118.72)"/><path class="cls-6" d="M566.89,599S589,635.16,599.64,636c19.65,1.47,30-16,35.67-19.08s19.8-16.12,17.81-20.21-9.68-5.11-14.75-2.84-22.26,16.86-29,18-18-17.29-24.44-19.93-13.17-6.25-16.35-1.76A10.67,10.67,0,0,0,566.89,599Z" transform="translate(-329.86 -118.72)"/><path class="cls-6" d="M562.53,547.75a5.68,5.68,0,0,1-6.46,2.3c-2.56-.8-6.17-1.11-5.92,3.56.51,9.37,24,7.87,28,4s7-7.46,4.82-13-4.73-13.89-14.24-13.87-18.34.64-16.29,6.59,11.59,4.55,10.77,8.79A4.7,4.7,0,0,1,562.53,547.75Z" transform="translate(-329.86 -118.72)"/><path class="cls-6" d="M653.22,547.92a5.68,5.68,0,0,1,6.46-2.3c2.56.8,6.17,1.11,5.92-3.56-.51-9.37-24-7.87-28-4s-7,7.46-4.82,13,4.73,13.89,14.24,13.87,18.34-.64,16.29-6.59-11.59-4.55-10.77-8.79A4.7,4.7,0,0,1,653.22,547.92Z" transform="translate(-329.86 -118.72)"/><path class="cls-1" d="M872.56,504.07s-53.43,12.71-53.77,25.74S839.55,723,839.55,723s156.2.13,203.74-10.27,155.79-47.91,155.79-47.91l-22.43-147.06-12.19-3.39-6.71-33.71s-11.69-13.43-38.61-11.07S872.56,504.07,872.56,504.07Z" transform="translate(-329.86 -118.72)"/><path class="cls-2" d="M824.76,588.59l10.54,10.48s166.69-10.41,194.48-15.31,129.94-44.1,137.83-46.5l7.89-2.4-.86-17s-62.56,30.19-81.28,36.14S973.62,582.08,913.6,583.1,824.76,588.59,824.76,588.59Z" transform="translate(-329.86 -118.72)"/><path class="cls-3" d="M828.39,660.49s97.24,22.13,120.21,21,84.74-7.28,109.51-12.53,68.26-16.46,75.9-23.85,37.89-22.94,37.89-22.94S1036,668,1016.05,669.05s-86,2.33-96.13-.16S828.39,660.49,828.39,660.49Z" transform="translate(-329.86 -118.72)"/><ellipse class="cls-2" cx="988.37" cy="515.17" rx="155.14" ry="19.5" transform="translate(-401.02 50.53) rotate(-9.45)"/><path class="cls-7" d="M893.45,541.07c2.95-1.15,88.14.56,117.85-5.94S1103,507.47,1103,507.47s1.08-38.1-2.22-43.94-15.84-16.22-19.19-23.06-6.86-36.7-13-39.4-30.06-.49-32.41-7.38,3.94-21.23-3.11-21.87-18,.91-18,.91,10.88-22.58.74-25.07-20.39,6-25.5,7.29-13,2.66-17.89,5.91-12.92,21.68-24.71,26.28-32.81,4.66-40.6,9.06-33.54,49.75-35.32,73.87S893.45,541.07,893.45,541.07Z" transform="translate(-329.86 -118.72)"/><path class="cls-5" d="M973,395.7c-5.58,5-7.31,2.46-9.8-.33s-4.8-4.8.79-9.78,20.75-11.11,19-7.82C979.08,384.78,978.56,390.72,973,395.7Z" transform="translate(-329.86 -118.72)"/><path class="cls-5" d="M1027.32,399.19c2.3,7.12-.71,7.68-4.27,8.83s-6.33,2.45-8.63-4.67-1.78-23.46.5-20.5C1019.8,389.19,1025,392.07,1027.32,399.19Z" transform="translate(-329.86 -118.72)"/><path class="cls-5" d="M1001.56,399.93c-.46,7.47-3.46,6.9-7.2,6.67s-6.78,0-6.32-7.5S995,376.6,996,380.2C998.21,387.87,1002,392.46,1001.56,399.93Z" transform="translate(-329.86 -118.72)"/><path class="cls-6" d="M971.28,652.56s30,29.81,40.62,28c19.44-3.26,25.29-22.7,30.09-27s15.38-20.38,12.47-23.88-10.62-2.66-15,.76-17.6,21.68-23.84,24.36-21.6-12.5-28.49-13.52-14.28-2.93-16.3,2.19A10.67,10.67,0,0,0,971.28,652.56Z" transform="translate(-329.86 -118.72)"/><path class="cls-6" d="M954.81,603.79a5.68,5.68,0,0,1-5.73,3.78c-2.68-.16-6.26.39-4.9,4.86,2.73,9,25.17,1.92,28.12-2.79s5-8.91,1.59-13.75-7.91-12.36-17.14-10.08-17.66,5-14.25,10.29,12.34,1.66,12.56,6A4.7,4.7,0,0,1,954.81,603.79Z" transform="translate(-329.86 -118.72)"/><path class="cls-6" d="M1042.92,582.33a5.68,5.68,0,0,1,5.73-3.78c2.68.16,6.26-.39,4.9-4.86-2.73-9-25.17-1.92-28.12,2.79s-5,8.91-1.59,13.75,7.91,12.36,17.14,10.08,17.66-5,14.25-10.29-12.34-1.66-12.56-6A4.7,4.7,0,0,1,1042.92,582.33Z" transform="translate(-329.86 -118.72)"/><path class="cls-6" d="M641.87,667s12.67,16,12.67,22.67-5.33,66.67,0,67.33,34,.67,34,3.33S689.87,771,683.21,771s-41.33-5.33-41.33-5.33,4-57.33,3.33-62.67-12-20.67-12.67-26.67a33.63,33.63,0,0,1,0-9.33Z" transform="translate(-329.86 -118.72)"/><path class="cls-6" d="M563.87,659s8,10.67,5.33,17.33S523.87,745,523.87,745s4,9.33,10.67,10,30.67,0,26.67,4.67-16.67,10-27.33,8-27.33-10-27.33-10Z" transform="translate(-329.86 -118.72)"/><path class="cls-6" d="M851.66,642.76s-9.33,21.33-9.33,30,3.33,21.33,4.67,19.33,2-15.33,4.67-21.33,11.33-17.33,11.33-22S851.66,642.76,851.66,642.76Z" transform="translate(-329.86 -118.72)"/><circle class="cls-6" cx="517.13" cy="578.7" r="9.33"/><path class="cls-6" d="M1164.36,593.39s17.13,15.77,20.62,23.71,5.53,20.87,3.51,19.58-8-13.23-12.86-17.65-17.35-11.31-19.23-15.58S1164.36,593.39,1164.36,593.39Z" transform="translate(-329.86 -118.72)"/><circle class="cls-6" cx="1190.63" cy="641.56" r="9.33" transform="translate(-487.37 414.56) rotate(-23.73)"/><path class="cls-6" d="M461.18,549.55s-14.39,18.31-16.56,26.7-2.13,21.49-.33,19.89,5.78-14.34,9.87-19.48,15.32-13.93,16.49-18.45S461.18,549.55,461.18,549.55Z" transform="translate(-329.86 -118.72)"/><circle class="cls-6" cx="442.94" cy="601.29" r="9.33" transform="translate(-580.13 760.44) rotate(-75.47)"/><path class="cls-6" d="M776.26,580.24s12.62,19.57,14,28.12.12,21.59-1.52,19.83-4.42-14.82-8-20.31-14-15.3-14.7-19.91S776.26,580.24,776.26,580.24Z" transform="translate(-329.86 -118.72)"/><circle class="cls-6" cx="789.6" cy="633.46" r="9.33" transform="matrix(0.99, -0.16, 0.16, 0.99, -420.91, 15.54)"/><path class="cls-6" d="M983.84,700.3s-12.67,16-12.67,22.67,5.33,66.67,0,67.33-34,.67-34,3.33-1.33,10.67,5.33,10.67S983.84,799,983.84,799s-4-57.33-3.33-62.67,12-20.67,12.67-26.67a33.63,33.63,0,0,0,0-9.33Z" transform="translate(-329.86 -118.72)"/><path class="cls-6" d="M1061.84,692.3s-8,10.67-5.33,17.33,45.33,68.67,45.33,68.67-4,9.33-10.67,10-30.67,0-26.67,4.67,16.67,10,27.33,8,27.33-10,27.33-10Z" transform="translate(-329.86 -118.72)"/><text class="cls-8" transform="translate(2.84 121.27)"><tspan class="cls-9">Y</tspan><tspan x="78.95" y="0">ou’</tspan><tspan class="cls-10" x="289.11" y="0">r</tspan><tspan class="cls-11" x="344.35" y="0">e all that </tspan><tspan x="0" y="145">and Dim Sum!</tspan></text><text x="-329.86" y="-118.72"></text></g></svg>