<svg xmlns="http://www.w3.org/2000/svg" xmlns:xlink="http://www.w3.org/1999/xlink" viewBox="0 0 3552.07 3619.27">
  <defs>
    <style>
      .cls-1 {
        fill: #b18a2e;
      }

      .cls-1, .cls-13, .cls-15, .cls-18, .cls-19, .cls-29, .cls-30, .cls-4, .cls-8 {
        stroke: #040504;
      }

      .cls-1, .cls-10, .cls-11, .cls-12, .cls-13, .cls-14, .cls-15, .cls-16, .cls-17, .cls-18, .cls-19, .cls-2, .cls-20, .cls-21, .cls-22, .cls-23, .cls-24, .cls-25, .cls-26, .cls-27, .cls-28, .cls-29, .cls-3, .cls-30, .cls-31, .cls-32, .cls-33, .cls-34, .cls-35, .cls-36, .cls-37, .cls-38, .cls-4, .cls-40, .cls-42, .cls-5, .cls-6, .cls-7, .cls-8, .cls-9 {
        stroke-miterlimit: 10;
      }

      .cls-1, .cls-10, .cls-11, .cls-12, .cls-13, .cls-14, .cls-15, .cls-16, .cls-17, .cls-18, .cls-19, .cls-2, .cls-20, .cls-21, .cls-22, .cls-23, .cls-24, .cls-25, .cls-26, .cls-27, .cls-28, .cls-29, .cls-3, .cls-30, .cls-31, .cls-32, .cls-33, .cls-34, .cls-35, .cls-36, .cls-37, .cls-38, .cls-4, .cls-40, .cls-5, .cls-6, .cls-7, .cls-8, .cls-9 {
        stroke-width: 3px;
      }

      .cls-2, .cls-31 {
        fill: #af8c2f;
      }

      .cls-2, .cls-7 {
        stroke: #090806;
      }

      .cls-28, .cls-3, .cls-4 {
        fill: #e7b721;
      }

      .cls-3, .cls-6 {
        stroke: #0c0c08;
      }

      .cls-5 {
        fill: #d8a828;
        stroke: #0b0b0b;
      }

      .cls-6 {
        fill: #cca52c;
      }

      .cls-7 {
        fill: #fcda4c;
      }

      .cls-8 {
        fill: #f7cd21;
      }

      .cls-9 {
        fill: #fcda4b;
      }

      .cls-11, .cls-12, .cls-16, .cls-9 {
        stroke: #070b08;
      }

      .cls-10 {
        fill: #eab520;
      }

      .cls-10, .cls-17, .cls-20, .cls-31, .cls-38 {
        stroke: #020202;
      }

      .cls-11 {
        fill: #e3b723;
      }

      .cls-12 {
        fill: #e6b722;
      }

      .cls-13 {
        fill: #f9dd4e;
      }

      .cls-14 {
        fill: #e1b624;
        stroke: #090e0a;
      }

      .cls-15, .cls-24 {
        fill: #fbd222;
      }

      .cls-16 {
        fill: #efc11b;
      }

      .cls-17 {
        fill: #f9d41e;
      }

      .cls-18 {
        fill: #e7b921;
      }

      .cls-19 {
        fill: #e8b720;
      }

      .cls-20, .cls-29, .cls-33, .cls-34 {
        fill: #fbd221;
      }

      .cls-21 {
        fill: #d0a92b;
        stroke: #0a0a07;
      }

      .cls-22 {
        fill: #fad225;
      }

      .cls-22, .cls-23, .cls-24, .cls-32, .cls-33 {
        stroke: #030302;
      }

      .cls-23 {
        fill: #cda72c;
      }

      .cls-25 {
        fill: #d0a62b;
        stroke: #070504;
      }

      .cls-26 {
        fill: #af8e2f;
      }

      .cls-26, .cls-27, .cls-28, .cls-35 {
        stroke: #080605;
      }

      .cls-27 {
        fill: #af8b2f;
      }

      .cls-30 {
        fill: #f0be1a;
      }

      .cls-32 {
        fill: #e7b422;
      }

      .cls-34 {
        stroke: #0b0806;
      }

      .cls-35 {
        fill: #af8d2f;
      }

      .cls-36 {
        fill: #931b22;
        stroke: #060304;
      }

      .cls-37, .cls-40 {
        stroke: #030202;
      }

      .cls-37 {
        fill: url(#linear-gradient);
      }

      .cls-38, .cls-41 {
        fill: #fff;
      }

      .cls-39 {
        fill: #251d1e;
      }

      .cls-40 {
        fill: #030202;
      }

      .cls-42 {
        stroke: #070406;
        stroke-width: 2px;
        fill: url(#linear-gradient-2);
      }
    </style>
    <linearGradient id="linear-gradient" x1="4078.53" y1="2360.41" x2="7615.2" y2="2360.41" gradientUnits="userSpaceOnUse">
      <stop offset="0" stop-color="#a71f23"/>
      <stop offset="0.22" stop-color="#c71d2e"/>
      <stop offset="0.44" stop-color="#e31b37"/>
      <stop offset="0.57" stop-color="#ed1a3b"/>
      <stop offset="0.97" stop-color="#f0567d"/>
    </linearGradient>
    <linearGradient id="linear-gradient-2" x1="5516.27" y1="2869.11" x2="6596.01" y2="2869.11" gradientUnits="userSpaceOnUse">
      <stop offset="0" stop-color="#c4262d"/>
      <stop offset="0.09" stop-color="#cc2e3b"/>
      <stop offset="0.56" stop-color="#f0567d"/>
      <stop offset="0.93" stop-color="#f49ec4"/>
    </linearGradient>
  </defs>
  <title>fry</title>
  <g id="fry-16" data-name="fry">
    <g>
      <g>
        <path class="cls-1" d="M6522.3,72.74l295.5,25.81,140.72-81.72S6817.81-9,6740.41-.38,6522.3,72.74,6522.3,72.74Z" transform="translate(-4076.54 167.41)"/>
        <path class="cls-2" d="M6831.88,89.94l119.61-77.42s112.57,162.78,126.64,247,126.64,570.22,126.64,570.22l-295.5,271s49.25-357,21.11-451.61S6831.88,89.94,6831.88,89.94Z" transform="translate(-4076.54 167.41)"/>
        <path class="cls-3" d="M6522.3,89.94S6684.13,834,6684.13,868.44s197,352.69,197,352.69,84.43-361.29,91.47-434.41S6817.81,89.94,6817.81,89.94Z" transform="translate(-4076.54 167.41)"/>
      </g>
      <g>
        <polygon class="cls-4" points="2000.16 69.54 1962.64 1308.25 2295.66 1259.51 2295.66 144.09 2000.16 69.54"/>
        <polygon class="cls-5" points="1850.06 195.71 2000.16 89.61 2014.23 1305.38 1751.56 1325.45 1850.06 195.71"/>
      </g>
      <g>
        <path class="cls-6" d="M5701.46-158.08l70.36,501.79,173.55,88.89s18.76-235.13,0-321.15-37.52-186.38-89.12-217.92S5701.46-158.08,5701.46-158.08Z" transform="translate(-4076.54 167.41)"/>
        <path class="cls-7" d="M5274.62-100.74l51.6,771.33,206.38,14.34,248.6-415.77L5715.53-161s-150.1-14.34-234.53,5.73S5274.62-100.74,5274.62-100.74Z" transform="translate(-4076.54 167.41)"/>
      </g>
      <path class="cls-8" d="M4838.4,355.18,4542.9,424s46.91,387.1,79.74,476,215.76,364.16,215.76,364.16h122s-28.14-498.92-32.83-584.95S4838.4,355.18,4838.4,355.18Z" transform="translate(-4076.54 167.41)"/>
      <g>
        <path class="cls-9" d="M4946.28,1241.2s4.69-401.43-32.83-570.61-168.86-490.32-168.86-490.32,159.48-51.61,225.15-45.88,112.57,97.49,131.34,129,168.86,453,168.86,453L5087,1241.2Z" transform="translate(-4076.54 167.41)"/>
        <path class="cls-10" d="M5016.64,140.12l225.15,536.2,182.93-22.94s-70.36-177.78-126.64-258.06-103.19-186.38-131.34-206.45S5016.64,140.12,5016.64,140.12Z" transform="translate(-4076.54 167.41)"/>
      </g>
      <g>
        <path class="cls-11" d="M4674.23,765.21s-159.48,2.87-253.29,28.67-220.46,100.36-168.86,100.36,192.31-5.73,248.6-25.81S4674.23,765.21,4674.23,765.21Z" transform="translate(-4076.54 167.41)"/>
        <polygon class="cls-12" points="433.52 1015.78 611.76 935.49 794.69 1474.56 663.36 1620.8 433.52 1015.78"/>
        <path class="cls-13" d="M4242.7,905.71l154.79,467.38h286.12l-164.17-519s-79.74,45.88-136,45.88S4242.7,905.71,4242.7,905.71Z" transform="translate(-4076.54 167.41)"/>
      </g>
      <g>
        <path class="cls-14" d="M5190.19,1378.83s173.55,8.6,173.55,45.88,28.14,260.93,28.14,260.93l-154.79,54.48Z" transform="translate(-4076.54 167.41)"/>
        <polygon class="cls-15" points="1291.89 1600.72 1291.89 1875.99 1624.92 1875.99 1606.16 1546.24 1291.89 1600.72"/>
        <path class="cls-16" d="M5190.19,1396l178.24,68.82L5673.32,1396l-140.72-80.29s-65.67-25.81-168.86,0S5190.19,1396,5190.19,1396Z" transform="translate(-4076.54 167.41)"/>
      </g>
      <g>
        <path class="cls-17" d="M5209,693.53s173.55,40.14,234.53,48.75,0,728.31,0,728.31l-450.29-120.43Z" transform="translate(-4076.54 167.41)"/>
        <path class="cls-18" d="M5218.33,682.06s145.41,57.35,215.76,63.08,187.62,0,187.62,0-79.74-88.89-168.86-91.76S5218.33,682.06,5218.33,682.06Z" transform="translate(-4076.54 167.41)"/>
        <polygon class="cls-19" points="1418.54 918.29 1376.32 1795.71 1606.16 1841.58 1563.94 935.49 1418.54 918.29"/>
      </g>
      <g>
        <path class="cls-20" d="M5917.22,283.49H5635.79s-140.72,240.86-173.55,329.75-75,739.78-75,739.78h337.72s14.07-278.14,23.45-332.62,14.07-318.28,37.52-407.17S5917.22,283.49,5917.22,283.49Z" transform="translate(-4076.54 167.41)"/>
        <path class="cls-21" d="M5917.22,283.49s-140.72,283.87-159.48,424.37,0,596.41,0,596.41l211.07-51.61s-75-212.19-61-349.82,112.57-430.11,126.64-467.38S5917.22,283.49,5917.22,283.49Z" transform="translate(-4076.54 167.41)"/>
      </g>
      <g>
        <path class="cls-22" d="M6133,1086.36s-347.1,28.67-417.46,111.83-32.83,496.06-32.83,496.06l145.41,269.53h145.41s23.45-149.1,89.12-200.72-9.38-215.05,0-329.75S6133,1086.36,6133,1086.36Z" transform="translate(-4076.54 167.41)"/>
        <path class="cls-23" d="M6104.85,1725.78s-42.21-260.93-28.14-324,51.6-286.74,65.67-298.21,168.86,94.62,168.86,94.62-79.74,185.51-79.74,216.05S6269,1636.9,6269,1636.9Z" transform="translate(-4076.54 167.41)"/>
      </g>
      <g>
        <path class="cls-24" d="M6283.09,501.54s-239.22,45-267.36,76.12,51.6,1245.61,51.6,1245.61,220.46-166.08,300.19-166.08S6283.09,501.54,6283.09,501.54Z" transform="translate(-4076.54 167.41)"/>
        <path class="cls-25" d="M6391,1643.35s4.69-570.91-42.21-712.77-56.29-411.74-56.29-446.34,117.26-10.38,140.72,20.76,122,352.92,122,352.92,61,730.07,61,802.73S6391,1643.35,6391,1643.35Z" transform="translate(-4076.54 167.41)"/>
      </g>
      <g>
        <path class="cls-26" d="M6277.53,88.51,6720,108.58,6893.1,2.49s-166.72-22.94-359.08,0S6277.53,88.51,6277.53,88.51Z" transform="translate(-4076.54 167.41)"/>
        <path class="cls-27" d="M6905.93,854.1,6700.74,88.51l179.54-86s141.07,86,160.3,154.84,96.18,372.76,96.18,372.76Z" transform="translate(-4076.54 167.41)"/>
        <path class="cls-28" d="M6803.33,1149.44s128.24-324,128.24-367S6707.15,100,6707.15,100H6290.35L6578.9,1149.44Z" transform="translate(-4076.54 167.41)"/>
      </g>
      <g>
        <path class="cls-29" d="M5115.14,1258.4s-93.81-37.28-192.31-31.54-159.48,0-173.55,31.54,89.12,481.72,89.12,481.72l295.5,117.56,65.67-83.15s-79.74-169.18-79.74-246.59S5115.14,1258.4,5115.14,1258.4Z" transform="translate(-4076.54 167.41)"/>
        <path class="cls-30" d="M5105.76,1252.67s32.83,390,32.83,441.58S5162,1837.61,5162,1837.61l117.26-126.16-28.14-407.17S5190.19,1249.8,5105.76,1252.67Z" transform="translate(-4076.54 167.41)"/>
      </g>
      <g>
        <path class="cls-31" d="M6474.66,1143.78S6648,1003.91,6755.44,973.56c105.66-29.86-176.79-6.68-280.78,36.72s-135.19,133.51-135.19,133.51h104" transform="translate(-4076.54 167.41)"/>
        <path class="cls-32" d="M6474.66,1160.47s-124.79-46.73-135.19,0,67.6,644.18,67.6,644.18l228.79,70.09s-26-400.53-67.6-480.63S6474.66,1160.47,6474.66,1160.47Z" transform="translate(-4076.54 167.41)"/>
        <path class="cls-33" d="M6791.84,1951.51s228.79-250.33,228.79-283.71-228.79-674.22-228.79-674.22-291.18,30-312,123.5,145.59,380.5,140.39,460.61-5.2,270.36-5.2,270.36Z" transform="translate(-4076.54 167.41)"/>
      </g>
      <g>
        <path class="cls-34" d="M6930.38,1387.43s140.72-109,239.22-109,61-757,61-757-197,60.21-262.67,51.61-98.5,579.21-98.5,579.21S6864.71,1289.94,6930.38,1387.43Z" transform="translate(-4076.54 167.41)"/>
        <polygon class="cls-35" points="3163.41 683.16 3125.89 1428.68 3304.13 1428.68 3304.13 706.1 3163.41 683.16"/>
      </g>
      <polygon class="cls-36" points="3388.56 1282.44 3548.04 1420.08 3182.18 1420.08 3388.56 1282.44"/>
      <polygon class="cls-36" points="274.04 1420.08 11.37 1546.24 480.43 1546.24 274.04 1420.08"/>
      <path class="cls-37" d="M4078.53,1396l600.39,2041.57s84.43,28.67,206.38,0,675.44-80.29,1135.11-86,1219.54,86,1322.73,57.35S7615.2,1275.61,7615.2,1275.61s-482.47-21.71-576.28,24.17-24.11,122.07-71,216.69c-36.5,73.63-150.1,321.15-394,390-186.81,52.71-440.91,86-675.44,80.29-140.6-3.44-530-22.94-881.82-166.31-154.94-63.14-225.54-332.11-272.05-378.49-22.13-22.07,0-51.61-197-51.61S4078.53,1396,4078.53,1396Z" transform="translate(-4076.54 167.41)"/>
      <g>
        <path class="cls-38" d="M5785.51,1847.35c43.05,200.63-96.84,377.29-312.46,394.58s-425.31-131.33-468.36-332,96.84-286.53,312.46-303.82S5742.46,1646.72,5785.51,1847.35Z" transform="translate(-4076.54 167.41)"/>
        <path class="cls-38" d="M6770.59,1914.7c-50.6,200-265.84,345.6-480.75,325.28s-348.11-198.9-297.51-398.87,265.84-345.6,480.75-325.28S6821.19,1714.73,6770.59,1914.7Z" transform="translate(-4076.54 167.41)"/>
        <path class="cls-39" d="M6206.58,1838.32s56.67,43.7,117.15,16.81,22-104.2,22-104.2,99,10.08,132,70.59,35.74,119.65,0,161.34c-52.62,61.38-96.22,74.06-154,73.95-50.69-.1-137.46,1.4-159.46-87.39C6155.07,1932.25,6206.58,1838.32,6206.58,1838.32Z" transform="translate(-4076.54 167.41)"/>
        <path class="cls-39" d="M5314.76,1923.27s90.73,22.61,121-7.64,0-104.2,0-104.2,127.77,3.36,178,70.59,72.2,137.26,17.22,176.19-115.47,55.74-195.2,32.21S5314.76,1923.27,5314.76,1923.27Z" transform="translate(-4076.54 167.41)"/>
      </g>
      <g>
        <path class="cls-40" d="M4782.11,2397.27s222.65,121.4,331,213.36,439.29,408.33,818.41,415.69,655.93-158.18,710.09-224.4,251.7-283.26,331-415.69c46.88-78.32,180.53-238.33,180.53-238.33s-449.48,242-573.76,278.8-503,159.2-801.09,144-647.09-59.37-704.26-85.12S4782.11,2397.27,4782.11,2397.27Z" transform="translate(-4076.54 167.41)"/>
        <path class="cls-41" d="M4956.63,2485.56s186.55,114,186.55,128.75,514.12,110.36,852.81,84.61,850.19-213.36,850.19-213.36L6948.48,2320S6388.84,2551.77,6112,2577.52s-624.49,3.68-769.59-18.39S4956.63,2485.56,4956.63,2485.56Z" transform="translate(-4076.54 167.41)"/>
        <path class="cls-42" d="M5516.27,2842.39s309.81,156,529.56,143.47c323.42-18.39,447.59-92,509.63-143.47s34.41-80.93,34.41-80.93-225.11-22.07-297.32,0S6130.08,2805.6,6112,2835s22.72,69.9-33.77,69.9-110.65-66.22-188.88-77.25S5594.5,2827.67,5516.27,2842.39Z" transform="translate(-4076.54 167.41)"/>
      </g>
    </g>
  </g>
</svg>
