<svg xmlns="http://www.w3.org/2000/svg" xmlns:xlink="http://www.w3.org/1999/xlink" viewBox="0 0 1920 1080"><defs><style>.cls-1{fill:url(#radial-gradient);}.cls-2{fill:url(#radial-gradient-2);}.cls-3{fill:url(#linear-gradient);}.cls-4{fill:#981e21;}.cls-5{fill:url(#linear-gradient-2);}.cls-6{fill:url(#linear-gradient-3);}.cls-7{fill:url(#linear-gradient-4);}.cls-8{fill:url(#linear-gradient-5);}.cls-9{fill:none;stroke:#e3e4e3;stroke-miterlimit:10;stroke-width:17px;}</style><radialGradient id="radial-gradient" cx="1235.52" cy="480.59" r="498.76" gradientTransform="translate(0 -240.29) scale(1 1.5)" gradientUnits="userSpaceOnUse"><stop offset="0.06" stop-color="#919396"/><stop offset="0.15" stop-color="#8e9093"/><stop offset="0.43" stop-color="#8c8e90"/><stop offset="0.63" stop-color="#6a6b6d"/><stop offset="0.87" stop-color="#484849"/><stop offset="1" stop-color="#3b3b3c"/></radialGradient><radialGradient id="radial-gradient-2" cx="1218.12" cy="605.86" r="313.82" gradientTransform="translate(-49.23 112.26) scale(1.06 0.85)" gradientUnits="userSpaceOnUse"><stop offset="0.24" stop-color="#696a6d"/><stop offset="0.69" stop-color="#86888b"/><stop offset="1" stop-color="#95979a"/></radialGradient><linearGradient id="linear-gradient" x1="561.4" y1="679.37" x2="1906.07" y2="679.37" gradientUnits="userSpaceOnUse"><stop offset="0" stop-color="#ffde17"/><stop offset="0.19" stop-color="#fbdb1a"/><stop offset="0.38" stop-color="#f0d322"/><stop offset="0.55" stop-color="#ddc530"/><stop offset="0.73" stop-color="#c2b144"/><stop offset="0.9" stop-color="#a0985d"/><stop offset="0.94" stop-color="#969164"/></linearGradient><linearGradient id="linear-gradient-2" x1="49.99" y1="239.21" x2="611" y2="239.21" gradientUnits="userSpaceOnUse"><stop offset="0" stop-color="#af1a1f"/><stop offset="0.36" stop-color="#af1c21"/><stop offset="0.52" stop-color="#b02328"/><stop offset="0.63" stop-color="#b22f35"/><stop offset="0.72" stop-color="#b53f46"/><stop offset="0.8" stop-color="#b9555d"/><stop offset="0.88" stop-color="#be7079"/><stop offset="0.94" stop-color="#c3909a"/><stop offset="1" stop-color="#c9b3bf"/></linearGradient><linearGradient id="linear-gradient-3" x1="410" y1="241.39" x2="683" y2="241.39" gradientTransform="matrix(0, 0.79, -0.97, 0, 729.81, -222.47)" gradientUnits="userSpaceOnUse"><stop offset="0" stop-color="#610806"/><stop offset="0.33" stop-color="#6c0d0c" stop-opacity="0.95"/><stop offset="0.58" stop-color="#911c1e" stop-opacity="0.78"/><stop offset="0.73" stop-color="#b62c30" stop-opacity="0.6"/><stop offset="0.8" stop-color="#b5383c" stop-opacity="0.58"/><stop offset="0.87" stop-color="#b35b5f" stop-opacity="0.53"/><stop offset="0.94" stop-color="#af9699" stop-opacity="0.44"/><stop offset="0.96" stop-color="#adafb2" stop-opacity="0.4"/></linearGradient><linearGradient id="linear-gradient-4" x1="108.08" y1="67.73" x2="306.88" y2="67.73" gradientUnits="userSpaceOnUse"><stop offset="0" stop-color="#610806"/><stop offset="0.31" stop-color="#7b1313" stop-opacity="0.88"/><stop offset="0.69" stop-color="#b62c30" stop-opacity="0.6"/><stop offset="0.75" stop-color="#ba373b" stop-opacity="0.59"/><stop offset="0.81" stop-color="#c5585b" stop-opacity="0.56"/><stop offset="0.87" stop-color="#d88f91" stop-opacity="0.51"/><stop offset="0.93" stop-color="#f3dcdc" stop-opacity="0.43"/><stop offset="0.96" stop-color="#fff" stop-opacity="0.4"/></linearGradient><linearGradient id="linear-gradient-5" x1="552.79" y1="347.5" x2="724" y2="347.5" gradientUnits="userSpaceOnUse"><stop offset="0" stop-color="#acadae"/><stop offset="0.33" stop-color="#757677"/><stop offset="1" stop-color="#fff"/></linearGradient></defs><title>fryingPan</title><g id="pan-2" data-name="pan"><path class="cls-1" d="M1893.22,480.59c0,140.75-302.45,254.85-663.2,254.85s-652.2-113.1-652.2-253.85S869.26,225.73,1230,225.73,1893.22,339.84,1893.22,480.59Z"/><ellipse class="cls-2" cx="1244.04" cy="626.84" rx="446.04" ry="164.04"/><path class="cls-3" d="M582.09,438.5a.34.34,0,0,1,.62.22c-1.67,10.55-15.53,64,1.29,99.27,19,39.81,148.1,137.54,319,170,179,34,278,40,390,34s290-33,338-49,161-77.62,191-104.31S1877.59,548,1896,481c12.72-46.28,17,37.38-9,110.69S1817.89,745.5,1756,787c-116.44,78.07-243,106-351,124s-302,8-412-12S747,817,671,751,569.67,601,566.33,575C563,549.25,551.35,490.08,582.09,438.5Z"/><path class="cls-4" d="M722,319S547,186,480,149,299,54,243,42,112,13,79,13,27,9,22,22,21,68,35,84s24,36,37,38,33,5,64,11,109,28,138,39,107,50,136,80,90,103,109,115,47,36,57,39,15,6,15,6l63.37-58.94Z"/><path class="cls-5" d="M586,322s-98-66-128-87-104-74-130-85-86.1-42.63-118-53C170,84,112.3,77.63,86,77c-25-.6-34.78-4.66-36,10s86.75,45.89,98.09,48.59S267,162.48,321.52,193.93s70.38,42.53,101.48,72c23.85,22.59,60.81,71.27,78.9,87.18s66.86,49.29,66.86,49.29L611,343Z"/><ellipse class="cls-6" cx="495.53" cy="211.28" rx="30.57" ry="108.34" transform="translate(35.17 491.03) rotate(-54.38)"/><path class="cls-7" d="M306,94c7.54,11.19-34,12-93.58-6.4-57.17-17.66-106-26.79-104.29-40.17S153.15,26.73,211,42C261.57,55.35,294.44,76.84,306,94Z"/><path class="cls-8" d="M592,414s42-47,67-60,65-36,65-36l-52-37s-50,16-74,35-43,32-45,51c-1.38,13.11,4.38,24.32,8.09,30a16,16,0,0,0,6.67,5.74Z"/><path class="cls-9" d="M1899.11,480.59c0,140.75-298,254.85-665.59,254.85S567.93,624,567.93,480.59c0-140.75,298-254.85,665.59-254.85S1899.11,339.84,1899.11,480.59Z"/></g></svg>