<svg xmlns="http://www.w3.org/2000/svg" viewBox="0 0 4731.06 4825.19">
  <defs>
    <style>
      .cls-1 {
        fill: #34180f;
      }

      .cls-2 {
        fill: #c56d29;
      }

      .cls-3 {
        fill: #783f1b;
      }

      .cls-3, .cls-9 {
        stroke: #070808;
      }

      .cls-10, .cls-11, .cls-12, .cls-13, .cls-19, .cls-3, .cls-4, .cls-5, .cls-6, .cls-7, .cls-8, .cls-9 {
        stroke-miterlimit: 10;
      }

      .cls-10, .cls-11, .cls-3, .cls-4 {
        stroke-width: 4px;
      }

      .cls-4 {
        fill: #fbbb2d;
      }

      .cls-10, .cls-11, .cls-12, .cls-13, .cls-19, .cls-4 {
        stroke: #020202;
      }

      .cls-5 {
        fill: #7f5c9a;
      }

      .cls-5, .cls-7, .cls-8 {
        stroke: #8f3f98;
      }

      .cls-12, .cls-13, .cls-5, .cls-6, .cls-7, .cls-8, .cls-9 {
        stroke-width: 3px;
      }

      .cls-6 {
        fill: #907ab8;
        stroke: #903e97;
      }

      .cls-7 {
        fill: #b0a1ce;
      }

      .cls-8 {
        fill: #ba8bbe;
      }

      .cls-12, .cls-9 {
        fill: #54b948;
      }

      .cls-10 {
        fill: #f9a132;
      }

      .cls-11 {
        fill: #e58825;
      }

      .cls-13 {
        fill: #fff;
      }

      .cls-14 {
        fill: #020202;
      }

      .cls-15 {
        fill: #241d1f;
      }

      .cls-16 {
        fill: #efedee;
      }

      .cls-17 {
        fill: #ea1e30;
      }

      .cls-18 {
        fill: #f3818e;
      }

      .cls-19 {
        fill: none;
        stroke-width: 5px;
      }

      .cls-20 {
        fill: #feede3;
      }
    </style>
  </defs>
  <title>hamburgar</title>
  <g id="hamburgar">
    <g>
      <g>
        <polygon class="cls-1" points="4095.17 2759.94 3726.07 3068.14 3020.68 3236.25 2889.45 2998.1 3726.07 2535.79 4029.55 2535.79 4095.17 2759.94"/>
        <polygon class="cls-2" points="512.1 3307.37 445.19 3637.85 1125.98 4300.95 3570.23 4254.25 4141.65 3804.16 3988.54 3307.37 512.1 3307.37"/>
        <polygon class="cls-1" points="674.86 2554.47 642.05 2834.66 2044.62 3361.52 2228.93 3086.82 674.86 2554.47"/>
        <path class="cls-3" d="M3151.92,813.18S2979.67,1028,3037.09,1270.82,3088.65,1551,3088.65,1551l785.07,364.24,2616.5-65.38,278.87-308.2s49.21-429.62,0-495-254.27,205.47-360.9,214.81-188.65,168.11-319.89,158.77-155.84-112.07-205.05-102.73-393.71,46.7-393.71,46.7L4587.3,1495s-598.76-168.11-795.61-252.17S3233.94,962.61,3151.92,813.18Z" transform="translate(-2649.31 1722.61)"/>
        <path class="cls-4" d="M3488.21,327.53,2807.43,859.88s828.42,158.77,1000.67,233.49,844.83,308.2,1025.27,429.62,213.26,149.43,328.09,74.72,467.52-326.88,844.83-457.63c245.36-85,587.2-209.45,803.26-246,202.36-34.21,253.91-108.91,187.93-158.25-40.87-30.56-246.65-90.4-294-118.78C6547.63,523.66,3488.21,327.53,3488.21,327.53Z" transform="translate(-2649.31 1722.61)"/>
        <path class="cls-5" d="M6141.62,639c0,144.43-355.27,417-1021.17,417-910.44,0-1252-162.55-1279.54-303.53-98.43-504.33,572.63-294.19,1238.53-294.19S6141.62,336.87,6141.62,639Z" transform="translate(-2649.31 1722.61)"/>
        <path class="cls-6" d="M5981.76,636.92c0,114.48-306.11,330.54-879.86,330.54-784.45,0-1078.76-128.85-1102.47-240.61-84.81-399.78,493.39-233.2,1067.14-233.2S5981.76,397.4,5981.76,636.92Z" transform="translate(-2649.31 1722.61)"/>
        <path class="cls-7" d="M5752.37,654.53c0,88.1-235.56,254.36-677.08,254.36-603.66,0-830.14-99.15-848.39-185.15-65.26-307.64,379.68-179.46,821.19-179.46S5752.37,470.22,5752.37,654.53Z" transform="translate(-2649.31 1722.61)"/>
        <path class="cls-8" d="M5538.76,685.93c0,53.78-177.18,155.27-509.27,155.27-454.05,0-624.4-60.53-638.13-113-49.09-187.8,285.58-109.55,617.67-109.55S5538.76,573.41,5538.76,685.93Z" transform="translate(-2649.31 1722.61)"/>
        <path class="cls-9" d="M3143.72,234.14s-106.63,130.75-180.45,112.07S2733.61,215.46,2684.4,234.14s-49.21,158.77,32.81,214.81,246.07,65.38,287.08,46.7,73.82-93.39,139.44-46.7,98.43,224.15,147.64,242.83,196.85-37.36,237.86-84.06,98.43-56,147.64-56,205.05-26.42,221.46-87.93,410.11,0,410.11,0,65.62,3.87,65.62,78.59-123,128.79-73.82,153.12,221.46-61.69,254.27,0,106.63,136.41,172.25,136.41,262.47-140.09,328.09-177.45,180.45-46.7,229.66-37.36,131.24,149.43,196.85,149.43,336.29-130.75,401.91-196.13,196.85-86.15,246.07-38.4,0,206.51,98.43,225.19,336.29-46.7,426.51-140.09S6826.5,477,6826.5,477s188.65,82,254.27,55,196.85-120.37,221.46-185.74,131.24-177.45,41-158.77S7212,262.15,7212,262.15s-41-125.56-98.43-76.79-106.63,198.2-106.63,198.2-41-213.44-123-209.45-180.45-.06-180.45-.06Z" transform="translate(-2649.31 1722.61)"/>
        <path class="cls-10" d="M4169-1334.89s-557.75,84.06-844.83,429.62c-231.37,278.51-401.91,495-369.1,728.48S3069.9,308.85,3357,355.55,5120.45,551.68,5309.1,514.32,6482,364.89,6662.46,243.48s295.28-410.94,287.08-579-270.67-579-459.32-709.8-492.13-233.49-664.38-289.52-607-121.41-824.32-121.41C4595.51-1456.31,4169-1334.89,4169-1334.89Z" transform="translate(-2649.31 1722.61)"/>
        <path class="cls-11" d="M3094.51,1803.17s-180.45,345.56,139.44,672.44S4292,2989.28,4292,2989.28s623.37,219.48,1361.56,42,951.45-266.17,1033.48-453,221.46-523,147.64-653.76-155.84-186.79-155.84-186.79,110.73,303.53-102.53,443.62S5243.48,2395.7,4661.12,2403s-1205.72-198.2-1369.77-338.3S3094.51,1803.17,3094.51,1803.17Z" transform="translate(-2649.31 1722.61)"/>
        <path class="cls-12" d="M3094.51,1551l-147.64-93.39s-188.65,46.7-254.27,46.7,8.2,233.49,98.43,242.83,147.64-37.36,303.48,0,328.09,140.09,401.91,205.47,319.89,28,385.5,0,123-20.74,221.46,36.33,180.45,150.46,270.67,150.46,147.64-84.06,295.28-74.72,369.1,214.81,459.32,186.79,229.66-186.79,393.71-168.11,237.86,121.41,336.29,121.41,164-149.43,262.47-168.11,213.26,65.38,295.28,9.34,114.83-168.11,213.26-242.83,155.84-112.07,229.66-112.07S7089,1551,7089,1457.61s-24.61-205.47-106.63-149.43S6851.11,1438.93,6728.08,1495,6277,1845.19,6145.72,1882.55s-270.67,51.37-393.71-42-336.29-65.38-483.93,18.68-336.29,102.73-442.92,18.68S4374,1663.07,4226.41,1709.77s-73.82,186.79-221.46,149.43-123-152.49-237.86-85.59-188.65-7.81-237.86-110.54-155.84-261.5-246.07-224.15S3094.51,1551,3094.51,1551Z" transform="translate(-2649.31 1722.61)"/>
        <ellipse class="cls-13" cx="1933.89" cy="616.53" rx="365" ry="555.7"/>
        <path class="cls-13" d="M5827.7-1057.47c-76.36,294.33-295,480.22-488.3,415.2s-288.15-356.34-211.79-650.67,295-480.22,488.3-415.2S5904.06-1351.8,5827.7-1057.47Z" transform="translate(-2649.31 1722.61)"/>
        <path class="cls-14" d="M4505.28-1260.18s82,79.39,123,42S4657-1404.94,4657-1404.94s102.53,28.67,123,98.39,28.71,251.84,0,307.87-61.52,116.74-147.64,102.73S4525.79-1008,4505.28-1064,4505.28-1260.18,4505.28-1260.18Z" transform="translate(-2649.31 1722.61)"/>
        <path class="cls-14" d="M5321.4-1269.52s-32.81,56-32.81,163.44,16.4,212.18,90.22,233.49c43.73,12.62,136.74-29.62,192.75-93.39,77.92-88.72,73.82-186.79,49.21-261.5s-96.84-153.1-123-177.45c-35.16-32.69-20.09,79.92-20.09,140.09,0,89.64-37.33,84.06-66,84.06S5321.4-1269.52,5321.4-1269.52Z" transform="translate(-2649.31 1722.61)"/>
        <path class="cls-15" d="M3939.33-429S4333,299.51,4583.2,392.91,5022,561,5288.59,523.66s594.66-401.11,619.27-471.4S6039.09-429,6039.09-550.38,5801.23-279.53,5235.28-92.75,3939.33-429,3939.33-429Z" transform="translate(-2649.31 1722.61)"/>
        <path class="cls-16" d="M4029.55-326.23l135.34,205.47s401.91,233.49,705.39,238.16,598.76,0,816.12-182.12,291.18-289.52,291.18-289.52l16.4-154.1S5665.3-215.77,5419.83-111.42C5112.24,19.33,4847-5,4647.4-64.73,4382.25-144.11,4029.55-326.23,4029.55-326.23Z" transform="translate(-2649.31 1722.61)"/>
        <path class="cls-17" d="M4583.2,322.86S4981,547,5169.66,519s380.18-74.72,466.91-168.11,86.73-126.08,86.73-126.08-168.14-46.7-283-28-254.27,102.73-254.27,102.73,110.73,74.72,73.82,102.73-118.93,51.37-143.54-14-123-154.1-246.07-140.09S4583.2,322.86,4583.2,322.86Z" transform="translate(-2649.31 1722.61)"/>
        <ellipse class="cls-18" cx="2251.73" cy="2054.81" rx="137.39" ry="51.37"/>
        <path class="cls-18" d="M5609.08,233.52c-10.65-34-84.87-34.95-165.78-2.1s-137.87,87-127.22,121.06,84.87,34.95,165.78,2.1S5619.73,267.53,5609.08,233.52Z" transform="translate(-2649.31 1722.61)"/>
        <path class="cls-19" d="M3808.1-306.92S3955.74-377,3955.74-447V-629.13" transform="translate(-2649.31 1722.61)"/>
        <path class="cls-19" d="M6006.94-734.46s-12.3,252.17,159.94,315.21" transform="translate(-2649.31 1722.61)"/>
      </g>
      <path class="cls-20" d="M3313.61-124c-27.37,78-47.52,57.26-76.71,44s-56.35-14-29-92.05S3292.16-334,3321.35-320.7,3341-202,3313.61-124Z" transform="translate(-2649.31 1722.61)"/>
      <path class="cls-20" d="M3754.82-542.06c-44.61,66.92-59.18,40.8-84.22,19.17s-51-30.59-6.43-97.51,119-130.56,144-108.92S3799.43-609,3754.82-542.06Z" transform="translate(-2649.31 1722.61)"/>
      <path class="cls-20" d="M4067.09-16.88c.34,84-25.18,73.38-56.61,73.54s-56.86,11.07-57.2-72.95,24.73-186.06,56.15-186.22S4066.76-100.89,4067.09-16.88Z" transform="translate(-2649.31 1722.61)"/>
      <path class="cls-20" d="M4717.83-328.56c8,83.51-18.31,76-49.55,79.87s-55.53,17.77-63.58-65.74,7.52-188,38.75-191.88S4709.78-412.08,4717.83-328.56Z" transform="translate(-2649.31 1722.61)"/>
      <path class="cls-20" d="M6659.36-373.2c42.74,68.49,16.49,76.51-9.13,97.24s-40.91,46.31-83.64-22.18-73.81-168.36-48.2-189.09S6616.62-441.68,6659.36-373.2Z" transform="translate(-2649.31 1722.61)"/>
      <path class="cls-20" d="M6362.75,60.6c7,83.64-19.3,75.65-50.58,79s-55.76,16.83-62.71-66.81,10-187.83,41.25-191.21S6355.79-23,6362.75,60.6Z" transform="translate(-2649.31 1722.61)"/>
      <path class="cls-20" d="M6302.16-783.17c14.33,82.41-12.5,77.48-43.32,84.43s-54,23.15-68.31-59.26-6.73-188,24.1-195S6287.82-865.58,6302.16-783.17Z" transform="translate(-2649.31 1722.61)"/>
      <path class="cls-20" d="M5700.37-500.08c42.74,68.49,16.49,76.51-9.13,97.24s-40.91,46.31-83.64-22.18-73.81-168.36-48.2-189.09S5657.63-568.57,5700.37-500.08Z" transform="translate(-2649.31 1722.61)"/>
    </g>
  </g>
</svg>
