<svg xmlns="http://www.w3.org/2000/svg" viewBox="0 0 1136.35 1058.74"><defs><style>.cls-1{fill:#dade57;}.cls-1,.cls-5{stroke:#38471f;}.cls-1,.cls-17,.cls-3,.cls-4,.cls-5,.cls-9{stroke-miterlimit:10;}.cls-1,.cls-5,.cls-9{stroke-width:3px;}.cls-2{fill:#232323;}.cls-3{fill:#dfdfde;}.cls-3,.cls-4{stroke:#737371;}.cls-17,.cls-3,.cls-4{stroke-width:2px;}.cls-4{fill:#e6e6e5;}.cls-5,.cls-9{fill:none;}.cls-6{fill:#12133d;}.cls-7{fill:#7472a4;}.cls-8{fill:#8784b2;}.cls-9{stroke:#12133d;}.cls-10{fill:#7f8233;}.cls-11{fill:#aabf38;}.cls-12{fill:#303e1d;}.cls-13{fill:#acb937;}.cls-14{fill:#eaed95;}.cls-15{fill:#aea834;}.cls-16{fill:#f7ec1f;}.cls-17{fill:#bbc645;stroke:#26341a;}.cls-18{fill:#26341a;}.cls-19{font-size:180px;fill:#ec1e37;font-family:Avenir-Black, Avenir;}.cls-20{letter-spacing:-0.09em;}.cls-21{letter-spacing:-0.02em;}</style></defs><title>pickle</title><g id="pickle"><path class="cls-1" d="M605.33,393.33s-68.91-10.34-96.18,7.38-66.64,63.49-76.49,85.64S412.22,563.13,409.19,572,391,589.71,388,598.56s0,29.53,0,29.53-22.72,34-22.72,51.68,9.09,82.68,9.09,82.68l-9.09,118.12s3,84.16,27.26,116.64,74.21,66.44,115.11,75.3,136.31,3,156-11.81,59.07-50.2,62.1-66.44,9.09-70.87,7.57-84.16-24.23-48.72-24.23-54.63-25.75-22.15-30.29-26.58-6.06-36.91-6.06-42.82-6.06-16.24-6.06-16.24-80.27-7.38-95.42-7.38H536.41c3.39-2.6-26.87,8.5-28,7.38-4.54-4.43-18.93-127-18.93-127S550,684.2,586.39,684.2h83.3l-31.81-32.48s1.51-19.19,7.57-28.05,39.38-78.25,43.92-103.35,24.23-75.3-12.12-96A375.83,375.83,0,0,0,605.33,393.33Z" transform="translate(-51.43 -19.6)"/><path class="cls-2" d="M489.46,645.81l15.15,128.46s21.2-10.34,30.29-11.81,83.3,5.17,83.3,5.17l-12.87-84.9s-34.08,5.91-51.5-3S489.46,645.81,489.46,645.81Z" transform="translate(-51.43 -19.6)"/><path class="cls-3" d="M489.46,645.81,497,697.49S583.36,725.54,605.33,727s58.31,0,58.31,0L653,689a87.17,87.17,0,0,0-37.11-2.21c-19.69,3.36-49.22-2.54-68.91-9.93S489.46,645.81,489.46,645.81Z" transform="translate(-51.43 -19.6)"/><path class="cls-4" d="M500.06,727.68l4.54,46.59s14.7-11.93,30.29-11.81c23.85.18,103,7.38,103,7.38L647,727.68Z" transform="translate(-51.43 -19.6)"/><path class="cls-1" d="M605.33,631.42s-11.74-22.15-21.2-12.18-9.84,28.79,0,32.11,27.26-1.11,40.14,0S678,668,690.52,670.17s29.53,0,34.08-8.86,13.63-25.47,0-27.68-35.21,2.21-37.49,5.54-26.93,4.43-32.77,0-19.48-16.23-21.75-22.51-3.41-62.76-3.41-62.76" transform="translate(-51.43 -19.6)"/><path class="cls-5" d="M666.67,682.36s-38.62-5.54-47.71,0-36.35,3.32-47.71,0-59.07-21-63.61-25.47-20.45-17.72-20.45-17.72l21.2,130.67s14-3.69,22-7.38,40.52,7.38,53.77,6.28,59.83.08,59.83.08" transform="translate(-51.43 -19.6)"/><path class="cls-6" d="M536,496.32s-22.72,24.36-23.85,39.87,14,43.19,34.84,52,38.24,14.4,50,0,20.83-48.72,20.83-48.72l6.44-28.79Z" transform="translate(-51.43 -19.6)"/><path class="cls-6" d="M643.95,518.46l-12.5,28.23,2.27,61.47h31.81s18.17-26.58,18.17-37.65V534Z" transform="translate(-51.43 -19.6)"/><path class="cls-7" d="M536,496.32s-1.89,33.2,11,50.38,55.77,32.6,55.77,32.6l21.47-68.58Z" transform="translate(-51.43 -19.6)"/><path class="cls-8" d="M631.45,546.15s6.82,36.54,17,42.08S675,592.85,675,592.85l8.73-22.34V534l-39.76-15.5Z" transform="translate(-51.43 -19.6)"/><path class="cls-9" d="M456.14,546.69s-12.87-23.8-6.82-28.23,81-22.15,81-22.15l93.9,14.4L683.71,534" transform="translate(-51.43 -19.6)"/><path class="cls-10" d="M426.86,886.06l-3.1,8.83a3.77,3.77,0,0,1-4.74,2.27l-25.18-8.4a3.63,3.63,0,0,1-2.32-4.62l3.1-8.83a3.77,3.77,0,0,1,4.74-2.27l25.18,8.4A3.63,3.63,0,0,1,426.86,886.06Z" transform="translate(-51.43 -19.6)"/><path class="cls-11" d="M572.33,390.3s-84.82,10.34-109,56.11-43.92,107.78-47,118.12-28.78,26.58-25.75,39.87S398.16,631,398.16,631,370.9,673.78,375.44,690s-.51,81.21-.51,81.21l9.6,98.19s-13.14,52.42-9.6,67.18,42.92,93,64.88,106.31,84.06,35.44,84.06,35.44,4.54-16.24-21.2-36.91-29.34-50.2-29.34-50.2l-47.91-32.48s-12.12-88.59-9.09-89.33,13.63-163.15,23.48-206,10.24-106.31,33.52-122.55,49-20.67,43-39.87-3-53.15,1.51-65S572.33,390.3,572.33,390.3Z" transform="translate(-51.43 -19.6)"/><path class="cls-12" d="M512.59,596.32c-2.58-6.26-9.41-9-15.42-11.28-4.1-1.54-5.87,4.88-1.81,6.41,3.4,1.28,7.45,2.69,9.82,5.56,1.81,2.19,2.61,6.24-.25,8-3.73,2.23-.31,8,3.44,5.74C513.44,607.66,514.74,601.54,512.59,596.32Z" transform="translate(-51.43 -19.6)"/><path class="cls-12" d="M470.6,672.37c-2.71-11.33-3.95-22.71-4.85-34.3-.33-4.24-7.15-4.27-6.82,0,.81,10.34,1.66,20.71,3.86,30.87,2.81,13,4.83,23.34,1.18,36.61-4.28,15.57-10.13,31.68-.5,46.51,2.34,3.6,8.24.27,5.89-3.35-11.15-17.18,1.91-36.09,3.75-53.88C473.91,687.07,472.4,679.9,470.6,672.37Z" transform="translate(-51.43 -19.6)"/><path class="cls-12" d="M462.55,576.75c2.54-3.49-3.36-6.82-5.89-3.35-12.56,17.25-28.5,40-31.56,61.52a21.15,21.15,0,0,0,.72,10.53c1.44,3.78,5.07,5.44,6.85,8.71l1.33,8.06a8.05,8.05,0,0,0-2.47,2.16c-.55,1.4-1.32,2-1.7,3.81-1.29,6.23,7.91,19-7.77,19.83-2.83.15-4.65,3.59-2.41,5.67,4.49,4.16,13.69,9.87,16.39,15.21q3.08,1.62.44,4.68.18,5.07-4.64,3.1c-2,.73-5.57.47-7.76,1.1-3,.86-3.49,5.85,0,6.41l.86,13.66c-4.25,1-2.45,7.45,1.81,6.41,11.25-2.75,14.23-14,8.93-21,5.54-.36,10.9-1.51,11.7-7.73,1-7.84-10.42-16.59-18.1-22.63a14.53,14.53,0,0,0,8.86-11.19c.34-2.26-.35-3.73-.36-5.8a11.77,11.77,0,0,1,1-9l2.19-1.84c1.54-3.29,2.56-5.45,1.29-9.12-1.81-5.23-6.86-7.86-9-13-3.54-8.71,1.7-17.88,5.42-26A235.13,235.13,0,0,1,462.55,576.75Z" transform="translate(-51.43 -19.6)"/><path class="cls-12" d="M435.1,859.3c-1.09-8.52-2.45-17.73-10-23.17a17,17,0,0,0-7.43-3.1c-.15,0-1.1,0-2.33.12a12.08,12.08,0,0,0,1.55-10.22,14.28,14.28,0,0,0-5.75-7.71c-6.25-4.3-10.6-1.31-8.13-11.18l5.42-21.64c1.57-6.26,5-13.71,3.61-20.24-.81-3.87-3.27-6.1-6.21-8.68-4.3-3.79-4.49-2.69-5-9.81-.56-8.41,3.37-11.17,9.58-16.22a2.71,2.71,0,0,0,.41-4.06,3.29,3.29,0,0,0-6.33.27c-6.55,5.42-13.39,12.18-12.6,21.25a14.79,14.79,0,0,0,3.62,8.54c1.55,1.88,3.94,2.93,5.48,4.73,3.86,4.5,3.61,8.86,2.81,14.59-1.72,12.34-9.19,25.23-9.27,37.69,0,2.65.31,4.33,2.22,6.22a7.81,7.81,0,0,0,2.43,1.66l2.62.68q9.93.17,2.34,14.49a3.34,3.34,0,0,0-2,4.88c1.53,2.43,2.78,3.11,5.85,3,4.91-.1,3.48-1.5,9.57,0,9,2.24,9.77,9.86,10.79,17.86C428.82,863.48,435.65,863.54,435.1,859.3Z" transform="translate(-51.43 -19.6)"/><path class="cls-12" d="M538.79,953.68c-19.49-33.79-46.71-70.23-44.64-110.75.22-4.27-6.6-4.26-6.82,0C485.2,884.77,512.8,922.18,532.9,957,535.05,960.76,540.94,957.42,538.79,953.68Z" transform="translate(-51.43 -19.6)"/><path class="cls-12" d="M573.08,865.56a17.43,17.43,0,0,0-6.28-4.85c-1.36-.59-5.8-.78-6.68-2.43-1.27-2.4,3.51-6-.14-9.78-1.47-1.51-3.38-1.23-5-2.18-3.81-2.2-2.6-3.58-4.42-6.77a27.53,27.53,0,0,0-2.85-3.62c-4.88-6.05-3.55-5.58-4.78-11.92-1.35-7-5.84-6.18-10.44-10.24-7.77-6.84,2.47-33.95-17.36-28.78-4.23,1.1-2.44,7.51,1.81,6.41,6.29-1.64,4.62,18.91,6.51,22.56,2.51,4.86,7.68,5.56,10.62,10s.71,10.19,4.38,14.55c2.75,3.27,3.76,3.22,6.1,7.5,1.54,2.82,2,3.68,4.66,5.63s3.79-.43,5.06,3.32c.28.83-1.58,2.58-1.45,3.78.36,3.26.44,4.09,3.24,6.23,1.42,1.09,7.34,3.09,8.44,3.75,7.7,4.62,7.44,11,7.53,19.35,0,4.27,6.86,4.28,6.82,0C578.73,880.2,578.48,871.88,573.08,865.56Z" transform="translate(-51.43 -19.6)"/><path class="cls-12" d="M622.84,856.71c-4.36-2-7-1.19-9.71-4.93-1.91-2.59-1.77-5-5.09-7s-7.54-2.07-11.31-2c-7.08.18-12.6-1.24-12.15-11,.18-4,2-8.4,2.87-12.26,1-4.16-5.6-5.94-6.57-1.77-1.74,7.46-7.3,19.64-2.46,26.93,4.22,6.35,11.8,4.8,18.31,4.77,1.85,0,4.87-.45,6.49.52,8,4.75.55,4.33,3.87,8.2a10.93,10.93,0,0,0,4,3.06c1.17.63,2.55-.07,3.73.3,8.17,2.54,10.55,4.71,13.86,11.24,4.86,9.6,2,14.61-9.4,17.13-4.28.94-2.47,7.35,1.81,6.41,7.57-1.67,18.37-5.14,18.06-14.19S631.21,860.64,622.84,856.71Z" transform="translate(-51.43 -19.6)"/><path class="cls-12" d="M693.51,876.75c1.76-13.51.82-26.93-13.13-33.51-14.68-6.92-32.45-1-45.87-11.11-3.47-2.61-6.87,3.16-3.44,5.74,8.84,6.64,19.19,7.05,29.9,8,6.21.52,13.11,1.16,18.55,4.47,9.05,5.5,8.48,16.22,7.32,25.33a21.85,21.85,0,0,0-6,1.22c-4.11,1.42-2.34,7.84,1.81,6.41,20.19-7,16.83,29.2,7.63,36.9-3.33,2.79,1.51,7.47,4.82,4.7C707,914.88,708.07,883.28,693.51,876.75Z" transform="translate(-51.43 -19.6)"/><path class="cls-12" d="M693.89,957c0-4.27-6.83-4.28-6.82,0q0,15.39.1,30.78c0,8.6,2.1,21.52-6.5,26.93-3.67,2.31-.26,8.07,3.44,5.74,6.78-4.27,9-10.81,9.72-18.44C695.13,987.19,693.93,971.84,693.89,957Z" transform="translate(-51.43 -19.6)"/><path class="cls-12" d="M670,986.05c-2.86-7.66-9.34-10.37-15.6-15-3.5-2.58-6.9,3.19-3.44,5.74,5.19,3.82,11.11,6.1,13,12.74,1.62,5.55.77,11.69-.08,17.3-.63,4.18,5.94,6,6.57,1.77C671.59,1001.22,672.67,993.26,670,986.05Z" transform="translate(-51.43 -19.6)"/><path class="cls-12" d="M644.68,1017.78c-2.3-16.76-14.41-24.41-30.37-26.8-4.68-.7-5-1.82-8.51-5a17.78,17.78,0,0,0-7.37-3.84c-4-1.08-8.14-.87-12.21-.45-9.39,1-16.16-3.06-17.58-12.33-.64-4.21-7.21-2.42-6.57,1.77.95,6.2,2.87,12.8,8.78,16.17,6.72,3.83,13.87.43,21,.65,8.48.25,9.77,8,16.37,9.91,5.34,1.56,10.89-.58,16.42,2.18,7.18,3.58,12.09,9.83,13.18,17.72C638.43,1022,645.26,1022,644.68,1017.78Z" transform="translate(-51.43 -19.6)"/><path class="cls-12" d="M440.18,964.85c-9-4.73-3.69-9-7.78-14.57-1.13-1.53-2.2-1.56-3.42-2.51-4.19-3.29-8.47-6.1-9.24-11.94-1.5-11.3,3.21-17.5-8.24-23.28-3.42-1.73-2.53.58-2.88-2.25-.09-.76,1.56-2.88,1.58-3.92.06-2.71-1.6-4.55-3.76-5.94-6.86-4.44-15-1.26-16.64-11.69-1-6.29,1.83-11.52.6-17.86-.81-4.2-7.38-2.42-6.57,1.77,1.32,6.78-3.92,12.87-1.76,19.71,1.37,4.32,5,7.57,8.91,9.75,2.08,1.16,7.71,1.81,9.08,3.14,4.31,4.22.45,1.67.5,5s-.78,5.14,2.51,7.34c1.75,1.18,3.88.34,5.49,1.28,7.81,4.56,4.24,12,4.37,18.32.09,4.43,1,9,4.24,12.32,1.38,1.43,3,2,4.62,3.11,3.1,2.21,4.24,2.92,5.7,6.49,2.2,5.36,3.78,8.6,9.25,11.48C440.6,972.62,444,966.89,440.18,964.85Z" transform="translate(-51.43 -19.6)"/><path class="cls-12" d="M639.56,1049c-27.4-.19-69.82,26-90.2-2.1-2.51-3.46-8.43-.15-5.89,3.35,23.39,32.19,65.32,5.18,96.09,5.39C643.94,1055.71,643.95,1049.06,639.56,1049Z" transform="translate(-51.43 -19.6)"/><path class="cls-12" d="M546.19,401.85c-17.34,2.22-29,14.39-35.33,29.75-3.41,8.27-7.39,18.55-7.3,27.54,0,3.54,1.61,5.58,2.47,8.79,4.3,16.15-11.47,14.91-20.84,12.3-3.6-1-6.23,4.5-2.63,6.07,12.91,5.65,19.08,19.1,14.54,32.22-1.41,4.06,5.17,5.8,6.57,1.77A31.6,31.6,0,0,0,497,488.44c9.9-.07,19.59-3.51,18.32-15.29-.53-4.92-3.42-8.54-3.86-13.66-.57-6.71,1.31-12.86,3.43-19.25,4.88-14.68,14.15-29.54,31.27-31.74C550.48,407.95,550.53,401.3,546.19,401.85Z" transform="translate(-51.43 -19.6)"/><path class="cls-12" d="M615.44,502c-4.68-5.09-7-10.54-9.44-16.83-1.54-4-3.64-7.9-7.63-10a14.36,14.36,0,0,0-19.11,6.46c-1.79,3.87,4.08,7.25,5.89,3.35a7.63,7.63,0,0,1,8.69-4.46c4,1,5.28,5.52,6.44,8.79a49.75,49.75,0,0,0,10.35,17.39C613.55,509.85,618.36,505.14,615.44,502Z" transform="translate(-51.43 -19.6)"/><path class="cls-12" d="M650.27,434.1c-1-4.16-7.6-2.4-6.57,1.77,2.86,11.64,1,26.46.1,38.4-.87,11.06-9.12,17.64-12.2,27.81-1.24,4.11,5.33,5.86,6.57,1.77,3.33-11,11.48-17.54,12.45-29.58C651.64,461.58,653.33,446.54,650.27,434.1Z" transform="translate(-51.43 -19.6)"/><path class="cls-12" d="M473.81,991.68l-3.1,8.83a3.77,3.77,0,0,1-4.74,2.27l-25.18-8.4a3.63,3.63,0,0,1-2.32-4.62l3.1-8.83a3.77,3.77,0,0,1,4.74-2.27l25.18,8.4A3.63,3.63,0,0,1,473.81,991.68Z" transform="translate(-51.43 -19.6)"/><path class="cls-13" d="M671.08,1016.77l5.88,7.36a3.59,3.59,0,0,1-.65,5.11l-21,15.95a3.81,3.81,0,0,1-5.24-.63l-5.88-7.36a3.59,3.59,0,0,1,.65-5.11l21-15.95A3.81,3.81,0,0,1,671.08,1016.77Z" transform="translate(-51.43 -19.6)"/><path class="cls-10" d="M610.52,1023l-3.1,8.83a3.77,3.77,0,0,1-4.74,2.27l-25.18-8.4a3.63,3.63,0,0,1-2.32-4.62l3.1-8.83A3.77,3.77,0,0,1,583,1010l25.18,8.4A3.63,3.63,0,0,1,610.52,1023Z" transform="translate(-51.43 -19.6)"/><path class="cls-14" d="M530.32,633.2l8.49-4.32a3.79,3.79,0,0,1,5,1.54l5.93,11.08a3.6,3.6,0,0,1-1.58,4.91l-8.49,4.32a3.79,3.79,0,0,1-5-1.54l-5.93-11.08A3.6,3.6,0,0,1,530.32,633.2Z" transform="translate(-51.43 -19.6)"/><path class="cls-15" d="M436.43,552.72l8.49-4.32a3.79,3.79,0,0,1,5,1.54L455.89,561a3.6,3.6,0,0,1-1.58,4.91l-8.49,4.32a3.79,3.79,0,0,1-5-1.54l-5.93-11.08A3.6,3.6,0,0,1,436.43,552.72Z" transform="translate(-51.43 -19.6)"/><path class="cls-16" d="M562.31,419.69l8.49-4.32a3.79,3.79,0,0,1,5,1.54L581.77,428a3.6,3.6,0,0,1-1.58,4.91l-8.49,4.32a3.79,3.79,0,0,1-5-1.54l-5.93-11.08A3.6,3.6,0,0,1,562.31,419.69Z" transform="translate(-51.43 -19.6)"/><path class="cls-17" d="M379.65,711.52s-51.5,26.58-59.83,30.27S287.26,747,285,753.6s-7.57,21.41,0,27.32,54.52,36.17,54.52,36.17-9.84,4.43-14.39,13.29-10.6,7.38-13.63,7.38-14.39,3.69-12.87,10.34,15.9,36.17,22.72,40.6,45.44-3.69,53-8.86,24.23-20.67,24.23-25.84-4.54-31.74-12.12-41.34-9.84-17.72-21.2-16.24-15.9,4.33-15.9,4.33S307,773.53,307,769.84s75.73-44.29,75.73-44.29" transform="translate(-51.43 -19.6)"/><path class="cls-18" d="M346,814.06c-5.55,3.55-12.64,2.33-18.25,6.23a21.17,21.17,0,0,0-8.53,12.39,33.53,33.53,0,0,0-.89,9.64c-2.89-1.77-6.68,2.41-4,5.34s5.25,6.12,7.64,9.34a33.11,33.11,0,0,0,6.63,9.62c2.7,2.67,7.38-.77,5.35-4-1.87-3-3.85-5.88-5.92-8.71-3.28-7.22-4.28-16.22-1-22.57,4.86-9.41,14.8-6.62,22.45-11.51C353.07,817.46,349.66,811.7,346,814.06Z" transform="translate(-51.43 -19.6)"/><path class="cls-18" d="M358.83,868.93a8,8,0,0,0-1.45-4c-.5-.7-2.81-2.17-2.85-2.78-.28-4.25-7.09-4.28-6.82,0a6.65,6.65,0,0,0,1.17,3.68c.89,1.25,2.7,2.14,3.19,3.62s0,4.24,0,5.94q0,4.06-.07,8.13c0,4.28,6.78,4.28,6.82,0C358.83,878.75,359.39,873.66,358.83,868.93Z" transform="translate(-51.43 -19.6)"/><path class="cls-18" d="M376.22,837.9c-3.16-3-8,1.72-4.82,4.7,7.66,7.2,7.8,18,7.8,27.71,0,4.28,6.82,4.28,6.82,0C386,858.76,385.26,846.39,376.22,837.9Z" transform="translate(-51.43 -19.6)"/><text class="cls-19" transform="translate(3.69 153.72) scale(1.03 1)"><tspan class="cls-20">Y</tspan><tspan x="100.08" y="0">ou’</tspan><tspan class="cls-21" x="366.47" y="0">r</tspan><tspan x="436.5" y="0">e kind </tspan><tspan x="0" y="169">of a Big Dill!</tspan></text></g></svg>