<svg xmlns="http://www.w3.org/2000/svg" xmlns:xlink="http://www.w3.org/1999/xlink" viewBox="0 0 16135.99 5523.34"><defs><style>.cls-1{fill:#8cba4d;stroke:#50672e;stroke-width:39px;}.cls-1,.cls-10,.cls-11,.cls-12,.cls-13,.cls-15,.cls-16,.cls-18,.cls-19,.cls-20,.cls-21,.cls-22,.cls-24,.cls-25,.cls-26,.cls-27,.cls-31,.cls-35,.cls-37,.cls-4,.cls-41,.cls-42,.cls-43,.cls-44,.cls-45,.cls-46,.cls-47,.cls-48,.cls-49,.cls-5,.cls-50,.cls-51,.cls-52,.cls-53,.cls-54,.cls-55,.cls-56,.cls-57,.cls-58,.cls-59,.cls-60,.cls-61,.cls-62,.cls-63,.cls-64,.cls-65,.cls-66,.cls-67,.cls-68,.cls-69,.cls-70,.cls-71,.cls-72,.cls-73,.cls-74,.cls-75,.cls-76,.cls-77,.cls-78,.cls-8,.cls-80,.cls-81{stroke-miterlimit:10;}.cls-2{fill:#d3df6c;}.cls-3{fill:#8bba4a;}.cls-4{fill:#83552e;stroke-width:4px;}.cls-20,.cls-21,.cls-22,.cls-4,.cls-77,.cls-80{stroke:#030202;}.cls-16,.cls-18,.cls-24,.cls-35,.cls-5{fill:none;}.cls-5{stroke:#070909;stroke-width:5px;}.cls-6{fill:#070909;}.cls-7{fill:#ef636c;}.cls-8{fill:#d8eefa;stroke:#040708;}.cls-41,.cls-42,.cls-43,.cls-44,.cls-45,.cls-46,.cls-47,.cls-48,.cls-49,.cls-50,.cls-51,.cls-52,.cls-53,.cls-54,.cls-55,.cls-56,.cls-57,.cls-58,.cls-59,.cls-60,.cls-61,.cls-62,.cls-63,.cls-64,.cls-65,.cls-66,.cls-67,.cls-68,.cls-69,.cls-70,.cls-71,.cls-72,.cls-73,.cls-74,.cls-75,.cls-76,.cls-77,.cls-78,.cls-8,.cls-80{stroke-width:3px;}.cls-9{fill:#080909;}.cls-10{fill:#fefbeb;}.cls-10,.cls-11,.cls-12,.cls-13,.cls-15{stroke:#f1b7d0;}.cls-11{fill:#f9d2e1;stroke-width:54px;}.cls-12{fill:#f2b8d1;}.cls-13{fill:#e39ebc;}.cls-14{fill:#2a2a2a;}.cls-15{fill:#da6b66;}.cls-16,.cls-24{stroke:#c6bc9b;}.cls-16{stroke-width:87px;}.cls-17{fill:#e9deb4;}.cls-18{stroke:#e39ebc;stroke-width:64px;}.cls-19{fill:#c1e6f6;stroke:#2a2a2a;stroke-width:16px;}.cls-20{fill:#e11f28;stroke-width:31px;}.cls-21{fill:#31aae1;stroke-width:32px;}.cls-22{fill:#f2ea28;stroke-width:22px;}.cls-23{fill:#c6bc9b;}.cls-24{stroke-width:89px;}.cls-25{fill:#f2d6aa;stroke-width:21px;}.cls-25,.cls-26{stroke:#d39729;}.cls-26{fill:#d1ba58;stroke-width:38px;}.cls-27{fill:#f2c25a;stroke:#b47d2b;stroke-width:33px;}.cls-28{fill:url(#linear-gradient);}.cls-29{fill:url(#linear-gradient-2);}.cls-30{fill:#d35127;}.cls-31{fill:#f2d8db;stroke-width:12px;}.cls-31,.cls-35{stroke:#572f24;}.cls-32{fill:#69a847;}.cls-33{fill:#6d5438;}.cls-34{fill:#572f24;}.cls-35{stroke-width:10px;}.cls-36,.cls-78{fill:#fff;}.cls-37{stroke:#bf8b2c;fill:url(#radial-gradient);}.cls-38{fill:url(#linear-gradient-3);}.cls-39{fill:url(#linear-gradient-4);}.cls-40{fill:url(#linear-gradient-5);}.cls-41{fill:#b18a2e;}.cls-41,.cls-44,.cls-48,.cls-53,.cls-55,.cls-58,.cls-59,.cls-69,.cls-70{stroke:#040504;}.cls-42,.cls-71{fill:#af8c2f;}.cls-42,.cls-47{stroke:#090806;}.cls-43,.cls-44,.cls-68{fill:#e7b721;}.cls-43,.cls-46{stroke:#0c0c08;}.cls-45{fill:#d8a828;stroke:#0b0b0b;}.cls-46{fill:#cca52c;}.cls-47{fill:#fcda4c;}.cls-48{fill:#f7cd21;}.cls-49{fill:#fcda4b;}.cls-49,.cls-51,.cls-52,.cls-56{stroke:#070b08;}.cls-50{fill:#eab520;}.cls-50,.cls-57,.cls-60,.cls-71,.cls-78{stroke:#020202;}.cls-51{fill:#e3b723;}.cls-52{fill:#e6b722;}.cls-53{fill:#f9dd4e;}.cls-54{fill:#e1b624;stroke:#090e0a;}.cls-55,.cls-64{fill:#fbd222;}.cls-56{fill:#efc11b;}.cls-57{fill:#f9d41e;}.cls-58{fill:#e7b921;}.cls-59{fill:#e8b720;}.cls-60,.cls-69,.cls-73,.cls-74{fill:#fbd221;}.cls-61{fill:#d0a92b;stroke:#0a0a07;}.cls-62{fill:#fad225;}.cls-62,.cls-63,.cls-64,.cls-72,.cls-73{stroke:#030302;}.cls-63{fill:#cda72c;}.cls-65{fill:#d0a62b;stroke:#070504;}.cls-66{fill:#af8e2f;}.cls-66,.cls-67,.cls-68,.cls-75{stroke:#080605;}.cls-67{fill:#af8b2f;}.cls-70{fill:#f0be1a;}.cls-72{fill:#e7b422;}.cls-74{stroke:#0b0806;}.cls-75{fill:#af8d2f;}.cls-76{fill:#931b22;stroke:#060304;}.cls-77{fill:url(#linear-gradient-6);}.cls-79{fill:#251d1e;}.cls-80{fill:#030202;}.cls-81{stroke:#070406;stroke-width:2px;fill:url(#linear-gradient-7);}</style><linearGradient id="linear-gradient" x1="13610.85" y1="3133.43" x2="14212.4" y2="3133.43" gradientTransform="translate(-128.42 649.35) rotate(-2.96)" gradientUnits="userSpaceOnUse"><stop offset="0.06" stop-color="#f37231"/><stop offset="0.15" stop-color="#e25f2e"/><stop offset="0.27" stop-color="#d24d2a"/><stop offset="0.42" stop-color="#c74028"/><stop offset="0.61" stop-color="#c03826"/><stop offset="1" stop-color="#be3626"/></linearGradient><linearGradient id="linear-gradient-2" x1="12279.99" y1="2936.41" x2="12959.31" y2="2936.41" xlink:href="#linear-gradient"/><radialGradient id="radial-gradient" cx="15324.36" cy="2311.44" r="292.55" gradientTransform="matrix(1.48, -0.08, 0.07, 1.37, -7173.81, -593.81)" gradientUnits="userSpaceOnUse"><stop offset="0.06" stop-color="#d87c28"/><stop offset="0.41" stop-color="#d19040"/><stop offset="0.74" stop-color="#cc9e50"/><stop offset="1" stop-color="#caa356"/></radialGradient><linearGradient id="linear-gradient-3" x1="12839.06" y1="1238.68" x2="13463.75" y2="1238.68" gradientTransform="translate(1456.47 -2782.8) rotate(23.48)" gradientUnits="userSpaceOnUse"><stop offset="0" stop-color="#c4282d"/><stop offset="0.1" stop-color="#cc313c"/><stop offset="0.56" stop-color="#f0567e"/><stop offset="0.93" stop-color="#f39dc4"/></linearGradient><linearGradient id="linear-gradient-4" x1="12991.13" y1="4004.98" x2="13419.7" y2="4004.98" xlink:href="#linear-gradient"/><linearGradient id="linear-gradient-5" x1="11675.13" y1="4771.96" x2="12300.79" y2="4771.96" xlink:href="#linear-gradient"/><linearGradient id="linear-gradient-6" x1="136.51" y1="3941.06" x2="5123.28" y2="3941.06" gradientTransform="translate(-385.72 470.13) rotate(-7.9)" gradientUnits="userSpaceOnUse"><stop offset="0" stop-color="#a71f23"/><stop offset="0.22" stop-color="#c71d2e"/><stop offset="0.44" stop-color="#e31b37"/><stop offset="0.57" stop-color="#ed1a3b"/><stop offset="0.97" stop-color="#f0567d"/></linearGradient><linearGradient id="linear-gradient-7" x1="2163.75" y1="4644.4" x2="3686.21" y2="4644.4" gradientTransform="translate(-385.72 470.13) rotate(-7.9)" gradientUnits="userSpaceOnUse"><stop offset="0" stop-color="#c4262d"/><stop offset="0.09" stop-color="#cc2e3b"/><stop offset="0.56" stop-color="#f0567d"/><stop offset="0.93" stop-color="#f49ec4"/></linearGradient></defs><title>SAbanner</title><g id="fry-2" data-name="fry"><path class="cls-1" d="M6583.54,5237.77c51.34-4.46,834.05-162.16,883.45-177.12,280.68-85,856-316.12,1141.75-608.28,410.23-419.44,740.95-774.73,532.53-1321.56S8211.81,1599.9,8051.38,1452s-480.26-600.06-567-786.87-609.7-513.81-1279.84-438.48-1131,432.87-1342,788C4741.7,1218,4679.95,2049.2,4577.86,2190s-408.42,1128.21-366.12,1660.52,386.13,1184,1030.9,1306.1C5784.12,5259.19,6324,5260.34,6583.54,5237.77Z" transform="translate(-105.76 -196.11)"/><path class="cls-2" d="M6595.59,5022.34c45.15-3.76,733-142.33,776.37-155.61,246.5-75.45,751.47-281.68,1001.29-544.78,358.66-377.72,647.71-697.76,461.33-1194.26S8008.37,1735.75,7866.4,1600.92,7440.54,1054.7,7363.22,885,6823.94,416.21,6234.7,480.78,5242,866.72,5058.17,1187.29c-105.21,183.52-155,936.13-244,1063.14s-353.19,1019.79-313.05,1502.24S4847.31,4827.35,5415.3,4941.5C5892.31,5037.36,6367.35,5041.36,6595.59,5022.34Z" transform="translate(-105.76 -196.11)"/><ellipse class="cls-3" cx="6574.5" cy="2893.46" rx="1386.12" ry="1407.01" transform="translate(-548.63 1163.49) rotate(-11.42)"/><ellipse class="cls-4" cx="6563.16" cy="2889.53" rx="1183.63" ry="1290.95" transform="translate(-548.08 1161.16) rotate(-11.42)"/><path class="cls-5" d="M5760.71,2970.56s396.42,203,711,144.79,567-173.34,652.08-254.64,218.71-209.8,218.71-209.8" transform="translate(-105.76 -196.11)"/><path class="cls-6" d="M5891.91,3045.55s-14,505,62.49,596.38c39.7,47.43,166.28,195.11,532.68,159.46,305.86-29.76,536-117.89,649.76-143.36,39.74-8.9,76.09-26.81,104-51.23,64.88-56.82,127.11-132.84,162.27-225.57,33.83-89.23-59.25-436.77-101.65-503s-57.66-105.88-57.66-105.88S6956.12,2964,6796.14,3033.77,6400,3119.17,6283.3,3116,5891.91,3045.55,5891.91,3045.55Z" transform="translate(-105.76 -196.11)"/><path class="cls-7" d="M6453,3776.23,7003.48,3665s-74.26-188-145-179-130.32,37-126.18,57.55-24.42,76.54-24.42,76.54-65.82-92.42-93.49-85.8-110.55-8.68-127,53.41S6453,3776.23,6453,3776.23Z" transform="translate(-105.76 -196.11)"/><ellipse class="cls-8" cx="6139.9" cy="2436.9" rx="383.88" ry="382.53" transform="translate(-466.8 1068.36) rotate(-11.42)"/><ellipse class="cls-8" cx="6890.57" cy="2369.7" rx="311.9" ry="335.76" transform="translate(-438.62 1215.72) rotate(-11.42)"/><ellipse class="cls-9" cx="6256.37" cy="2491.08" rx="103.42" ry="76.18" transform="translate(-475.23 1092.5) rotate(-11.42)"/><ellipse class="cls-9" cx="6787.87" cy="2383.67" rx="103.42" ry="76.18" transform="translate(-443.42 1195.65) rotate(-11.42)"/><path class="cls-10" d="M8094.65,2311.57s-380.35,367.37-158.48,734.73,887.49,621.7,1426.32,664.09,2091.93,14.13,2662.46-169.55,833-480.4,833-650-72.3-423.88-230.78-522.79,0-268.46-206-494.53-301.11-113-301.11-113,174.33-367.37-95.09-664.09c0,0-475.44-438-760.7-409.76s-380.35,56.52-380.35,56.52,205.57-260.87,126.78-339.11c-176.93-175.7-538.83-183.68-808.25,0s-618.07,339.11-618.07,339.11-491.29-42.39-713.16,226.07-301.11,579.31-301.11,621.7-317,288.83-348.66,419.94S8094.65,2311.57,8094.65,2311.57Z" transform="translate(-105.76 -196.11)"/><path class="cls-11" d="M8459.15,3467.78l237.72,1189.28s443.74,650,1537.25,579.31,1632.34-141.29,1743.28-508.66S12231,3479.57,12231,3479.57s-1061.81,273.21-1885.91,259.08S8459.15,3467.78,8459.15,3467.78Z" transform="translate(-105.76 -196.11)"/><path class="cls-12" d="M8623.28,4307.13s-32.22,688.27,914.13,891.27c916.25,196.54,2086.87-162.93,2171.6-186.33,196.92-54.38,298.31-336,298.31-427.91s62.54-226.34,62.54-226.34-649.62,373.75-1054.23,420.29-1081.78,109.07-1473.08,0S8623.28,4307.13,8623.28,4307.13Z" transform="translate(-105.76 -196.11)"/><path class="cls-13" d="M8459.15,3467.78l34.19,221.49s895.93,265.37,2014.55,222.93,1694.66-222.47,1694.66-222.47l28.42-210.17s-760.59,217.84-1885.91,210.76S8459.15,3467.78,8459.15,3467.78Z" transform="translate(-105.76 -196.11)"/><path class="cls-14" d="M9727,1972.46s538.83,226.07,697.31,226.07,649.77-31.82,649.77-31.82-174.33,225.11-174.33,538.22-31.7,539.18-31.7,539.18-610.2,141.29-927.16,0-435.76-494.53-388.22-791.25S9727,1972.46,9727,1972.46Z" transform="translate(-105.76 -196.11)"/><path class="cls-15" d="M9597.91,2867.47s78.1,352.13,468.06,417.32c380.81,63.66,674.35-23.58,674.35-23.58S10634.53,2871,10523.46,2864s-171.89,17.66-235.36,53-134.87,120.24-134.87,120.24-100.43-239.86-206.27-240.49C9740.7,2795.51,9597.91,2867.47,9597.91,2867.47Z" transform="translate(-105.76 -196.11)"/><path class="cls-16" d="M8087.81,2311.57s-380.35,367.37-158.48,734.73,887.49,545.1,1426.32,587.49,2091.93,90.73,2662.46-93,833-480.4,833-650-72.3-423.88-230.78-522.79,0-268.46-206-494.53-301.11-113-301.11-113,174.33-367.37-95.09-664.09c0,0-475.44-438-760.7-409.76s-380.35,56.52-380.35,56.52,205.57-260.87,126.78-339.11c-176.93-175.7-538.83-183.68-808.25,0s-618.07,339.11-618.07,339.11-491.29-42.39-713.16,226.07-301.11,579.31-301.11,621.7-317,288.83-348.66,419.94S8087.81,2311.57,8087.81,2311.57Z" transform="translate(-105.76 -196.11)"/><path class="cls-17" d="M7913.68,2586.75s211.48,546.78,761.31,669.33,2188.77,122.55,2188.77,122.55,1184.26-18.85,1438-254.53,444.1-537.35,444.1-537.35,149.35,338.2,85.91,441.9S12217.2,3538.9,11826,3614.32s-1691.8,75.42-2051.31,75.42-1300.57-179.12-1501.48-282.82-380-461.93-390.57-537.35S7913.68,2586.75,7913.68,2586.75Z" transform="translate(-105.76 -196.11)"/><line class="cls-18" x1="8748.98" y1="3437.06" x2="8992.18" y2="4785.15"/><line class="cls-18" x1="9372.72" y1="3493.63" x2="9478.57" y2="4964.27"/><line class="cls-18" x1="10249.72" y1="3552.55" x2="10249.72" y2="5011.41"/><line class="cls-18" x1="11075.21" y1="3493.63" x2="10990.54" y2="4964.27"/><line class="cls-18" x1="11741.36" y1="3437.06" x2="11519.31" y2="4785.15"/><ellipse class="cls-19" cx="10086.56" cy="1330.08" rx="375.37" ry="334.67"/><ellipse class="cls-19" cx="10726.24" cy="1249.95" rx="264.3" ry="254.53"/><ellipse class="cls-6" cx="10028.41" cy="1330.08" rx="142.75" ry="127.27"/><ellipse class="cls-6" cx="10747.14" cy="1268.59" rx="121.84" ry="108.63"/><path class="cls-20" d="M11188.37,1546.85c21.15,46.93,81.52,69.89,134.15,51l195.82-70.15c52.63-18.86,78.39-72.68,57.24-119.61" transform="translate(-105.76 -196.11)"/><path class="cls-20" d="M11575.59,1408.12c-21.15-46.93-81.52-69.89-134.15-51l-195.82,70.15c-52.63,18.86-78.39,72.68-57.24,119.61" transform="translate(-105.76 -196.11)"/><path class="cls-20" d="M11730.81,2891c56.72,0,103.14-41.38,103.14-92V2610.85c0-50.57-46.41-92-103.14-92" transform="translate(-105.76 -196.11)"/><path class="cls-20" d="M11730.81,2518.9c-56.72,0-103.14,41.38-103.14,92V2799c0,50.57,46.41,92,103.14,92" transform="translate(-105.76 -196.11)"/><path class="cls-20" d="M8942.16,1385.53c0,50.57,46.41,92,103.14,92h211c56.72,0,103.14-41.38,103.14-92" transform="translate(-105.76 -196.11)"/><path class="cls-20" d="M9359.46,1385.53c0-50.57-46.41-92-103.14-92h-211c-56.72,0-103.14,41.38-103.14,92" transform="translate(-105.76 -196.11)"/><path class="cls-20" d="M11129.41,3546.4c56.72,0,103.14-41.38,103.14-92V3266.3c0-50.57-46.41-92-103.14-92" transform="translate(-105.76 -196.11)"/><path class="cls-20" d="M11129.41,3174.34c-56.72,0-103.14,41.38-103.14,92v188.15c0,50.57,46.41,92,103.14,92" transform="translate(-105.76 -196.11)"/><path class="cls-20" d="M12164.91,2938.56c33.42,40.87,98.26,49.92,144.1,20.13l170.53-110.85c45.84-29.79,56-87.61,22.58-128.47" transform="translate(-105.76 -196.11)"/><path class="cls-20" d="M12502.12,2719.37c-33.42-40.87-98.26-49.92-144.1-20.13l-170.53,110.85c-45.84,29.79-56,87.61-22.58,128.47" transform="translate(-105.76 -196.11)"/><path class="cls-20" d="M8857.57,3068.2c0,50.57,46.41,92,103.14,92h211c56.72,0,103.14-41.38,103.14-92" transform="translate(-105.76 -196.11)"/><path class="cls-20" d="M9274.87,3068.2c0-50.57-46.41-92-103.14-92h-211c-56.72,0-103.14,41.38-103.14,92" transform="translate(-105.76 -196.11)"/><path class="cls-21" d="M9581.62,1205.94c56.72,0,103.14-41.38,103.14-92V925.83c0-50.57-46.41-92-103.14-92" transform="translate(-105.76 -196.11)"/><path class="cls-21" d="M9581.62,833.88c-56.72,0-103.14,41.38-103.14,92V1114c0,50.57,46.41,92,103.14,92" transform="translate(-105.76 -196.11)"/><path class="cls-21" d="M10966.36,2016.66c24.33-45.69,2.31-100.81-48.93-122.5l-190.64-80.7c-51.24-21.69-113.07-2.06-137.4,43.62" transform="translate(-105.76 -196.11)"/><path class="cls-21" d="M10589.38,1857.08c-24.33,45.69-2.31,100.81,48.93,122.5l190.64,80.7c51.24,21.69,113.07,2.06,137.4-43.62" transform="translate(-105.76 -196.11)"/><path class="cls-21" d="M11023.89,2810.12c0,50.57,46.41,92,103.14,92h211c56.72,0,103.14-41.38,103.14-92" transform="translate(-105.76 -196.11)"/><path class="cls-21" d="M11441.2,2810.12c0-50.57-46.41-92-103.14-92h-211c-56.72,0-103.14,41.38-103.14,92" transform="translate(-105.76 -196.11)"/><path class="cls-21" d="M11525.08,1174.9c-9.46,49.86,28.55,97.57,84.48,106l208.08,31.39c55.93,8.44,109.43-25.46,118.9-75.32" transform="translate(-105.76 -196.11)"/><path class="cls-21" d="M11936.54,1237c9.46-49.86-28.55-97.57-84.48-106L11644,1099.58c-55.93-8.44-109.43,25.46-118.9,75.32" transform="translate(-105.76 -196.11)"/><path class="cls-21" d="M8552.74,2362.84c19.15,47.61,78.5,72.59,131.9,55.52l198.65-63.51c53.4-17.07,81.42-70,62.27-117.59" transform="translate(-105.76 -196.11)"/><path class="cls-21" d="M8945.55,2237.25c-19.15-47.61-78.5-72.59-131.9-55.52L8615,2245.24c-53.4,17.07-81.42,70-62.27,117.59" transform="translate(-105.76 -196.11)"/><path class="cls-21" d="M9072.83,3395.73c0,50.57,46.41,92,103.14,92h211c56.72,0,103.14-41.38,103.14-92" transform="translate(-105.76 -196.11)"/><path class="cls-21" d="M9490.14,3395.73c0-50.57-46.41-92-103.14-92H9176c-56.72,0-103.14,41.38-103.14,92" transform="translate(-105.76 -196.11)"/><path class="cls-22" d="M11577.31,2029.48c-9.46,49.86,28.55,97.57,84.48,106l208.08,31.39c55.93,8.44,109.43-25.46,118.9-75.32" transform="translate(-105.76 -196.11)"/><path class="cls-22" d="M11988.77,2091.55c9.46-49.86-28.55-97.57-84.48-106l-208.08-31.39c-55.93-8.44-109.43,25.46-118.9,75.32" transform="translate(-105.76 -196.11)"/><path class="cls-22" d="M11628.22,3227.51c-9.46,49.86,28.55,97.57,84.48,106l208.08,31.39c55.93,8.44,109.43-25.46,118.9-75.32" transform="translate(-105.76 -196.11)"/><path class="cls-22" d="M12039.68,3289.59c9.46-49.86-28.55-97.57-84.48-106l-208.08-31.39c-55.93-8.44-109.43,25.46-118.9,75.32" transform="translate(-105.76 -196.11)"/><path class="cls-22" d="M9069.14,2091.86c-9.46,49.86,28.55,97.57,84.48,106l208.08,31.39c55.93,8.44,109.43-25.46,118.9-75.32" transform="translate(-105.76 -196.11)"/><path class="cls-22" d="M9480.6,2153.93c9.46-49.86-28.55-97.57-84.48-106L9188,2016.54c-55.93-8.44-109.43,25.46-118.9,75.32" transform="translate(-105.76 -196.11)"/><path class="cls-22" d="M8313.76,2661.81c-56.71,1-102.22,43.14-101.13,93.71l4.06,188.12c1.09,50.56,48.39,91.14,105.1,90.16" transform="translate(-105.76 -196.11)"/><path class="cls-22" d="M8321.79,3033.8c56.71-1,102.22-43.14,101.13-93.71L8418.86,2752c-1.09-50.56-48.39-91.14-105.1-90.16" transform="translate(-105.76 -196.11)"/><path class="cls-22" d="M10000.95,3599.63c32.34,41.55,96.93,52,143.53,23.12l173.38-107.27c46.6-28.83,58.27-86.42,25.93-128" transform="translate(-105.76 -196.11)"/><path class="cls-22" d="M10343.78,3387.51c-32.34-41.55-96.93-52-143.53-23.12l-173.38,107.27c-46.6,28.83-58.27,86.42-25.93,128" transform="translate(-105.76 -196.11)"/><path class="cls-22" d="M11026.81,959.61c-9.46,49.86,28.55,97.57,84.48,106l208.08,31.39c55.93,8.44,109.43-25.46,118.9-75.32" transform="translate(-105.76 -196.11)"/><path class="cls-22" d="M11438.27,1021.68c9.46-49.86-28.55-97.57-84.48-106l-208.08-31.39c-55.93-8.44-109.43,25.46-118.9,75.32" transform="translate(-105.76 -196.11)"/><path class="cls-22" d="M10149.75,581.22c-9.46,49.86,28.55,97.57,84.48,106l208.08,31.39c55.93,8.44,109.43-25.46,118.9-75.32" transform="translate(-105.76 -196.11)"/><path class="cls-22" d="M10561.21,643.3c9.46-49.86-28.55-97.57-84.48-106l-208.08-31.39c-55.93-8.44-109.43,25.46-118.9,75.32" transform="translate(-105.76 -196.11)"/><path class="cls-23" d="M8821,1833.68c-.5-9.9-4.15-20.18-12.58-27.08a48.63,48.63,0,0,0-30.37-11.22q-8-.19-16-.94a240.71,240.71,0,0,1-44.46-10.94,248.4,248.4,0,0,1-43.17-22.58,234.84,234.84,0,0,1-35.92-32,203.13,203.13,0,0,1-24.24-36.81,171.14,171.14,0,0,1-12.34-41.72,28,28,0,0,0-7.69-13,31.38,31.38,0,0,0-12.05-9.86c-9.21-4.8-22.78-6.84-33.1-3.86s-20.42,8.74-25.67,17.6l-4.33,9.15a34.54,34.54,0,0,0,0,20.36c3.43,21.56,11.55,41.86,21.78,61.57s24.18,37.37,39.77,53.89,34.22,30.66,54,43.19,41.5,21.86,64.12,29.35c25.19,8.34,52.46,12.58,79.28,13.23,10.82.26,22.79-4.46,30.37-11.22S8821.44,1843.22,8821,1833.68Z" transform="translate(-105.76 -196.11)"/><path class="cls-23" d="M8551.08,2537.38c-.5-9.9-4.15-20.18-12.58-27.08s-18.82-11.42-30.37-11.22a280.92,280.92,0,0,1-32.47-1.32,318.62,318.62,0,0,1-62.25-15.54,389.37,389.37,0,0,1-72.73-38.38c-31-21.95-58.57-47.58-83.86-74.68q-9.34-10-18.32-20.29c-18.65-21.72-36.4-44-54.11-66.34a30.51,30.51,0,0,0-11.06-10.75,33.81,33.81,0,0,0-14.61-6.85,36.34,36.34,0,0,0-17.13-.68,34.74,34.74,0,0,0-16,4.54c-9.17,5.27-17.25,13.12-19.74,22.89-2.44,9.55-2.27,21.19,4.33,29.51,38.34,48.33,77,97.17,123.59,139.56a512.12,512.12,0,0,0,78.22,58.63,417.67,417.67,0,0,0,87.85,39.9,312.31,312.31,0,0,0,48.18,11.65c19.81,3.12,40,5.12,60.09,4.76,11.15-.2,22.43-4.13,30.37-11.22C8545.95,2557.82,8551.56,2546.92,8551.08,2537.38Z" transform="translate(-105.76 -196.11)"/><path class="cls-23" d="M10966.45,718.71c-52.9-12.44-108.33-14.1-162.55-9.31-55.59,4.91-110.29,14.95-165.06,24.45-27.46,4.77-55,9.31-82.68,12.78-41.65,4.68-83.83,6.52-125.59,2.13q-7.52-1-15-2.3c-11.48-2-22.73-1.55-33.1,3.86-8.91,4.65-17.41,13.76-19.74,22.89-2.5,9.8-2,20.81,4.33,29.51,5.79,8,14.78,15.72,25.67,17.6,51.66,8.9,103.85,9.16,156,3.72,52.88-5.52,104.94-15,157.16-24,25.85-4.46,51.76-4,77.84-7.24C10824.71,788.14,10977.45,721.29,10966.45,718.71Z" transform="translate(-105.76 -196.11)"/><path class="cls-23" d="M12189.75,1632.27a28.58,28.58,0,0,0-8.88-12.33c-7.45-6.64-19.67-11.64-30.37-11.22-11.11.44-22.63,3.7-30.37,11.22l-6.72,7.75a35,35,0,0,0-5.86,19.33c-.78,10-1.82,20-3.19,30-4.22,25.67-10.93,51-21.69,75.18a212.15,212.15,0,0,1-25.22,39.26,199.58,199.58,0,0,1-29.15,26.05,190.83,190.83,0,0,1-30.61,16.1,171.24,171.24,0,0,1-28.19,7,161.42,161.42,0,0,1-16.29.5,46.83,46.83,0,0,0-30.37,11.22c-7.45,6.64-13.06,17.54-12.58,27.08.5,9.9,4.15,20.18,12.58,27.08a48.44,48.44,0,0,0,30.37,11.22c55.5,1.12,108.58-21.82,148-55.63,40.27-34.53,65.38-81.38,78.4-129.33,7.62-28,11.6-57,13.84-85.73A26.3,26.3,0,0,0,12189.75,1632.27Z" transform="translate(-105.76 -196.11)"/><path class="cls-23" d="M12570.06,2245.29c-5.21-7.94-15.43-15.52-25.67-17.6-11-2.23-23.34-1.75-33.1,3.86-9.11,5.23-17.38,13.14-19.74,22.89-8.18,33.86-17.08,67.67-29.76,100.45q-4.52,11.67-9.74,23.11a279.36,279.36,0,0,1-34.63,54.49,160.59,160.59,0,0,1-66,46.35,276,276,0,0,1-52.64,12.31c-45.73,4.69-92,1.19-137.63-2.69a35.63,35.63,0,0,0-16.55,3.3,32.86,32.86,0,0,0-13.82,7.92c-7.45,6.64-13.06,17.54-12.58,27.08.5,9.9,4.15,20.18,12.58,27.08l8.69,6a46.8,46.8,0,0,0,21.68,5.23c39.82,3.38,79.93,6.46,119.93,4.12,45.73-2.67,91.14-11.49,131.13-32.19,34.57-17.9,62.51-43.46,84.92-72.73,20.88-27.27,35.7-58.31,47.7-89.42,11.24-29.15,19.51-59.14,27-89.22q1.34-5.41,2.64-10.82C12576.82,2264.74,12576,2254.34,12570.06,2245.29Z" transform="translate(-105.76 -196.11)"/><path class="cls-24" d="M8096.53,2299.2s-380.35,367.37-158.48,734.73,887.49,545.1,1426.32,587.49,2091.93,90.73,2662.46-93,833-480.4,833-650-72.3-423.88-230.78-522.79,0-268.46-206-494.53-301.11-113-301.11-113,174.33-367.37-95.09-664.09c0,0-475.44-438-760.7-409.76s-380.35,56.52-380.35,56.52,205.57-260.87,126.78-339.11c-176.93-175.7-538.83-183.68-808.25,0s-618.07,339.11-618.07,339.11S9095,688.44,8873.09,956.9,8572,1536.21,8572,1578.6s-317,288.83-348.66,419.94S8096.53,2299.2,8096.53,2299.2Z" transform="translate(-105.76 -196.11)"/><path class="cls-25" d="M12498.76,1569s-154.62,326.25-166.47,539,119.4,428.76,119.4,428.76-166.9,199.59-170.63,348.3-74.69,544.89-94.22,609.55-210,360.95-217,446.18-91.58,439.68-91.58,439.68-121.06,91.13-112.84,249.83-37.95,150.48-70,194.57-92.23,206.33-92.23,206.33-230.07,415-158.36,475,305.17-68.84,426.78-149.4,339.83-282.8,453.32-299.29,231.81-160.52,343.11-219.32,622.63-562.65,702.46-566.79,631.3-616.14,675.27-650.25,700.72-821.3,728.35-950,192.51-477.92,249.53-480.87,199.39-124.19,179.18-293.69-108.7-111.88-177.13-108.34-256.37-92.81-313.93-100.43-413.22-30.45-515.86-25.14-175-66.39-300.95-70.47-263.94-18.16-366.57-12.84-206.71-21.12-322.5-46.95S12498.76,1569,12498.76,1569Z" transform="translate(-105.76 -196.11)"/><path class="cls-26" d="M11489.71,5501.76s212.54,129.79,348.84,112.12,2351.25-1628.13,2426.7-1716.9,843.59-712,857.63-882.46,256.61-564.92,277.23-608.42,265.48-172.87,398.49-254,435.34-425.66,423.84-647.83-47.56-697.68-199.65-764.06-392-62.78-480.52-5.16-385,268.87-370.12,569c11.68,235.29-17.17,469.85-17.17,469.85s59.2,266.75-62,344.69-261.16,348.72-301,463.78-561.54,820.29-797.88,1067.94-572.51,558.46-572.51,558.46S13089,4498,12811.85,4705s-355,269.83-488.6,332.11-453.32,299.29-453.32,299.29Z" transform="translate(-105.76 -196.11)"/><path class="cls-27" d="M12489.29,1579.48l615.08-46s299.77,56.1,414.56,56.33,400.28,2.92,486,42.79,519.48,40.21,638.4,61.95,265.24,114.64,372.86,104.15,146.56,21.58,146.56,21.58,15.78-404.22,21.32-591.4c3.25-109.84,181.16-441.68,430.78-466.95S15910,730.61,15910,730.61s-305.09-150.52-441.94-143.44-134.11,60-615.82,31.89-705.4,68.35-866.7,44.88-441-125.68-600.68-117.41-446.95-19.29-615.82,31.89S12381.42,821.27,12365.74,960s-90,248.65-82.36,396.77S12489.29,1579.48,12489.29,1579.48Z" transform="translate(-105.76 -196.11)"/><path class="cls-28" d="M14110.67,3200.44c-127.3,142.42-312.89,194.62-414.54,116.59s-80.85-256.74,46.44-399.16,312.89-194.62,414.54-116.59S14238,3058,14110.67,3200.44Z" transform="translate(-105.76 -196.11)"/><path class="cls-29" d="M12796.23,3082.4c-157.31,150.34-361,203.63-454.86,119s-42.51-275.06,114.8-425.4,361-203.63,454.86-119S12953.54,2932.06,12796.23,3082.4Z" transform="translate(-105.76 -196.11)"/><path class="cls-30" d="M12948.61,2203.78c-157.31,150.34-387.13,180.06-513.32,66.37s-101-327.71,56.35-478.05,387.13-180.06,513.31-66.37S13105.92,2053.44,12948.61,2203.78Z" transform="translate(-105.76 -196.11)"/><path class="cls-30" d="M14741.68,2336.67c-157.31,150.34-371.89,193.78-479.29,97s-66.94-297.06,90.37-447.4,371.89-193.78,479.29-97S14899,2186.33,14741.68,2336.67Z" transform="translate(-105.76 -196.11)"/><path class="cls-31" d="M13606.86,2180.48c-87.52,272.58-321.45,449.55-522.5,395.27s-293.09-319.26-205.57-591.84,321.45-449.55,522.5-395.27S13694.38,1907.9,13606.86,2180.48Z" transform="translate(-105.76 -196.11)"/><path class="cls-31" d="M14167.83,2279c-36.68,282-235.28,493-443.59,471.1s-347.45-268.21-310.78-550.25,235.28-493,443.59-471.1S14204.5,1996.92,14167.83,2279Z" transform="translate(-105.76 -196.11)"/><path class="cls-32" d="M13394.05,2222.71c-34.49,141.47-147.09,239-251.5,217.75s-161.08-153.1-126.59-294.57,147.09-239,251.5-217.75S13428.55,2081.24,13394.05,2222.71Z" transform="translate(-105.76 -196.11)"/><path class="cls-32" d="M14004.49,2297.47c-21.24,163.32-136.25,285.46-256.87,272.8s-201.2-155.31-180-318.63,136.24-285.46,256.87-272.8S14025.72,2134.15,14004.49,2297.47Z" transform="translate(-105.76 -196.11)"/><path class="cls-33" d="M13319.88,2200.61c-19.71,80.85-84.06,136.56-143.72,124.44s-92.05-87.49-72.34-168.33,84.06-136.56,143.72-124.44S13339.59,2119.76,13319.88,2200.61Z" transform="translate(-105.76 -196.11)"/><ellipse class="cls-33" cx="13792.34" cy="2272.23" rx="110.79" ry="149.81" transform="translate(-204.81 520.19) rotate(-2.96)"/><path class="cls-34" d="M12605.84,2780.84s59.15,175.19,71.63,295,33.15,522.94,232.51,611.88,429.5-25.61,491.27-83.55,275-243.56,382.94-365.66c63.86-72.21,214.61-211.62,214.61-211.62s-360.44,157.87-445.2,169.88-348.14,59.43-500.2-20.4-317.11-201-335-240.26S12605.84,2780.84,12605.84,2780.84Z" transform="translate(-105.76 -196.11)"/><path class="cls-35" d="M12601.86,2784.39s59.15,175.19,71.63,295,33.15,522.94,232.51,611.88,429.5-25.61,491.27-83.55,275-243.56,382.94-365.66c63.86-72.21,214.61-211.62,214.61-211.62s-360.44,157.87-445.2,169.88-348.14,59.43-500.2-20.4-317.11-201-335-240.26S12601.86,2784.39,12601.86,2784.39Z" transform="translate(-105.76 -196.11)"/><path class="cls-36" d="M12640.72,2951.18s43.45,159.73,36.17,175.18,220.68,226,414.77,271.54S13652.5,3356,13652.5,3356L13789.2,3204s-414.36,123.5-575.32,91.25-336.21-129.91-403-184.18S12640.72,2951.18,12640.72,2951.18Z" transform="translate(-105.76 -196.11)"/><path class="cls-37" d="M15950.48,1465.86c-68,267.91-252.45,457.7-411.92,423.91S15305,1611.4,15373,1343.49s252.45-457.7,411.92-423.91S16018.51,1198,15950.48,1465.86Z" transform="translate(-105.76 -196.11)"/><path class="cls-30" d="M12696.67,4195.87c-156.42,191.4-399.34,265.17-542.56,164.79s-132.52-336.93,23.9-528.32,399.34-265.17,542.56-164.79S12853.09,4004.47,12696.67,4195.87Z" transform="translate(-105.76 -196.11)"/><path class="cls-38" d="M12748.16,3447.56s12.18,235.16,212.56,264.11c188,27.16,285.18-.7,343.89-41.5s58.48-77.62,58.48-77.62-109.61-71.4-159.2-63.69-108.85,11.55-133.08,38.59-22.42,78.27-52.67,66.17-26.48-93.24-62.91-121.59S12797.33,3448.87,12748.16,3447.56Z" transform="translate(-105.76 -196.11)"/><path class="cls-39" d="M13390.87,4078.16c-94.08,89.91-226.05,112.61-294.77,50.69s-48.17-185,45.91-274.89,226.05-112.61,294.77-50.69S13484.95,3988.25,13390.87,4078.16Z" transform="translate(-105.76 -196.11)"/><path class="cls-40" d="M12275.45,4961.8c-136.15,130.12-329.43,160.91-431.7,68.77s-74.81-272.31,61.34-402.43,329.43-160.91,431.7-68.77S12411.61,4831.68,12275.45,4961.8Z" transform="translate(-105.76 -196.11)"/><path class="cls-41" d="M3269.5,748.35l417.62-21.93,181-139.19s-201.43-8.07-307.89,18.71S3269.5,748.35,3269.5,748.35Z" transform="translate(-105.76 -196.11)"/><path class="cls-42" d="M3705.14,711.91,3857.47,582.7s188.16,201.11,223.82,313.7,285.25,756.38,285.25,756.38l-361.21,428.37s.94-498.45-56.35-622.58S3705.14,711.91,3705.14,711.91Z" transform="translate(-105.76 -196.11)"/><path class="cls-43" d="M3272.77,771.91s367.43,987.67,374,1034.79,342.17,444.83,342.17,444.83,49.25-511.16,45.18-612.66-348.61-924.24-348.61-924.24Z" transform="translate(-105.76 -196.11)"/><polygon class="cls-44" points="2508.97 404.95 2691.99 2108.66 3147.84 1977.35 2935.85 449.78 2508.97 404.95"/><polygon class="cls-45" points="2323.32 606.83 2512.78 432.44 2763.51 2094.73 2400.47 2173.13 2323.32 606.83"/><path class="cls-46" d="M2079.21,591.33l193.63,673.57,259.28,88.1s-18.48-325.64-61-439.82-87.83-248-165.89-281.17S2079.21,591.33,2079.21,591.33Z" transform="translate(-105.76 -196.11)"/><path class="cls-47" d="M1494,752.6l218.66,1046.34,291-20.37L2271.78,1161,2098.32,584.68S1886,594.13,1771.86,638,1494,752.6,1494,752.6Z" transform="translate(-105.76 -196.11)"/><path class="cls-48" d="M971.38,1461.53,571.75,1613.05s139.08,521,201.83,636.41,370.56,456.9,370.56,456.9l170.33-23.64s-134.13-677.83-157-794.73S971.38,1461.53,971.38,1461.53Z" transform="translate(-105.76 -196.11)"/><path class="cls-49" d="M1290.45,2654s-69.74-550.68-154.31-775.09-329-638.78-329-638.78,212.92-101.6,305.73-106.47,175.75,111.7,208,151.26,321.94,587.73,321.94,587.73L1487,2626.76Z" transform="translate(-105.76 -196.11)"/><path class="cls-50" d="M1179.45,1132.46l416.36,690.7,251.13-66.87S1714.88,1526.46,1621,1427.41s-179.54-235.25-222.67-257.28S1179.45,1132.46,1179.45,1132.46Z" transform="translate(-105.76 -196.11)"/><path class="cls-51" d="M820,2054.9s-222.19,34.84-348.3,88.36S182.9,2323.43,255,2313.43s267.5-45.13,342.3-83.53S820,2054.9,820,2054.9Z" transform="translate(-105.76 -196.11)"/><polygon class="cls-52" points="500.79 2004.49 734.46 1859.99 1092.41 2562.79 936.77 2788.52 500.79 2004.49"/><path class="cls-53" d="M244,2331l305,610.09,399.61-55.46-327.92-679s-102.65,78.29-181.26,89.2S244,2331,244,2331Z" transform="translate(-105.76 -196.11)"/><path class="cls-54" d="M1657.26,2795.26s244-21.86,251.11,29.19,88.9,351.9,88.9,351.9L1791.44,3281Z" transform="translate(-105.76 -196.11)"/><polygon class="cls-55" points="1810.79 2639.21 1863.11 3016.2 2328.22 2951.65 2239.35 2503.69 1810.79 2639.21"/><path class="cls-56" d="M1660.53,2818.82l262,59.7,412.73-153.34-211.79-82.68s-96.62-22.61-235.84,32.73S1660.53,2818.82,1660.53,2818.82Z" transform="translate(-105.76 -196.11)"/><path class="cls-57" d="M1553.22,1853.08s250,21.34,336.81,21.3,138.42,997.44,138.42,997.44l-651.78-77.65Z" transform="translate(-105.76 -196.11)"/><path class="cls-58" d="M1564.14,1835.56s214,50.36,313.33,44.57,262-36.37,262-36.37-128.26-106.28-253.27-92.93S1564.14,1835.56,1564.14,1835.56Z" transform="translate(-105.76 -196.11)"/><polygon class="cls-59" points="1857.96 1680.06 1965.76 2889.88 2295.48 2908.16 2064.31 1675.43 1857.96 1680.06"/><path class="cls-60" d="M2464.48,1154.26l-393.06,54.55S1920.67,1565.94,1891.71,1694s35.79,1027.69,35.79,1027.69l471.67-65.46S2366,2272.63,2368.7,2196.2s-40.84-438.62-25-564.9S2464.48,1154.26,2464.48,1154.26Z" transform="translate(-105.76 -196.11)"/><path class="cls-61" d="M2464.48,1154.26s-142.58,416-142.08,612.1,113.35,816.8,113.35,816.8l285-111.6s-145.14-276-151.65-467.27,75.48-610.86,88-664.64S2464.48,1154.26,2464.48,1154.26Z" transform="translate(-105.76 -196.11)"/><path class="cls-62" d="M2918.42,2212S2439.1,2318.52,2356.64,2446s48.42,685.72,48.42,685.72l254.31,340.95,203.08-28.18s4.42-208.75,86.32-292.16-54-292.7-62.67-451.6S2918.42,2212,2918.42,2212Z" transform="translate(-105.76 -196.11)"/><path class="cls-63" d="M3000.64,3093.13S2892.09,2744,2899.75,2654.85s17.56-402.69,35-421.13,253.82,96.86,253.82,96.86-76.11,269.52-70.3,311.34S3213,2939.58,3213,2939.58Z" transform="translate(-105.76 -196.11)"/><path class="cls-64" d="M3016.9,1382S2691.35,1489.94,2658,1538s308.8,1695.88,308.8,1695.88,276.33-270.18,387.7-285.64S3016.9,1382,3016.9,1382Z" transform="translate(-105.76 -196.11)"/><path class="cls-65" d="M3384.58,2924.79s-102-782.77-194.43-968-156.87-553-163.44-600.37,161.8-36.94,200.47,1.16,237.4,459.7,237.4,459.7,223.92,988,237.73,1087.53S3384.58,2924.79,3384.58,2924.79Z" transform="translate(-105.76 -196.11)"/><path class="cls-66" d="M2930.64,817.39l621.74-58.27L3774,580.27s-237.2.9-501.51,69.6S2930.64,817.39,2930.64,817.39Z" transform="translate(-105.76 -196.11)"/><path class="cls-67" d="M3953.79,1744.08,3521.7,735.36l234.41-152.61s213.37,90.47,253.32,181S4214.6,1255.6,4214.6,1255.6Z" transform="translate(-105.76 -196.11)"/><path class="cls-68" d="M3866.63,2168.44s117.53-468.6,109.35-527.5-443.15-891.11-443.15-891.11l-582.11,80.78,602.46,1381.33Z" transform="translate(-105.76 -196.11)"/><path class="cls-69" d="M1529.56,2644.87s-138.1-32.87-274.58-5.92-222.73,30.91-236.39,76.83,216,642.45,216,642.45L1669.66,3462l75.91-126.61S1602,3119.12,1587.33,3013.09,1529.56,2644.87,1529.56,2644.87Z" transform="translate(-105.76 -196.11)"/><path class="cls-70" d="M1515.36,2638.84s120,527.7,129.78,598.38,60,191.8,60,191.8l139.8-195.51-116.69-552.17S1632.74,2618.54,1515.36,2638.84Z" transform="translate(-105.76 -196.11)"/><path class="cls-71" d="M3406.52,2224.4s215.57-225.16,359.8-287.55c141.9-61.38-248.18,25.12-385.17,104.7s-163.44,209-163.44,209l145.24-20.16" transform="translate(-105.76 -196.11)"/><path class="cls-72" d="M3409.69,2247.25s-183.17-39.81-188.81,26.2,216.84,869.12,216.84,869.12l332.85,51.65s-112.43-543.49-185.76-645.13S3409.69,2247.25,3409.69,2247.25Z" transform="translate(-105.76 -196.11)"/><path class="cls-73" d="M4003,3269.12s272-387.17,265.61-432.89-447.67-879-447.67-879-401,97.58-412.25,229.6,275.66,492.88,283.62,603.6,44.12,371.27,44.12,371.27Z" transform="translate(-105.76 -196.11)"/><path class="cls-74" d="M4089.31,2469.75s175.82-176.5,313.39-195.59S4344,1225.63,4344,1225.63s-263.7,120.65-357,121.6-27.49,812.33-27.49,812.33S3979.06,2349,4089.31,2469.75Z" transform="translate(-105.76 -196.11)"/><polygon class="cls-75" points="4250.24 1019.85 4339.52 2048.13 4588.46 2013.58 4451.13 1023.99 4250.24 1019.85"/><polygon class="cls-76" points="4678.58 1796.94 4927.47 1954.52 4416.5 2025.43 4678.58 1796.94"/><polygon class="cls-76" points="354.89 2589.1 12.02 2812.79 667.12 2721.88 354.89 2589.1"/><path class="cls-77" d="M107.95,3034.28l1226.54,2679.6s123.37,22.9,288.24-40,928.08-240.87,1569-337.82S4911.32,5217.5,5050,5158.23s-25.5-2974.36-25.5-2974.36-678,63.78-800.26,144.79-10.47,171.85-58,310.53c-37,107.92-148.59,468.91-476.17,610.43C3439.19,3358,3090.63,3452.88,2762,3490.49c-197,22.54-744.62,71.32-1263.19-56.85-228.39-56.44-378.12-411.12-451.89-465.62-35.1-25.93-9.81-70.68-285-32.5S107.95,3034.28,107.95,3034.28Z" transform="translate(-105.76 -196.11)"/><path class="cls-78" d="M2577.75,3321.51c98.26,266.42-63.54,535.47-361.4,600.94s-619-97.43-717.23-363.85,80.79-411.18,378.65-476.65S2479.49,3055.09,2577.75,3321.51Z" transform="translate(-105.76 -196.11)"/><path class="cls-78" d="M3966.35,3222.82c-32.66,283.67-305.59,524.83-609.61,538.65s-524-204.93-491.32-488.6S3171,2748,3475,2734.23,3999,2939.15,3966.35,3222.82Z" transform="translate(-105.76 -196.11)"/><path class="cls-79" d="M3164.11,3227.54s87.45,48.86,166.81.31,10.91-147,10.91-147,140.15-5.37,197.72,71.09,72.66,156.94,30.66,221c-61.82,94.26-120.31,120.07-201,131.11-70.82,9.69-191.72,28.57-239.31-88.78C3110,3366.16,3164.11,3227.54,3164.11,3227.54Z" transform="translate(-105.76 -196.11)"/><path class="cls-79" d="M1934.71,3516.73s131,13.38,167.49-33.91-19.8-142.7-19.8-142.7,179.09-20.16,262,62.17,126.93,174,57.53,238-150.67,98.71-266.5,81.94S1934.71,3516.73,1934.71,3516.73Z" transform="translate(-105.76 -196.11)"/><path class="cls-80" d="M1280.89,4269.12s334,123.1,502.8,228.06,691.14,474.08,1222,410.67,886-343.77,949.09-444.95,297.7-436.71,383.24-633.45c50.59-116.35,206.84-361.39,206.84-361.39s-581.76,418.56-748.35,493-672.3,315.53-1091.47,352.45-915,44.11-999.77,19.93S1280.89,4269.12,1280.89,4269.12Z" transform="translate(-105.76 -196.11)"/><path class="cls-36" d="M1541.4,4356.2s282.21,120,285,140.17,739,51.49,1207.15-49.42,1146.86-457,1146.86-457l111.41-246.54s-737.57,425.87-1119.29,514.79-871.49,126.08-1078.34,124S1541.4,4356.2,1541.4,4356.2Z" transform="translate(-105.76 -196.11)"/><path class="cls-81" d="M2390.84,4736.42s462.34,153.55,766.87,93.84c448.2-87.88,607.64-212.7,684.51-295.26s32.68-117.51,32.68-117.51-318.59,13.4-415.25,57.63-218.53,91.95-238.15,135.75,45,91.32-33.88,102.27-167.13-69.24-278.48-69.19S2497.3,4701.11,2390.84,4736.42Z" transform="translate(-105.76 -196.11)"/></g></svg>