<svg xmlns="http://www.w3.org/2000/svg" xmlns:xlink="http://www.w3.org/1999/xlink" viewBox="0 0 16357.83 10047.44"><defs><style>.cls-1{fill:#8cba4d;stroke:#50672e;stroke-width:39px;}.cls-1,.cls-10,.cls-11,.cls-12,.cls-13,.cls-15,.cls-16,.cls-18,.cls-19,.cls-20,.cls-21,.cls-22,.cls-24,.cls-25,.cls-26,.cls-27,.cls-31,.cls-35,.cls-38,.cls-4,.cls-41,.cls-42,.cls-43,.cls-44,.cls-45,.cls-46,.cls-47,.cls-48,.cls-49,.cls-5,.cls-50,.cls-51,.cls-52,.cls-53,.cls-54,.cls-55,.cls-56,.cls-57,.cls-58,.cls-59,.cls-60,.cls-61,.cls-62,.cls-63,.cls-64,.cls-65,.cls-66,.cls-67,.cls-68,.cls-69,.cls-70,.cls-71,.cls-72,.cls-73,.cls-74,.cls-75,.cls-76,.cls-77,.cls-78,.cls-8,.cls-80,.cls-81{stroke-miterlimit:10;}.cls-2{fill:#d3df6c;}.cls-3{fill:#8bba4a;}.cls-4{fill:#83552e;stroke-width:4px;}.cls-20,.cls-21,.cls-22,.cls-4,.cls-77,.cls-80{stroke:#030202;}.cls-16,.cls-18,.cls-24,.cls-35,.cls-5{fill:none;}.cls-5{stroke:#070909;stroke-width:5px;}.cls-6{fill:#070909;}.cls-7{fill:#ef636c;}.cls-8{fill:#d8eefa;stroke:#040708;}.cls-35,.cls-41,.cls-42,.cls-43,.cls-44,.cls-45,.cls-46,.cls-47,.cls-48,.cls-49,.cls-50,.cls-51,.cls-52,.cls-53,.cls-54,.cls-55,.cls-56,.cls-57,.cls-58,.cls-59,.cls-60,.cls-61,.cls-62,.cls-63,.cls-64,.cls-65,.cls-66,.cls-67,.cls-68,.cls-69,.cls-70,.cls-71,.cls-72,.cls-73,.cls-74,.cls-75,.cls-76,.cls-77,.cls-78,.cls-8,.cls-80{stroke-width:3px;}.cls-9{fill:#080909;}.cls-10{fill:#fefbeb;}.cls-10,.cls-11,.cls-12,.cls-13,.cls-15{stroke:#f1b7d0;}.cls-11{fill:#f9d2e1;stroke-width:54px;}.cls-12{fill:#f2b8d1;}.cls-13{fill:#e39ebc;}.cls-14{fill:#2a2a2a;}.cls-15{fill:#da6b66;}.cls-16,.cls-24{stroke:#c6bc9b;}.cls-16{stroke-width:87px;}.cls-17{fill:#e9deb4;}.cls-18{stroke:#e39ebc;stroke-width:64px;}.cls-19{fill:#c1e6f6;stroke:#2a2a2a;stroke-width:16px;}.cls-20{fill:#e11f28;stroke-width:31px;}.cls-21{fill:#31aae1;stroke-width:32px;}.cls-22{fill:#f2ea28;stroke-width:22px;}.cls-23{fill:#c6bc9b;}.cls-24{stroke-width:89px;}.cls-25{fill:#f3bd4c;stroke-width:21px;}.cls-25,.cls-26{stroke:#d39729;}.cls-26{fill:#d8bb28;stroke-width:38px;}.cls-27{fill:#efb424;stroke:#b47d2b;stroke-width:33px;}.cls-28{fill:#d35127;}.cls-29{fill:url(#linear-gradient);}.cls-30{fill:url(#linear-gradient-2);}.cls-31{fill:#f2d8db;stroke-width:12px;}.cls-31,.cls-35{stroke:#572f24;}.cls-32{fill:#69a847;}.cls-33{fill:#6d5438;}.cls-34{fill:#572f24;}.cls-36,.cls-78{fill:#fff;}.cls-37{fill:url(#linear-gradient-3);}.cls-38{stroke:#bf8b2c;fill:url(#radial-gradient);}.cls-39{fill:url(#linear-gradient-4);}.cls-40{fill:url(#linear-gradient-5);}.cls-41{fill:#b18a2e;}.cls-41,.cls-44,.cls-48,.cls-53,.cls-55,.cls-58,.cls-59,.cls-69,.cls-70{stroke:#040504;}.cls-42,.cls-71{fill:#af8c2f;}.cls-42,.cls-47{stroke:#090806;}.cls-43,.cls-44,.cls-68{fill:#e7b721;}.cls-43,.cls-46{stroke:#0c0c08;}.cls-45{fill:#d8a828;stroke:#0b0b0b;}.cls-46{fill:#cca52c;}.cls-47{fill:#fcda4c;}.cls-48{fill:#f7cd21;}.cls-49{fill:#fcda4b;}.cls-49,.cls-51,.cls-52,.cls-56{stroke:#070b08;}.cls-50{fill:#eab520;}.cls-50,.cls-57,.cls-60,.cls-71,.cls-78{stroke:#020202;}.cls-51{fill:#e3b723;}.cls-52{fill:#e6b722;}.cls-53{fill:#f9dd4e;}.cls-54{fill:#e1b624;stroke:#090e0a;}.cls-55,.cls-64{fill:#fbd222;}.cls-56{fill:#efc11b;}.cls-57{fill:#f9d41e;}.cls-58{fill:#e7b921;}.cls-59{fill:#e8b720;}.cls-60,.cls-69,.cls-73,.cls-74{fill:#fbd221;}.cls-61{fill:#d0a92b;stroke:#0a0a07;}.cls-62{fill:#fad225;}.cls-62,.cls-63,.cls-64,.cls-72,.cls-73{stroke:#030302;}.cls-63{fill:#cda72c;}.cls-65{fill:#d0a62b;stroke:#070504;}.cls-66{fill:#af8e2f;}.cls-66,.cls-67,.cls-68,.cls-75{stroke:#080605;}.cls-67{fill:#af8b2f;}.cls-70{fill:#f0be1a;}.cls-72{fill:#e7b422;}.cls-74{stroke:#0b0806;}.cls-75{fill:#af8d2f;}.cls-76{fill:#931b22;stroke:#060304;}.cls-77{fill:url(#linear-gradient-6);}.cls-79{fill:#251d1e;}.cls-80{fill:#030202;}.cls-81{stroke:#070406;stroke-width:2px;fill:url(#linear-gradient-7);}</style><linearGradient id="linear-gradient" x1="13572.63" y1="6150.86" x2="14174.18" y2="6150.86" gradientTransform="translate(48.88 -109.57) rotate(0.35)" gradientUnits="userSpaceOnUse"><stop offset="0.06" stop-color="#f37231"/><stop offset="0.15" stop-color="#e25f2e"/><stop offset="0.27" stop-color="#d24d2a"/><stop offset="0.42" stop-color="#c74028"/><stop offset="0.61" stop-color="#c03826"/><stop offset="1" stop-color="#be3626"/></linearGradient><linearGradient id="linear-gradient-2" x1="12241.78" y1="5953.84" x2="12921.1" y2="5953.84" xlink:href="#linear-gradient"/><linearGradient id="linear-gradient-3" x1="12917.53" y1="4242.02" x2="13542.21" y2="4242.02" gradientTransform="translate(3072.5 -3144.22) rotate(26.8)" gradientUnits="userSpaceOnUse"><stop offset="0" stop-color="#c4282d"/><stop offset="0.1" stop-color="#cc313c"/><stop offset="0.56" stop-color="#f0567e"/><stop offset="0.93" stop-color="#f39dc4"/></linearGradient><radialGradient id="radial-gradient" cx="15298.56" cy="5268.29" r="292.55" gradientTransform="matrix(1.48, 0.01, -0.01, 1.37, -6906.37, -2804.51)" gradientUnits="userSpaceOnUse"><stop offset="0.06" stop-color="#d87c28"/><stop offset="0.41" stop-color="#d19040"/><stop offset="0.74" stop-color="#cc9e50"/><stop offset="1" stop-color="#caa356"/></radialGradient><linearGradient id="linear-gradient-4" x1="12312.17" y1="7479.63" x2="12740.74" y2="7479.63" xlink:href="#linear-gradient"/><linearGradient id="linear-gradient-5" x1="11586.78" y1="7784.28" x2="12212.43" y2="7784.28" xlink:href="#linear-gradient"/><linearGradient id="linear-gradient-6" x1="126.61" y1="6734.73" x2="5113.38" y2="6734.73" gradientTransform="translate(-769.93 496.66) rotate(-7.9)" gradientUnits="userSpaceOnUse"><stop offset="0" stop-color="#a71f23"/><stop offset="0.22" stop-color="#c71d2e"/><stop offset="0.44" stop-color="#e31b37"/><stop offset="0.57" stop-color="#ed1a3b"/><stop offset="0.97" stop-color="#f0567d"/></linearGradient><linearGradient id="linear-gradient-7" x1="2153.85" y1="7438.08" x2="3676.3" y2="7438.08" gradientTransform="translate(-769.93 496.66) rotate(-7.9)" gradientUnits="userSpaceOnUse"><stop offset="0" stop-color="#c4262d"/><stop offset="0.09" stop-color="#cc2e3b"/><stop offset="0.56" stop-color="#f0567d"/><stop offset="0.93" stop-color="#f49ec4"/></linearGradient></defs><title>SAbanner</title><g id="fry-2" data-name="fry"><path class="cls-1" d="M6533.54,8032.82c51.34-4.46,834.05-162.16,883.45-177.12,280.68-85,856-316.12,1141.75-608.28C8969,6828,9299.69,6472.69,9091.28,5925.86S8161.81,4394.94,8001.38,4247.08s-480.26-600.06-567-786.87-609.7-513.81-1279.84-438.48-1131,432.87-1342,788c-120.84,203.31-182.59,1034.49-284.67,1175.32S4119.44,6113.28,4161.74,6645.6s386.13,1184,1030.9,1306.1C5734.12,8054.24,6274,8055.39,6533.54,8032.82Z"/><path class="cls-2" d="M6545.59,7817.38c45.15-3.76,733-142.33,776.37-155.61,246.5-75.45,751.47-281.68,1001.29-544.78,358.66-377.72,647.71-697.76,461.33-1194.26S7958.37,4530.8,7816.4,4396,7390.54,3849.75,7313.22,3680s-539.28-468.79-1128.52-404.22S5192,3661.77,5008.17,3982.34c-105.21,183.52-155,936.13-244,1063.14s-353.19,1019.79-313.05,1502.24S4797.31,7622.4,5365.3,7736.55C5842.31,7832.41,6317.35,7836.4,6545.59,7817.38Z"/><ellipse class="cls-3" cx="6524.5" cy="5688.51" rx="1386.12" ry="1407.01" transform="translate(-997.5 1405.07) rotate(-11.42)"/><ellipse class="cls-4" cx="6513.16" cy="5684.58" rx="1183.63" ry="1290.95" transform="translate(-996.94 1402.75) rotate(-11.42)"/><path class="cls-5" d="M5710.71,5765.61s396.42,203,711,144.79,567-173.34,652.08-254.64S7292.52,5446,7292.52,5446"/><path class="cls-6" d="M5841.91,5840.6s-14,505,62.49,596.38c39.7,47.43,166.28,195.11,532.68,159.46,305.86-29.76,536-117.89,649.76-143.36,39.74-8.9,76.09-26.81,104-51.23,64.88-56.82,127.11-132.84,162.27-225.57,33.83-89.23-59.25-436.77-101.65-503s-57.66-105.88-57.66-105.88-287.65,191.68-447.63,261.41-396.16,85.4-512.84,82.27S5841.91,5840.6,5841.91,5840.6Z"/><path class="cls-7" d="M6403,6571.27,6953.48,6460s-74.26-188-145-179-130.32,37-126.18,57.55-24.42,76.54-24.42,76.54-65.82-92.42-93.49-85.8-110.55-8.68-127,53.41S6403,6571.27,6403,6571.27Z"/><ellipse class="cls-8" cx="6089.9" cy="5231.94" rx="383.88" ry="382.53" transform="translate(-915.67 1309.94) rotate(-11.42)"/><ellipse class="cls-8" cx="6840.57" cy="5164.75" rx="311.9" ry="335.76" transform="translate(-887.49 1457.3) rotate(-11.42)"/><ellipse class="cls-9" cx="6206.37" cy="5286.12" rx="103.42" ry="76.18" transform="translate(-924.1 1334.09) rotate(-11.42)"/><ellipse class="cls-9" cx="6737.87" cy="5178.72" rx="103.42" ry="76.18" transform="translate(-892.29 1437.24) rotate(-11.42)"/><path class="cls-10" d="M8104.65,5106.61S7724.3,5474,7946.17,5841.35s887.49,621.7,1426.32,664.09,2091.93,14.13,2662.46-169.55,833-480.4,833-650-72.3-423.88-230.78-522.79,0-268.46-206-494.53-301.11-113-301.11-113,174.33-367.37-95.09-664.09c0,0-475.44-438-760.7-409.76s-380.35,56.52-380.35,56.52,205.57-260.87,126.78-339.11c-176.93-175.7-538.83-183.68-808.25,0s-618.07,339.11-618.07,339.11-491.29-42.39-713.16,226.07-301.11,579.31-301.11,621.7-317,288.83-348.66,419.94S8104.65,5106.61,8104.65,5106.61Z"/><path class="cls-11" d="M8469.15,6262.83l237.72,1189.28s443.74,650,1537.25,579.31,1632.34-141.29,1743.28-508.66S12241,6274.62,12241,6274.62s-1061.81,273.21-1885.91,259.08S8469.15,6262.83,8469.15,6262.83Z"/><path class="cls-12" d="M8633.28,7102.18s-32.22,688.27,914.13,891.27c916.25,196.54,2086.87-162.93,2171.6-186.33,196.92-54.38,298.31-336,298.31-427.91s62.54-226.34,62.54-226.34-649.62,373.75-1054.23,420.29-1081.78,109.07-1473.08,0S8633.28,7102.18,8633.28,7102.18Z"/><path class="cls-13" d="M8469.15,6262.83l34.19,221.49s895.93,265.37,2014.55,222.93,1694.66-222.47,1694.66-222.47l28.42-210.17s-760.59,217.84-1885.91,210.76S8469.15,6262.83,8469.15,6262.83Z"/><path class="cls-14" d="M9737,4767.51s538.83,226.07,697.31,226.07,649.77-31.82,649.77-31.82-174.33,225.11-174.33,538.22-31.7,539.18-31.7,539.18-610.2,141.29-927.16,0-435.76-494.53-388.22-791.25S9737,4767.51,9737,4767.51Z"/><path class="cls-15" d="M9607.91,5662.51s78.1,352.13,468.06,417.32c380.81,63.66,674.35-23.58,674.35-23.58s-105.79-390.17-216.85-397.25-171.89,17.66-235.36,53-134.87,120.24-134.87,120.24-100.43-239.86-206.27-240.49C9750.7,5590.56,9607.91,5662.51,9607.91,5662.51Z"/><path class="cls-16" d="M8097.81,5106.61S7717.46,5474,7939.33,5841.35s887.49,545.1,1426.32,587.49,2091.93,90.73,2662.46-93,833-480.4,833-650-72.3-423.88-230.78-522.79,0-268.46-206-494.53-301.11-113-301.11-113,174.33-367.37-95.09-664.09c0,0-475.44-438-760.7-409.76s-380.35,56.52-380.35,56.52,205.57-260.87,126.78-339.11c-176.93-175.7-538.83-183.68-808.25,0s-618.07,339.11-618.07,339.11-491.29-42.39-713.16,226.07-301.11,579.31-301.11,621.7-317,288.83-348.66,419.94S8097.81,5106.61,8097.81,5106.61Z"/><path class="cls-17" d="M7923.68,5381.8s211.48,546.78,761.31,669.33,2188.77,122.55,2188.77,122.55,1184.26-18.85,1438-254.53,444.1-537.35,444.1-537.35,149.35,338.2,85.91,441.9-614.6,510.25-1005.83,585.66-1691.8,75.42-2051.31,75.42S8484.09,6305.67,8283.19,6202s-380-461.93-390.57-537.35S7923.68,5381.8,7923.68,5381.8Z"/><line class="cls-18" x1="8864.74" y1="6428.22" x2="9107.94" y2="7776.31"/><line class="cls-18" x1="9488.49" y1="6484.78" x2="9594.33" y2="7955.43"/><line class="cls-18" x1="10365.48" y1="6543.7" x2="10365.48" y2="8002.56"/><line class="cls-18" x1="11190.97" y1="6484.78" x2="11106.3" y2="7955.43"/><line class="cls-18" x1="11857.12" y1="6428.22" x2="11635.07" y2="7776.31"/><ellipse class="cls-19" cx="10202.33" cy="4321.24" rx="375.37" ry="334.67"/><ellipse class="cls-19" cx="10842" cy="4241.11" rx="264.3" ry="254.53"/><ellipse class="cls-6" cx="10144.17" cy="4321.24" rx="142.75" ry="127.27"/><ellipse class="cls-6" cx="10862.9" cy="4259.75" rx="121.84" ry="108.63"/><path class="cls-20" d="M11198.37,4341.89c21.15,46.93,81.52,69.89,134.15,51l195.82-70.15c52.63-18.86,78.39-72.68,57.24-119.61"/><path class="cls-20" d="M11585.59,4203.17c-21.15-46.93-81.52-69.89-134.15-51l-195.82,70.15c-52.63,18.86-78.39,72.68-57.24,119.61"/><path class="cls-20" d="M11740.81,5686c56.72,0,103.14-41.38,103.14-92V5405.9c0-50.57-46.41-92-103.14-92"/><path class="cls-20" d="M11740.81,5313.95c-56.72,0-103.14,41.38-103.14,92v188.15c0,50.57,46.41,92,103.14,92"/><path class="cls-20" d="M8952.16,4180.58c0,50.57,46.41,92,103.14,92h211c56.72,0,103.14-41.38,103.14-92"/><path class="cls-20" d="M9369.46,4180.58c0-50.57-46.41-92-103.14-92h-211c-56.72,0-103.14,41.38-103.14,92"/><path class="cls-20" d="M11139.41,6341.45c56.72,0,103.14-41.38,103.14-92V6061.34c0-50.57-46.41-92-103.14-92"/><path class="cls-20" d="M11139.41,5969.39c-56.72,0-103.14,41.38-103.14,92V6249.5c0,50.57,46.41,92,103.14,92"/><path class="cls-20" d="M12174.91,5733.61c33.42,40.87,98.26,49.92,144.1,20.13l170.53-110.85c45.84-29.79,56-87.61,22.58-128.47"/><path class="cls-20" d="M12512.12,5514.42c-33.42-40.87-98.26-49.92-144.1-20.13l-170.53,110.85c-45.84,29.79-56,87.61-22.58,128.47"/><path class="cls-20" d="M8867.57,5863.24c0,50.57,46.41,92,103.14,92h211c56.72,0,103.14-41.38,103.14-92"/><path class="cls-20" d="M9284.87,5863.24c0-50.57-46.41-92-103.14-92h-211c-56.72,0-103.14,41.38-103.14,92"/><path class="cls-21" d="M9591.62,4001c56.72,0,103.14-41.38,103.14-92V3720.88c0-50.57-46.41-92-103.14-92"/><path class="cls-21" d="M9591.62,3628.93c-56.72,0-103.14,41.38-103.14,92V3909c0,50.57,46.41,92,103.14,92"/><path class="cls-21" d="M10976.36,4811.7c24.33-45.69,2.31-100.81-48.93-122.5l-190.64-80.7c-51.24-21.69-113.07-2.06-137.4,43.62"/><path class="cls-21" d="M10599.38,4652.12c-24.33,45.69-2.31,100.81,48.93,122.5l190.64,80.7c51.24,21.69,113.07,2.06,137.4-43.62"/><path class="cls-21" d="M11033.89,5605.17c0,50.57,46.41,92,103.14,92h211c56.72,0,103.14-41.38,103.14-92"/><path class="cls-21" d="M11451.2,5605.17c0-50.57-46.41-92-103.14-92h-211c-56.72,0-103.14,41.38-103.14,92"/><path class="cls-21" d="M11535.08,3969.95c-9.46,49.86,28.55,97.57,84.48,106l208.08,31.39c55.93,8.44,109.43-25.46,118.9-75.32"/><path class="cls-21" d="M11946.54,4032c9.46-49.86-28.55-97.57-84.48-106L11654,3894.63c-55.93-8.44-109.43,25.46-118.9,75.32"/><path class="cls-21" d="M8562.74,5157.88c19.15,47.61,78.5,72.59,131.9,55.52l198.65-63.51c53.4-17.07,81.42-70,62.27-117.59"/><path class="cls-21" d="M8955.55,5032.29c-19.15-47.61-78.5-72.59-131.9-55.52L8625,5040.29c-53.4,17.07-81.42,70-62.27,117.59"/><path class="cls-21" d="M9082.83,6190.77c0,50.57,46.41,92,103.14,92h211c56.72,0,103.14-41.38,103.14-92"/><path class="cls-21" d="M9500.14,6190.77c0-50.57-46.41-92-103.14-92H9186c-56.72,0-103.14,41.38-103.14,92"/><path class="cls-22" d="M11587.31,4824.52c-9.46,49.86,28.55,97.57,84.48,106l208.08,31.39c55.93,8.44,109.43-25.46,118.9-75.32"/><path class="cls-22" d="M11998.77,4886.6c9.46-49.86-28.55-97.57-84.48-106l-208.08-31.39c-55.93-8.44-109.43,25.46-118.9,75.32"/><path class="cls-22" d="M11638.22,6022.56c-9.46,49.86,28.55,97.57,84.48,106l208.08,31.39c55.93,8.44,109.43-25.46,118.9-75.32"/><path class="cls-22" d="M12049.68,6084.63c9.46-49.86-28.55-97.57-84.48-106l-208.08-31.39c-55.93-8.44-109.43,25.46-118.9,75.32"/><path class="cls-22" d="M9079.14,4886.9c-9.46,49.86,28.55,97.57,84.48,106l208.08,31.39c55.93,8.44,109.43-25.46,118.9-75.32"/><path class="cls-22" d="M9490.6,4949c9.46-49.86-28.55-97.57-84.48-106L9198,4811.58c-55.93-8.44-109.43,25.46-118.9,75.32"/><path class="cls-22" d="M8323.76,5456.86c-56.71,1-102.22,43.14-101.13,93.71l4.06,188.12c1.09,50.56,48.39,91.14,105.1,90.16"/><path class="cls-22" d="M8331.79,5828.85c56.71-1,102.22-43.14,101.13-93.71L8428.86,5547c-1.09-50.56-48.39-91.14-105.1-90.16"/><path class="cls-22" d="M10010.95,6394.68c32.34,41.55,96.93,52,143.53,23.12l173.38-107.27c46.6-28.83,58.27-86.42,25.93-128"/><path class="cls-22" d="M10353.78,6182.55c-32.34-41.55-96.93-52-143.53-23.12l-173.38,107.27c-46.6,28.83-58.27,86.42-25.93,128"/><path class="cls-22" d="M11036.81,3754.65c-9.46,49.86,28.55,97.57,84.48,106l208.08,31.39c55.93,8.44,109.43-25.46,118.9-75.32"/><path class="cls-22" d="M11448.27,3816.73c9.46-49.86-28.55-97.57-84.48-106l-208.08-31.39c-55.93-8.44-109.43,25.46-118.9,75.32"/><path class="cls-22" d="M10159.75,3376.27c-9.46,49.86,28.55,97.57,84.48,106l208.08,31.39c55.93,8.44,109.43-25.46,118.9-75.32"/><path class="cls-22" d="M10571.21,3438.34c9.46-49.86-28.55-97.57-84.48-106l-208.08-31.39c-55.93-8.44-109.43,25.46-118.9,75.32"/><path class="cls-23" d="M8831,4628.73c-.5-9.9-4.15-20.18-12.58-27.08a48.63,48.63,0,0,0-30.37-11.22q-8-.19-16-.94a240.71,240.71,0,0,1-44.46-10.94,248.4,248.4,0,0,1-43.17-22.58,234.84,234.84,0,0,1-35.92-32,203.13,203.13,0,0,1-24.24-36.81,171.14,171.14,0,0,1-12.34-41.72,28,28,0,0,0-7.69-13,31.38,31.38,0,0,0-12.05-9.86c-9.21-4.8-22.78-6.84-33.1-3.86s-20.42,8.74-25.67,17.6l-4.33,9.15a34.54,34.54,0,0,0,0,20.36c3.43,21.56,11.55,41.86,21.78,61.57s24.18,37.37,39.77,53.89,34.22,30.66,54,43.19,41.5,21.86,64.12,29.35c25.19,8.34,52.46,12.58,79.28,13.23,10.82.26,22.79-4.46,30.37-11.22S8831.44,4638.27,8831,4628.73Z"/><path class="cls-23" d="M8561.08,5332.43c-.5-9.9-4.15-20.18-12.58-27.08s-18.82-11.42-30.37-11.22a280.92,280.92,0,0,1-32.47-1.32,318.62,318.62,0,0,1-62.25-15.54,389.37,389.37,0,0,1-72.73-38.38c-31-21.95-58.57-47.58-83.86-74.68q-9.34-10-18.32-20.29c-18.65-21.72-36.4-44-54.11-66.34a30.51,30.51,0,0,0-11.06-10.75,33.81,33.81,0,0,0-14.61-6.85,36.34,36.34,0,0,0-17.13-.68,34.74,34.74,0,0,0-16,4.54c-9.17,5.27-17.25,13.12-19.74,22.89-2.44,9.55-2.27,21.19,4.33,29.51,38.34,48.33,77,97.17,123.59,139.56a512.12,512.12,0,0,0,78.22,58.63,417.67,417.67,0,0,0,87.85,39.9A312.31,312.31,0,0,0,8458,5366c19.81,3.12,40,5.12,60.09,4.76,11.15-.2,22.43-4.13,30.37-11.22C8555.95,5352.86,8561.56,5342,8561.08,5332.43Z"/><path class="cls-23" d="M10976.45,3513.75c-52.9-12.44-108.33-14.1-162.55-9.31-55.59,4.91-110.29,14.95-165.06,24.45-27.46,4.77-55,9.31-82.68,12.78-41.65,4.68-83.83,6.52-125.59,2.13q-7.52-1-15-2.3c-11.48-2-22.73-1.55-33.1,3.86-8.91,4.65-17.41,13.76-19.74,22.89-2.5,9.8-2,20.81,4.33,29.51,5.79,8,14.78,15.72,25.67,17.6,51.66,8.9,103.85,9.16,156,3.72,52.88-5.52,104.94-15,157.16-24,25.85-4.46,51.76-4,77.84-7.24C10834.71,3583.19,10987.45,3516.34,10976.45,3513.75Z"/><path class="cls-23" d="M12199.75,4427.32a28.58,28.58,0,0,0-8.88-12.33c-7.45-6.64-19.67-11.64-30.37-11.22-11.11.44-22.63,3.7-30.37,11.22l-6.72,7.75a35,35,0,0,0-5.86,19.33c-.78,10-1.82,20-3.19,30-4.22,25.67-10.93,51-21.69,75.18a212.15,212.15,0,0,1-25.22,39.26,199.58,199.58,0,0,1-29.15,26.05,190.83,190.83,0,0,1-30.61,16.1,171.24,171.24,0,0,1-28.19,7,161.42,161.42,0,0,1-16.29.5,46.83,46.83,0,0,0-30.37,11.22c-7.45,6.64-13.06,17.54-12.58,27.08.5,9.9,4.15,20.18,12.58,27.08a48.44,48.44,0,0,0,30.37,11.22c55.5,1.12,108.58-21.82,148-55.63,40.27-34.53,65.38-81.38,78.4-129.33,7.62-28,11.6-57,13.84-85.73A26.3,26.3,0,0,0,12199.75,4427.32Z"/><path class="cls-23" d="M12580.06,5040.33c-5.21-7.94-15.43-15.52-25.67-17.6-11-2.23-23.34-1.75-33.1,3.86-9.11,5.23-17.38,13.14-19.74,22.89-8.18,33.86-17.08,67.67-29.76,100.45q-4.52,11.67-9.74,23.11a279.36,279.36,0,0,1-34.63,54.49,160.59,160.59,0,0,1-66,46.35,276,276,0,0,1-52.64,12.31c-45.73,4.69-92,1.19-137.63-2.69a35.63,35.63,0,0,0-16.55,3.3,32.86,32.86,0,0,0-13.82,7.92c-7.45,6.64-13.06,17.54-12.58,27.08.5,9.9,4.15,20.18,12.58,27.08l8.69,6a46.8,46.8,0,0,0,21.68,5.23c39.82,3.38,79.93,6.46,119.93,4.12,45.73-2.67,91.14-11.49,131.13-32.19,34.57-17.9,62.51-43.46,84.92-72.73,20.88-27.27,35.7-58.31,47.7-89.42,11.24-29.15,19.51-59.14,27-89.22q1.34-5.41,2.64-10.82C12586.82,5059.79,12586,5049.39,12580.06,5040.33Z"/><path class="cls-24" d="M8106.53,5094.25S7726.18,5461.62,7948.05,5829s887.49,545.1,1426.32,587.49,2091.93,90.73,2662.46-93,833-480.4,833-650-72.3-423.88-230.78-522.79,0-268.46-206-494.53-301.11-113-301.11-113,174.33-367.37-95.09-664.09c0,0-475.44-438-760.7-409.76s-380.35,56.52-380.35,56.52,205.57-260.87,126.78-339.11c-176.93-175.7-538.83-183.68-808.25,0s-618.07,339.11-618.07,339.11-491.29-42.39-713.16,226.07S8582,4331.26,8582,4373.65s-317,288.83-348.66,419.94S8106.53,5094.25,8106.53,5094.25Z"/><path class="cls-25" d="M12545,4556.07s-173.24,316.76-197.38,528.5,94.39,434.94,94.39,434.94-178.17,189.6-190.5,337.85-106.09,539.66-129.32,603.08-230.53,348.19-242.47,432.88S11762.87,7327,11762.87,7327s-126.13,84-127.11,242.89-46.59,148-81.1,190.2-104,200.65-104,200.65-253.69,401-185.57,465,308.64-51.08,434.7-124.46,355.62-262.67,469.87-272.57,240.71-146.84,355.23-199.11,654.14-525.7,734.07-525.21,665.88-578.59,711.75-610.1,747.05-779.39,782.09-906.3,219.83-466,276.93-465.63,206.24-112.45,195.87-282.84-102.05-118-170.57-118.4-250.57-107.48-307.6-118.43-410.77-54.31-513.54-54.94-170.82-76.4-296.37-87.76-262.44-33.39-365.21-34-205.14-33-319.24-65.53S12545,4556.07,12545,4556.07Z"/><path class="cls-26" d="M11310.13,8423.91s204.68,141.86,341.77,132.11,2441.49-1489.39,2521.95-1573.65,883.36-662,907.24-831.37,288.86-549.13,312-591.36,275-157.22,412.52-230.54,459.23-399.76,460.6-622.23-7.13-699.26-155.12-774.33-387.74-85.35-479.42-32.94-399.93,246.15-402.41,546.65c-1.95,235.57-44.32,468.07-44.32,468.07s43.67,269.73-81.8,340.53-280.89,333-327.28,445.59-608.05,786.44-858.32,1020-603.86,524.41-603.86,524.41-348.83,269.54-637.5,460.17-370,248.85-507,303.29-469.87,272.57-469.87,272.57Z"/><path class="cls-27" d="M12534.92,4566l616.72-10.34s296,73.35,410.61,80.21,399.44,26.07,482.76,70.83,516.28,70.19,633.75,98.77,258.16,129.8,366.21,125.54,145.07,30,145.07,30,39.13-402.63,55.49-589.18c9.6-109.47,206.4-430.46,457.07-441.25s296.41-14.19,296.41-14.19-295.88-167.92-432.9-168.76-137.35,52.13-616.63-3.79-708.18,27.43-867.85-5.33-433-151-592.88-152-445.08-45.11-616.63-3.79-401,220-424.72,357.6-104.27,243-105.18,391.34S12534.92,4566,12534.92,4566Z"/><path class="cls-28" d="M12522.35,7062.4c-167.23,182-414,241.63-551.19,133.13s-112.81-344,54.42-526.06,414-241.63,551.19-133.13S12689.59,6880.37,12522.35,7062.4Z"/><path class="cls-29" d="M14059.83,6278c-135.32,134.82-323.63,176.19-420.59,92.41s-65.87-261,69.46-395.8,323.63-176.19,420.59-92.41S14195.15,6143.23,14059.83,6278Z"/><path class="cls-30" d="M12754.41,6084.17c-165.74,141-372.13,182.41-461,92.52s-26.53-277.06,139.21-418,372.13-182.41,461-92.52S12920.15,5943.18,12754.41,6084.17Z"/><path class="cls-28" d="M12957.36,5215.84c-165.74,141-396.89,157.36-516.29,36.57s-81.83-333,83.91-474,396.89-157.36,516.29-36.57S13123.1,5074.85,12957.36,5215.84Z"/><path class="cls-28" d="M14739.74,5452.22c-165.74,141-382.48,171.94-484.1,69.14s-49.64-300.44,116.1-441.43,382.48-171.94,484.1-69.14S14905.48,5311.23,14739.74,5452.22Z"/><path class="cls-28" d="M13364.07,7130.89c-147.77,125.7-341.3,153-432.28,61s-44.94-268.54,102.83-394.24,341.3-153,432.28-61S13511.84,7005.19,13364.07,7130.89Z"/><path class="cls-31" d="M13615.85,5230.66c-103.14,267.06-346.92,430.2-544.49,364.38s-274.13-335.68-171-602.74,346.92-430.2,544.49-364.38S13719,4963.59,13615.85,5230.66Z"/><path class="cls-31" d="M14170.19,5361.41c-52.93,279.44-263.4,478.52-470.1,444.65s-331.36-287.86-278.43-567.3,263.4-478.52,470.1-444.65S14223.12,5082,14170.19,5361.41Z"/><path class="cls-32" d="M13401,5260.5c-42.62,139.24-160.67,230.06-263.68,202.84s-152-162.16-109.34-301.4,160.67-230.06,263.68-202.84S13443.58,5121.26,13401,5260.5Z"/><path class="cls-32" d="M14006,5370.44c-30.65,161.82-152.53,277.1-272.22,257.49s-191.88-166.69-161.23-328.51,152.53-277.1,272.22-257.49S14036.7,5208.62,14006,5370.44Z"/><path class="cls-33" d="M13328.19,5234.14c-24.35,79.57-91.81,131.47-150.68,115.91s-86.84-92.67-62.48-172.23,91.81-131.47,150.68-115.91S13352.54,5154.57,13328.19,5234.14Z"/><ellipse class="cls-33" cx="13795.72" cy="5332.97" rx="149.81" ry="110.79" transform="translate(8378.14 19095.69) rotate(-89.65)"/><path class="cls-34" d="M12581.79,5772.11s48.91,178.31,54.45,298.62,2.84,524,196.72,624.3,430.27-.72,495.28-55,288.58-227.25,403.45-342.89c67.93-68.4,226.49-198.86,226.49-198.86s-369,136.76-454.28,143.85-351,39.2-498.19-49.3-305-219-320.52-259.23S12581.79,5772.11,12581.79,5772.11Z"/><path class="cls-35" d="M12564.61,5811.42s48.91,178.31,54.45,298.62,2.84,524,196.72,624.3,430.27-.72,495.28-55,288.58-227.25,403.45-342.89c67.93-68.4,226.49-198.86,226.49-198.86s-369,136.76-454.28,143.85-351,39.2-498.19-49.3-305-219-320.52-259.23S12564.61,5811.42,12564.61,5811.42Z"/><path class="cls-36" d="M12606.75,5944.18s34.14,162,26,177,207.23,238.42,398.37,295.08,562.32-9.44,562.32-9.44L13738.68,6263s-420.81,99.33-579.64,57.82-328.13-149.15-391.65-207.18S12606.75,5944.18,12606.75,5944.18Z"/><path class="cls-37" d="M12701,6445.1s-1.45,235.47,196.92,276c186.09,38,284.74,15.8,345.71-21.54s62.87-74.11,62.87-74.11-105.3-77.62-155.25-72.79-109.33,5.24-135.09,30.83-26.91,76.84-56.41,63-21-94.62-55.77-125S12750,6449.25,12701,6445.1Z"/><path class="cls-38" d="M15996.89,4652.8c-83.41,263.53-278.5,442.33-435.75,399.37s-217.1-291.42-133.69-554.95,278.5-442.33,435.75-399.37S16080.3,4389.27,15996.89,4652.8Z"/><path class="cls-39" d="M12646.91,7565.94c-99.12,84.32-232.19,99.34-297.21,33.56s-37.39-187.46,61.73-271.78,232.19-99.34,297.21-33.56S12746,7481.63,12646.91,7565.94Z"/><path class="cls-40" d="M12075.69,7924.89c-143.45,122-338.19,141.59-435,43.69s-58.93-276.18,84.52-398.21,338.19-141.59,435-43.69S12219.13,7802.86,12075.69,7924.89Z"/><path class="cls-41" d="M3259.5,3543.4l417.62-21.93,181-139.19s-201.43-8.07-307.89,18.71S3259.5,3543.4,3259.5,3543.4Z"/><path class="cls-42" d="M3695.14,3507l152.34-129.21s188.16,201.11,223.82,313.7,285.25,756.38,285.25,756.38l-361.21,428.37s.94-498.45-56.35-622.58S3695.14,3507,3695.14,3507Z"/><path class="cls-43" d="M3262.77,3567s367.43,987.67,374,1034.79,342.17,444.83,342.17,444.83,49.25-511.16,45.18-612.66-348.61-924.24-348.61-924.24Z"/><polygon class="cls-44" points="2604.73 3396.11 2787.75 5099.81 3243.61 4968.51 3031.61 3440.94 2604.73 3396.11"/><polygon class="cls-45" points="2419.08 3597.99 2608.55 3423.6 2859.27 5085.89 2496.23 5164.29 2419.08 3597.99"/><path class="cls-46" d="M2069.21,3386.38,2262.85,4060l259.28,88.1s-18.48-325.64-61-439.82-87.83-248-165.89-281.17S2069.21,3386.38,2069.21,3386.38Z"/><path class="cls-47" d="M1484,3547.65,1702.63,4594l291-20.37L2261.78,3956l-173.46-576.31S1876,3389.18,1761.86,3433,1484,3547.65,1484,3547.65Z"/><path class="cls-48" d="M961.38,4256.58,561.75,4408.1s139.08,521,201.83,636.41,370.56,456.9,370.56,456.9l170.33-23.64s-134.13-677.83-157-794.73S961.38,4256.58,961.38,4256.58Z"/><path class="cls-49" d="M1280.45,5449.08s-69.74-550.68-154.31-775.09-329-638.78-329-638.78,212.92-101.6,305.73-106.47,175.75,111.7,208,151.26,321.94,587.73,321.94,587.73L1477,5421.81Z"/><path class="cls-50" d="M1169.45,3927.51l416.36,690.7,251.13-66.87S1704.88,4321.5,1611,4222.46s-179.54-235.25-222.67-257.28S1169.45,3927.51,1169.45,3927.51Z"/><path class="cls-51" d="M810,4849.95s-222.19,34.84-348.3,88.36S172.9,5118.48,245,5108.48s267.5-45.13,342.3-83.53S810,4849.95,810,4849.95Z"/><polygon class="cls-52" points="596.55 4995.65 830.23 4851.15 1188.17 5553.95 1032.54 5779.68 596.55 4995.65"/><path class="cls-53" d="M234,5126l305,610.09,399.61-55.46-327.92-679s-102.65,78.29-181.26,89.2S234,5126,234,5126Z"/><path class="cls-54" d="M1647.26,5590.3s244-21.86,251.11,29.19,88.9,351.9,88.9,351.9L1781.44,6076Z"/><polygon class="cls-55" points="1906.55 5630.37 1958.87 6007.35 2423.99 5942.8 2335.11 5494.84 1906.55 5630.37"/><path class="cls-56" d="M1650.53,5613.86l262,59.7,412.73-153.34-211.79-82.68s-96.62-22.61-235.84,32.73S1650.53,5613.86,1650.53,5613.86Z"/><path class="cls-57" d="M1543.22,4648.13s250,21.34,336.81,21.3,138.42,997.44,138.42,997.44l-651.78-77.65Z"/><path class="cls-58" d="M1554.14,4630.61s214,50.36,313.33,44.57,262-36.37,262-36.37-128.26-106.28-253.27-92.93S1554.14,4630.61,1554.14,4630.61Z"/><polygon class="cls-59" points="1953.72 4671.21 2061.53 5881.03 2391.24 5899.32 2160.07 4666.59 1953.72 4671.21"/><path class="cls-60" d="M2454.48,3949.3l-393.06,54.55S1910.67,4361,1881.71,4489.08s35.79,1027.69,35.79,1027.69l471.67-65.46s-33.21-383.64-30.46-460.07-40.84-438.62-25-564.9S2454.48,3949.3,2454.48,3949.3Z"/><path class="cls-61" d="M2454.48,3949.3s-142.58,416-142.08,612.1,113.35,816.8,113.35,816.8l285-111.6s-145.14-276-151.65-467.27,75.48-610.86,88-664.64S2454.48,3949.3,2454.48,3949.3Z"/><path class="cls-62" d="M2908.42,5007s-479.32,106.54-561.78,234.06,48.42,685.72,48.42,685.72l254.31,340.95,203.08-28.18s4.42-208.75,86.32-292.16-54-292.7-62.67-451.6S2908.42,5007,2908.42,5007Z"/><path class="cls-63" d="M2990.64,5888.18S2882.09,5539,2889.75,5449.89s17.56-402.69,35-421.13,253.82,96.86,253.82,96.86-76.11,269.52-70.3,311.34S3203,5734.63,3203,5734.63Z"/><path class="cls-64" d="M3006.9,4177S2681.35,4285,2648,4333.08,2956.76,6029,2956.76,6029s276.33-270.18,387.7-285.64S3006.9,4177,3006.9,4177Z"/><path class="cls-65" d="M3374.58,5719.83s-102-782.77-194.43-968-156.87-553-163.44-600.37,161.8-36.94,200.47,1.16,237.4,459.7,237.4,459.7,223.92,988,237.73,1087.53S3374.58,5719.83,3374.58,5719.83Z"/><path class="cls-66" d="M2920.64,3612.44l621.74-58.27L3764,3375.32s-237.2.9-501.51,69.6S2920.64,3612.44,2920.64,3612.44Z"/><path class="cls-67" d="M3943.79,4539.13,3511.7,3530.41l234.41-152.61s213.37,90.47,253.32,181,205.18,491.86,205.18,491.86Z"/><path class="cls-68" d="M3856.63,4963.49S3974.16,4494.89,3966,4436s-443.15-891.11-443.15-891.11l-582.11,80.78L3543.19,5007Z"/><path class="cls-69" d="M1519.56,5439.92s-138.1-32.87-274.58-5.92-222.73,30.91-236.39,76.83,216,642.45,216,642.45L1659.66,6257l75.91-126.61S1592,5914.17,1577.33,5808.14,1519.56,5439.92,1519.56,5439.92Z"/><path class="cls-70" d="M1505.36,5433.88s120,527.7,129.78,598.38,60,191.8,60,191.8l139.8-195.51-116.69-552.17S1622.74,5413.59,1505.36,5433.88Z"/><path class="cls-71" d="M3396.52,5019.44s215.57-225.16,359.8-287.55c141.9-61.38-248.18,25.12-385.17,104.7s-163.44,209-163.44,209l145.24-20.16"/><path class="cls-72" d="M3399.69,5042.3s-183.17-39.81-188.81,26.2,216.84,869.12,216.84,869.12l332.85,51.65s-112.43-543.49-185.76-645.13S3399.69,5042.3,3399.69,5042.3Z"/><path class="cls-73" d="M3993,6064.17s272-387.17,265.61-432.89-447.67-879-447.67-879-401,97.58-412.25,229.6,275.66,492.88,283.62,603.6,44.12,371.27,44.12,371.27Z"/><path class="cls-74" d="M4079.31,5264.8s175.82-176.5,313.39-195.59S4334,4020.68,4334,4020.68s-263.7,120.65-357,121.6-27.49,812.33-27.49,812.33S3969.06,5144,4079.31,5264.8Z"/><polygon class="cls-75" points="4346 4011.01 4435.28 5039.28 4684.22 5004.73 4546.89 4015.15 4346 4011.01"/><polygon class="cls-76" points="4774.35 4788.1 5023.24 4945.68 4512.26 5016.59 4774.35 4788.1"/><polygon class="cls-76" points="450.66 5580.25 107.78 5803.95 762.88 5713.03 450.66 5580.25"/><path class="cls-77" d="M97.95,5829.33l1226.54,2679.6s123.37,22.9,288.24-40,928.08-240.87,1569-337.82S4901.32,8012.54,5040,7953.27s-25.5-2974.36-25.5-2974.36-678,63.78-800.26,144.79-10.47,171.85-58,310.53c-37,107.92-148.59,468.91-476.17,610.43-250.88,108.39-599.44,203.27-928.08,240.87-197,22.54-744.62,71.32-1263.19-56.85-228.39-56.44-378.12-411.12-451.89-465.62-35.1-25.93-9.81-70.68-285-32.5S97.95,5829.33,97.95,5829.33Z"/><path class="cls-78" d="M2567.75,6116.56C2666,6383,2504.21,6652,2206.35,6717.5s-619-97.43-717.23-363.85,80.79-411.18,378.65-476.65S2469.49,5850.14,2567.75,6116.56Z"/><path class="cls-78" d="M3956.35,6017.87c-32.66,283.67-305.59,524.83-609.61,538.65s-524-204.93-491.32-488.6S3161,5543.09,3465,5529.27,3989,5734.2,3956.35,6017.87Z"/><path class="cls-79" d="M3154.11,6022.58s87.45,48.86,166.81.31,10.91-147,10.91-147,140.15-5.37,197.72,71.09,72.66,156.94,30.66,221c-61.82,94.26-120.31,120.07-201,131.11-70.82,9.69-191.72,28.57-239.31-88.78C3100,6161.21,3154.11,6022.58,3154.11,6022.58Z"/><path class="cls-79" d="M1924.71,6311.78s131,13.38,167.49-33.91-19.8-142.7-19.8-142.7,179.09-20.16,262,62.17,126.93,174,57.53,238-150.67,98.71-266.5,81.94S1924.71,6311.78,1924.71,6311.78Z"/><path class="cls-80" d="M1270.89,7064.16s334,123.1,502.8,228.06,691.14,474.08,1222,410.67,886-343.77,949.09-444.95,297.7-436.71,383.24-633.45c50.59-116.35,206.84-361.39,206.84-361.39s-581.76,418.56-748.35,493-672.3,315.53-1091.47,352.45-915,44.11-999.77,19.93S1270.89,7064.16,1270.89,7064.16Z"/><path class="cls-36" d="M1531.4,7151.25s282.21,120,285,140.17,739,51.49,1207.15-49.42,1146.86-457,1146.86-457l111.41-246.54s-737.57,425.87-1119.29,514.79-871.49,126.08-1078.34,124S1531.4,7151.25,1531.4,7151.25Z"/><path class="cls-81" d="M2380.84,7531.47s462.34,153.55,766.87,93.84c448.2-87.88,607.64-212.7,684.51-295.26s32.68-117.51,32.68-117.51-318.59,13.4-415.25,57.63-218.53,91.95-238.15,135.75,45,91.32-33.88,102.27S3010.48,7439,2899.12,7439,2487.3,7496.15,2380.84,7531.47Z"/></g></svg>