<svg xmlns="http://www.w3.org/2000/svg" xmlns:xlink="http://www.w3.org/1999/xlink" viewBox="0 0 5005 5003.5"><defs><style>.cls-1{fill:#d83527;stroke:#841d28;stroke-width:5px;}.cls-1,.cls-11,.cls-4,.cls-6,.cls-7{stroke-miterlimit:10;}.cls-2{fill:#eb5533;}.cls-3{fill:#f26d54;}.cls-4,.cls-6,.cls-7{stroke:#3c4521;}.cls-4{stroke-width:3px;fill:url(#linear-gradient);}.cls-5{fill:#3c4521;}.cls-6{fill:#98ca4d;}.cls-6,.cls-7{stroke-width:2px;}.cls-7{fill:#83a23e;}.cls-8{fill:#f9f8f3;}.cls-9{fill:#a8cf5a;}.cls-10{fill:#120f10;}.cls-11{fill:#511414;stroke:#7f151a;stroke-width:4px;}.cls-12{fill:#fff;}.cls-13{fill:#f3859d;}.cls-14{fill:#837674;}.cls-15{fill:#d8506e;}.cls-16{fill:#c62127;}.cls-17{fill:#eb9324;}</style><linearGradient id="linear-gradient" x1="7225.65" y1="3096.05" x2="11563.99" y2="3096.05" gradientUnits="userSpaceOnUse"><stop offset="0" stop-color="#84ac5b"/><stop offset="1" stop-color="#406a26"/></linearGradient></defs><title>strawberry</title><g id="Layer_23" data-name="Layer 23"><path class="cls-1" d="M9162.41,2492.78s-1162.06-12.1-1688.85,302.51-790.2,1016.42-728.22,1367.33,356.36,1125.33,883.16,1597.24,960.63,895.42,1533.91,871.22,1270.51-508.21,1425.45-653.42,945.14-1197.93,1053.6-1476.23,170.43-955.92-77.47-1294.73-1084.59-641.44-1456.44-714S9162.41,2492.78,9162.41,2492.78Z" transform="translate(-6733.92 -1631.06)"/><path class="cls-2" d="M7427.07,2928.39s-263.4,375.11-309.88,471.91,46.48,363,0,629.21-28.91,859.12,148.23,980.12,518,689.72,595.48,750.22S8403.2,6328.57,8589.13,6377s371.86,72.6,681.74,72.6,666.25-217.81,542.29-387.21S8883.51,5784.05,8728.57,5772s-480.32-145.2-402.85-350.91-402.85-592.91-542.29-786.52-619.76-592.91-433.83-822.82,573.28-520.31,883.16-532.41S8542.65,3654.4,8697.59,3727s635.26,96.8,635.26,60.5-124-266.21,108.46-375.11,573.28-181.5,898.66-36.3,635.26,338.81,635.26,338.81,294.39-108.9,278.89-314.61-340.87-556.61-340.87-556.61Z" transform="translate(-6733.92 -1631.06)"/><path class="cls-3" d="M9441.3,3085.69s557.79,508.21,650.75,750.22,340.87,447.71,139.45,762.32-759.21,750.22-898.66,907.52-232.41,580.81-526.8,544.51-495.81,169.4-371.86,229.91,759.21,302.51,1007.11,145.2,1193-641.31,1270.51-931.72,573.28-1125.33,619.76-1306.83-31-919.62-185.93-1016.42-1274.67-363-1274.67-363Z" transform="translate(-6733.92 -1631.06)"/><path class="cls-4" d="M9239.88,2347.57s-511.3-108.9-836.68-96.8S7706,2287.07,7597.51,2396s-371.86,338.81-371.86,338.81,464.82-121,526.8-96.8-263.4,229.91-325.38,423.51-93,520.31-93,520.31,511.3-459.81,681.74-508.21,681.74-157.77,681.74-157.77-124,303-15.49,545,449.33,496.11,449.33,496.11-31-326.71,108.46-520.31,402.85-508.21,402.85-508.21,526.8,145.2,805.69,314.61,557.79,496.11,557.79,496.11,108.46-533.35,77.47-635.73-170.43-332.29-170.43-332.29,309.88,48.4,418.34,108.9,232.41,133.1,232.41,133.1-216.92-568.71-681.74-689.72-821.19-86.58-1069.09-73.54S9239.88,2347.57,9239.88,2347.57Z" transform="translate(-6733.92 -1631.06)"/><path class="cls-5" d="M9579.76,2533.35c-132.3-8.86-255.69-10.66-373.59,14.51-1-5.45-3.86-10.95-9.51-16-67.74-60.88-173.69-148.68-282.6-155.29-49.71-3-49.46,57.5,0,60.5,46.55,2.82,98.85,41.12,132.77,63.52a795.84,795.84,0,0,1,86.6,66.7A687.88,687.88,0,0,0,9020.1,2615c-80.24,42.8-169.17,84.47-240.85,135.83-65.37,46.84-73.41,118.56-132.67,167.71-34.16,28.33,20.52,71.2,54.78,42.78,49-40.65,61.5-93.14,99.79-138.52C8852,2762.6,8961.2,2720.78,9036,2679.89c83.45-45.62,166.8-80.59,269.47-90.22,90.91-8.53,183.5-1.9,274.28,4.19C9629.43,2597.18,9629.14,2536.66,9579.76,2533.35Z" transform="translate(-6733.92 -1631.06)"/><path class="cls-5" d="M8597,2354.24c-70.9-3.22-143-4-211.09,13.85-71.9,18.8-138.1,51.92-204.2,80.27C8030.92,2513,7881,2578.81,7734.43,2649.19c-42.4,20.36-3.53,72.71,39.1,52.24,129.79-62.34,262.21-121.12,395.59-178.62,62.19-26.81,123.8-55.44,187.62-79.82,77.73-29.69,155.36-32.11,240.23-28.25C8646.78,2417,8646.62,2356.5,8597,2354.24Z" transform="translate(-6733.92 -1631.06)"/><path class="cls-5" d="M9768.73,2715.68c4.29,92.29-68,166.24-138.7,234.75-31,30,23.49,73.12,54.78,42.78,83.71-81.16,166.46-168.38,161.39-277.53C9844.39,2676.86,9766.91,2676.67,9768.73,2715.68Z" transform="translate(-6733.92 -1631.06)"/><path class="cls-5" d="M10038,2457.7c-122.18-5.23-249,.09-325.41,85-28.71,31.93,38.42,62.19,66.89,30.54,58-64.5,169.37-58.89,258.52-55.07C10087.86,2520.33,10087.71,2459.82,10038,2457.7Z" transform="translate(-6733.92 -1631.06)"/><path class="cls-5" d="M10993.24,2786.43c-30.71-42.87-26.46-90.7-72.29-128-49.81-40.57-117.78-71.06-175.63-104-116.13-66.21-237.41-100.22-381.6-89.88-49.24,3.53-49.71,64.07,0,60.5,129.91-9.32,238.28,22.29,342.5,81.62,50.84,28.94,119.2,57.3,159.95,94.58,35.57,32.55,33.82,79,60.17,115.79C10950.69,2851,11017.63,2820.48,10993.24,2786.43Z" transform="translate(-6733.92 -1631.06)"/><path class="cls-6" d="M9232.13,2559.33h232.41s0-302.51,62-417.46,240.16-369.06,240.16-369.06-85.22,18.15-139.45,0-185.93-72.6-185.93-72.6-139.45,193.6-162.69,344.86S9232.13,2559.33,9232.13,2559.33Z" transform="translate(-6733.92 -1631.06)"/><path class="cls-7" d="M9773.31,1752.37c-14.9,40.2-102.48,55.71-195.62,34.66s-156.56-70.71-141.66-110.91,102.48-55.71,195.62-34.66S9788.21,1712.17,9773.31,1752.37Z" transform="translate(-6733.92 -1631.06)"/><ellipse class="cls-8" cx="2722.87" cy="2644.49" rx="666.25" ry="520.31"/><ellipse class="cls-9" cx="2947.05" cy="2751.19" rx="309.56" ry="241.75"/><ellipse class="cls-10" cx="2947.05" cy="2751.19" rx="191.11" ry="149.25"/><ellipse class="cls-8" cx="1240.6" cy="2380.13" rx="666.25" ry="520.31"/><ellipse class="cls-9" cx="1464.79" cy="2486.83" rx="309.56" ry="241.75"/><ellipse class="cls-10" cx="1464.79" cy="2486.83" rx="191.11" ry="149.25"/><path class="cls-11" d="M7689.06,4944.69s240.16,72.6,302.13,163.35,464.82,653.42,565.53,732.07,309.88,278.31,495.81,284.36,472.57-48.4,565.53-127.05,364.11-356.5,395.1-462.61,116.21-366.26,139.45-426.76S10361.78,4860,10361.78,4860s-433.83,242-635.26,296.46-565.53,96.8-743.72,90.75-674-60.5-767-90.75S7689.06,4944.69,7689.06,4944.69Z" transform="translate(-6733.92 -1631.06)"/><path class="cls-12" d="M8098.48,5147.6s426.09,369.68,890.91,369.06c473.14-.63,794-149.5,937.39-236,105.49-63.62,224.66-187.55,224.66-187.55s7.75-48.4-62-36.3S9826.07,5244.4,9245,5286.09c-308.7,22.15-604.27-47.74-782.45-71.94S8098.48,5147.6,8098.48,5147.6Z" transform="translate(-6733.92 -1631.06)"/><path class="cls-13" d="M8532.32,5758.66s328.05,295.87,573.28,326.71c304.72,38.32,494.37-120.58,557.79-163.35,113.62-76.64,193.68-199.65,193.68-199.65S9680.91,5594.82,9547.18,5559c-90.38-24.2-161.67-10.14-255.65,42.35-49.21,27.49-90.64,48.4-115,48.4s-51.34-19.56-132.86-54.45c-87.8-37.58-232.41-37.58-333.12,30.25C8643.61,5670.61,8532.32,5758.66,8532.32,5758.66Z" transform="translate(-6733.92 -1631.06)"/><path class="cls-14" d="M8103.65,5147.6l46.48,88.74s256.7,139.84,475.15,213.77c232.41,78.65,459.66,80.67,635.26,64.53s493.81-144.85,578.45-182c116.37-51.11,244.4-168.5,300.93-223.77,17.47-17.08,16.84-41.45-1.38-58h0l-154.94,96.8s-216.92,153.27-428.67,217.81-516.47,76.64-661.08,56.47S8377.38,5313,8310.23,5256.5s-93-84.7-93-84.7Z" transform="translate(-6733.92 -1631.06)"/><path class="cls-15" d="M8532.32,5756.65,8578.8,5797s178-101.73,253.07-129.07c77.47-28.23,113.62-10.76,196.26,13.44s79.79,51.49,148.36,45.24,100.93-50.33,177-70.39c73.16-19.29,204.72-35.71,258.23-20.56,95.76,27.12,216.92,133.1,216.92,133.1l31-60.67S9668.33,5590,9560.09,5555c-90.79-29.37-216.92-12.1-258.23,12.1s-90.64,96.8-125.37,76.64-107-72.6-220.66-76.64-201.42,24.2-258.23,56.47S8532.32,5756.65,8532.32,5756.65Z" transform="translate(-6733.92 -1631.06)"/><path class="cls-16" d="M7235.38,4507.87c12.06,97.56-35.7,181-106.68,186.34s-138.3-69.4-150.36-167,35.7-181,106.68-186.34S7223.32,4410.31,7235.38,4507.87Z" transform="translate(-6733.92 -1631.06)"/><path class="cls-17" d="M7164.55,4513.21c8.31,67.21-24.59,124.68-73.49,128.37s-95.27-47.81-103.58-115,24.59-124.68,73.49-128.37S7156.25,4446,7164.55,4513.21Z" transform="translate(-6733.92 -1631.06)"/><path class="cls-16" d="M8931.64,6230.69c56.56,87.5,50.81,178.77-12.85,203.87s-161.11-25.49-217.67-113S8650.3,6142.8,8714,6117.7,8875.07,6143.19,8931.64,6230.69Z" transform="translate(-6733.92 -1631.06)"/><path class="cls-17" d="M8868.12,6255.73c39,60.28,35,123.16-8.85,140.45s-111-17.56-150-77.83-35-123.16,8.85-140.45S8829.15,6195.45,8868.12,6255.73Z" transform="translate(-6733.92 -1631.06)"/><path class="cls-16" d="M10211.25,6008.69c-77.23,77.26-185.4,112.12-241.61,77.85s-39.18-124.68,38-201.94,185.4-112.12,241.61-77.85S10288.47,5931.43,10211.25,6008.69Z" transform="translate(-6733.92 -1631.06)"/><path class="cls-17" d="M10155.16,5974.5c-53.2,53.23-127.72,77.24-166.45,53.63s-27-85.89,26.21-139.12,127.72-77.24,166.45-53.63S10208.36,5921.27,10155.16,5974.5Z" transform="translate(-6733.92 -1631.06)"/><path class="cls-16" d="M9756.62,4907.54c26.62,69.08,7.45,134.65-42.81,146.46s-112.58-34.62-139.19-103.7-7.45-134.65,42.81-146.46S9730,4838.46,9756.62,4907.54Z" transform="translate(-6733.92 -1631.06)"/><path class="cls-17" d="M9706.47,4919.32c18.34,47.59,5.13,92.76-29.49,100.9s-77.55-23.85-95.89-71.44-5.13-92.76,29.49-100.9S9688.14,4871.73,9706.47,4919.32Z" transform="translate(-6733.92 -1631.06)"/><path class="cls-16" d="M7801.8,4813.29c-93.89,65-208.36,84-255.68,42.34s-9.57-128.16,84.32-193.2,208.36-84,255.68-42.34S7895.69,4748.25,7801.8,4813.29Z" transform="translate(-6733.92 -1631.06)"/><path class="cls-17" d="M7754.59,4771.72c-64.68,44.81-143.54,57.87-176.14,29.17s-6.59-88.29,58.09-133.1,143.54-57.87,176.14-29.17S7819.27,4726.91,7754.59,4771.72Z" transform="translate(-6733.92 -1631.06)"/><path class="cls-16" d="M10717.19,4253.66c-38.13,93.38-124.12,155.36-192.06,138.44s-92.1-106.34-54-199.72,124.12-155.36,192.06-138.44S10755.32,4160.28,10717.19,4253.66Z" transform="translate(-6733.92 -1631.06)"/><path class="cls-17" d="M10649.4,4236.78c-26.27,64.33-85.51,107-132.31,95.37s-63.45-73.26-37.18-137.59,85.51-107,132.31-95.37S10675.67,4172.45,10649.4,4236.78Z" transform="translate(-6733.92 -1631.06)"/><path class="cls-16" d="M11326,4590.49c-10.46,97.67-76.54,173.09-147.61,168.45s-120.19-87.58-109.73-185.26,76.54-173.09,147.61-168.45S11336.42,4492.82,11326,4590.49Z" transform="translate(-6733.92 -1631.06)"/><path class="cls-17" d="M11255.06,4585.86c-7.21,67.29-52.73,119.24-101.69,116s-82.8-60.34-75.59-127.62,52.73-119.24,101.69-116S11262.26,4518.58,11255.06,4585.86Z" transform="translate(-6733.92 -1631.06)"/><path class="cls-16" d="M10723.19,3689.45c-5.15,97.93-67.08,175.47-138.33,173.18s-124.83-83.53-119.69-181.46,67.08-175.47,138.33-173.18S10728.34,3591.52,10723.19,3689.45Z" transform="translate(-6733.92 -1631.06)"/><path class="cls-17" d="M10652.09,3687.18c-3.55,67.47-46.21,120.88-95.3,119.31s-86-57.54-82.45-125,46.21-120.88,95.3-119.31S10655.64,3619.71,10652.09,3687.18Z" transform="translate(-6733.92 -1631.06)"/><path class="cls-16" d="M7234.17,3702.13c-20.93,96.64-94.9,167.46-165.21,158.17s-110.34-95.16-89.41-191.8,94.9-167.46,165.21-158.17S7255.1,3605.49,7234.17,3702.13Z" transform="translate(-6733.92 -1631.06)"/><path class="cls-17" d="M7164,3692.87c-14.42,66.58-65.37,115.36-113.81,109s-76-65.56-61.6-132.13,65.37-115.36,113.81-109S7178.43,3626.29,7164,3692.87Z" transform="translate(-6733.92 -1631.06)"/><path class="cls-16" d="M10694,5449.5c-40.43,41.87-97.9,61.27-128.37,43.33s-22.38-66.43,18-108.3,97.9-61.27,128.37-43.33S10734.44,5407.62,10694,5449.5Z" transform="translate(-6733.92 -1631.06)"/><path class="cls-17" d="M10663.61,5431.59c-27.85,28.85-67.45,42.21-88.43,29.85s-15.42-45.76,12.43-74.61,67.45-42.21,88.43-29.85S10691.47,5402.75,10663.61,5431.59Z" transform="translate(-6733.92 -1631.06)"/><path class="cls-16" d="M10664.34,4957.8c-79.76,75.67-189.06,108.33-244.11,72.93s-35-125.43,44.74-201.1,189.06-108.33,244.11-72.93S10744.11,4882.13,10664.34,4957.8Z" transform="translate(-6733.92 -1631.06)"/><path class="cls-17" d="M10609.4,4922.48c-54.95,52.13-130.24,74.63-168.17,50.24s-24.13-86.41,30.82-138.54,130.24-74.63,168.17-50.24S10664.35,4870.35,10609.4,4922.48Z" transform="translate(-6733.92 -1631.06)"/><path class="cls-16" d="M8227.28,5826.06c-36.19,93.85-120.88,156.92-189.16,140.86s-94.3-105.16-58.11-199S8100.89,5611,8169.17,5627,8263.47,5732.2,8227.28,5826.06Z" transform="translate(-6733.92 -1631.06)"/><path class="cls-17" d="M8159.15,5810c-24.93,64.66-83.27,108.1-130.31,97s-65-72.44-40-137.1,83.27-108.1,130.31-97S8184.08,5745.38,8159.15,5810Z" transform="translate(-6733.92 -1631.06)"/><path class="cls-16" d="M8768.08,4876.81c-20.93,96.64-94.9,167.46-165.21,158.17s-110.34-95.16-89.41-191.8,94.9-167.46,165.21-158.17S8789,4780.16,8768.08,4876.81Z" transform="translate(-6733.92 -1631.06)"/><path class="cls-17" d="M8697.92,4867.54c-14.42,66.58-65.37,115.36-113.81,109s-76-65.56-61.6-132.13,65.37-115.36,113.81-109S8712.34,4801,8697.92,4867.54Z" transform="translate(-6733.92 -1631.06)"/><path class="cls-16" d="M9895.2,3370.76c12.06,97.56-35.7,181-106.68,186.34s-138.3-69.4-150.36-167,35.7-181,106.68-186.34S9883.14,3273.2,9895.2,3370.76Z" transform="translate(-6733.92 -1631.06)"/><path class="cls-17" d="M9824.37,3376.1c8.31,67.21-24.59,124.68-73.49,128.37s-95.27-47.81-103.58-115,24.59-124.68,73.49-128.37S9816.06,3308.89,9824.37,3376.1Z" transform="translate(-6733.92 -1631.06)"/><path class="cls-16" d="M7714.26,5276.09c12.06,97.56-35.7,181-106.68,186.34s-138.3-69.4-150.36-167,35.7-181,106.68-186.34S7702.2,5178.53,7714.26,5276.09Z" transform="translate(-6733.92 -1631.06)"/><path class="cls-17" d="M7643.43,5281.43c8.31,67.21-24.59,124.68-73.49,128.37s-95.27-47.81-103.58-115,24.59-124.68,73.49-128.37S7635.12,5214.22,7643.43,5281.43Z" transform="translate(-6733.92 -1631.06)"/><path class="cls-16" d="M8350,3311.74c-86.12,71.3-198,98.12-249.86,59.9s-24.11-127,62-198.29,198-98.12,249.86-59.9S8436.08,3240.44,8350,3311.74Z" transform="translate(-6733.92 -1631.06)"/><path class="cls-17" d="M8298.2,3273.61c-59.33,49.12-136.39,67.59-172.13,41.27s-16.61-87.48,42.72-136.6,136.39-67.59,172.13-41.27S8357.53,3224.49,8298.2,3273.61Z" transform="translate(-6733.92 -1631.06)"/></g></svg>