<svg xmlns="http://www.w3.org/2000/svg" viewBox="0 0 9000 4023.5"><defs><style>.cls-1{fill:#f6f1ee;stroke:#d3d2d1;}.cls-1,.cls-11,.cls-6{stroke-miterlimit:10;}.cls-1,.cls-6{stroke-width:47px;}.cls-2{fill:#e26830;}.cls-3{fill:#f4934c;}.cls-4{fill:#ec7834;}.cls-5{fill:#fcceb5;}.cls-6{fill:#511414;}.cls-11,.cls-6{stroke:#837674;}.cls-7{fill:#fff;}.cls-8{fill:#f3859d;}.cls-9{fill:#837674;}.cls-10{fill:#d8506e;}.cls-11{fill:#fffbf8;stroke-width:18px;}.cls-12{fill:#0c0d0d;}</style></defs><title>sushi</title><g id="sushi"><path class="cls-1" d="M4026.87,4144.13s-276.86-6.44-304.55,141.67,156.89,264,152.27,309.1-162.48,66.65-155.11,231.48c10.28,229.86,178.16,245.56,196.63,212.85,0,0-162.18,109.55-92.29,212.51,83.06,122.35,359.92,96.59,387.61,70.84s-18.46,199.63,175.35,206.07,304.55-6.44,323-64.4,27.69,148.11,138.43,206.07,212.26,128.79,369.15,83.71c84-24.15,184.57-103,184.57-103s101.52,238.27,267.63,244.7S6048,5754,6048,5754s-9.23,218.95,230.72,238.27,313.78-128.79,313.78-128.79-27.69,74.31,203,130.53S7100,5908.58,7100,5908.58s101.52,120,212.26,98.64,239.95-111.52,239.95-130.84,73.83,157.31,212.26,133.39,323-197.79,323-197.79,73.83,193.19,332.23,148.11,267.63-90.15,267.63-122.35V5754s134.27,171,230.72,141.67C9035,5860.13,9075,5773.35,9075,5696.08s166.17,84,341.46,64.4c230.72-25.76,276.86-199.63,239.95-257.58s151.72,80.66,313.78,32.2c193.8-58,212.26-148.11,175.35-231.83s-110.74-128.79-110.74-128.79,431-21.58,498.35-141.67c83.06-148.11-27.69-257.58-129.2-276.9s169.78,22.65,203-122.35c36.91-161-138.43-206.07-138.43-206.07s173.92-90.43,212.26-186.75c46.14-115.91-9.23-173.87-129.2-199.63s-3045.47-669.72-3045.47-669.72L4912.82,3725.56,3879.21,3944.5Z" transform="translate(-1873.99 -2012.01)"/><path class="cls-2" d="M2884.33,3996.43,3258,3957.8s103.8,241.44,103.8,260.75-96.88,540.82-269.89,603.59-415.21,222.12-567.45,217.29-311.41.11-311.41.11,276.81-164.28,325.25-202.91,214.52-289.72,214.52-289.72l-346,183.49L1874,4913.89s311.41-424.93,394.45-478S2586.77,4155.78,2656,4122,2884.33,3996.43,2884.33,3996.43Z" transform="translate(-1873.99 -2012.01)"/><path class="cls-3" d="M3288,4253.6c92.29-12.88,1162.82-386.38,2067.23-450.77S6794.9,3571,7754.69,3686.92,9582,4124.81,9858.83,4150.57s535.27,51.52,627.55-51.52,387.61-566.68,387.61-682.6-221.49-528-387.61-605.32-406.06-115.91-461.44-128.79-184.57-193.19-516.81-270.46S8936,2192.93,8843.68,2192.93H8493c-129.2,0-959.79-193.19-1218.19-180.31S6758,2089.9,6555,2102.78s-1089,167.43-1181.27,206.07S5078.36,2476.27,5023,2502s-590.64,180.31-701.38,244.7-203,218.95-258.4,244.7S3749.43,3158.87,3601.77,3249s-258.4,257.58-313.78,296.22-498.35,528-498.35,528l406.06-90.15Z" transform="translate(-1873.99 -2012.01)"/><path class="cls-4" d="M3361.82,4215c258.4-51.52,1347.39-347.74,1790.37-386.38S6112,3699.8,6850.27,3686.92,8473,3790,8972.11,3893s905.18,257.58,905.18,257.58,443,38.64,498.35-12.88S9249.74,3674,9139,3622.52s-1144.36-257.58-2030.32-309.1-1753.45,167.43-2048.77,244.7-793.67,257.58-1015.16,347.74S3361.82,4215,3361.82,4215Z" transform="translate(-1873.99 -2012.01)"/><path class="cls-5" d="M9286.65,3970.26l221.49,103s369.15-347.74,387.61-437.89,184.57-476.53,203-592.44,0-360.62,0-360.62l-184.57-90.15s-73.83,644-110.74,740.55S9286.65,3970.26,9286.65,3970.26Z" transform="translate(-1873.99 -2012.01)"/><path class="cls-5" d="M8068.46,3738.44h147.66s369.15-759.87,369.15-888.67,92.29-644,92.29-644H8493s-55.37,747-120,837.15S8068.46,3738.44,8068.46,3738.44Z" transform="translate(-1873.99 -2012.01)"/><path class="cls-5" d="M6961.6,3648.28h147.66s18.46-495.85,0-740.55-147.66-862.91-147.66-862.91L6740.76,2077s202,644,188.35,689S6961.6,3648.28,6961.6,3648.28Z" transform="translate(-1873.99 -2012.01)"/><path class="cls-5" d="M5817.24,3753.73l147.66-15.29s-175.35-631.08-249.18-766.31-342-663.28-342-663.28l-239.37,141.67s396.83,566.68,415.29,644S5817.24,3753.73,5817.24,3753.73Z" transform="translate(-1873.99 -2012.01)"/><path class="cls-5" d="M4857.45,3867.23l129.2-32.2s-193.8-399.26-304.55-547.37S4276,2846.55,4276,2846.55l-92.29,86.93s396.83,425,401.45,470.09S4857.45,3867.23,4857.45,3867.23Z" transform="translate(-1873.99 -2012.01)"/><polygon class="cls-5" points="2134.42 2061.29 2309.76 2003.33 1959.07 1636.28 1663.75 1385.13 1580.69 1455.97 1945.23 1803.7 2134.42 2061.29"/><path class="cls-6" d="M5181.89,4866.68s296.51,41.83,373,94.12,573.89,376.46,698.23,421.78,382.59,160.35,612.15,163.83,583.45-27.89,698.23-73.2,449.55-205.4,487.8-266.53,143.47-211,172.17-245.88,258.25-142.92,258.25-142.92-535.63,139.43-784.31,170.8-698.23,55.77-918.22,52.29-832.14-34.86-946.91-52.29S5181.89,4866.68,5181.89,4866.68Z" transform="translate(-1873.99 -2012.01)"/><path class="cls-7" d="M5687.38,4983.59s526.06,213,1100,212.63c584.16-.36,980.33-86.13,1157.34-135.95,130.25-36.65,277.38-108.06,277.38-108.06s163.79-71.28,77.7-64.31-479.43,141-1196.78,165c-381.13,12.76-746.05-17-966-31S5687.38,4983.59,5687.38,4983.59Z" transform="translate(-1873.99 -2012.01)"/><path class="cls-8" d="M6223,5335.65s307.92,193.83,707.79,193.87c472.09,0,610.36-75.11,688.66-99.75,140.28-44.15,239.12-115,239.12-115s-217.49-73.49-382.59-94.12c-111.59-13.94-199.61-5.84-315.64,24.4-60.76,15.84-111.91,27.89-142,27.89s-63.38-11.27-164-31.37c-108.4-21.65-286.94-21.65-411.29,17.43C6360.42,5284.92,6223,5335.65,6223,5335.65Z" transform="translate(-1873.99 -2012.01)"/><path class="cls-9" d="M5605.41,4967.91l145.74,66.81s316.93,80.57,586.64,123.16c286.94,45.32,567.51,46.48,784.31,37.18s609.68-83.46,714.17-104.87c143.68-29.45,379.85-125.36,449.64-157.2,21.56-9.84,61.34-51.62,38.85-61.18l-118.65,56-191.3,55.77s-267.81,88.31-529.25,125.49-637.65,44.15-816.2,32.53-627-83.4-720.55-95.28c-132.53-16.82-167.61-35.08-145-51.21Z" transform="translate(-1873.99 -2012.01)"/><path class="cls-10" d="M6223,5334.49l57.39,23.24s219.82-58.61,312.45-74.36c95.65-16.27,140.28-6.2,242.31,7.74s98.52,29.67,183.17,26.07,124.61-29,218.56-40.55c90.32-11.11,252.76-20.58,318.83-11.84,118.23,15.62,267.81,76.69,267.81,76.69l38.26-35s-236.2-68-369.84-88.21c-112.09-16.92-267.81-7-318.83,7s-111.91,55.77-154.79,44.15-132.15-41.83-272.44-44.15-248.68,13.94-318.83,32.53S6223,5334.49,6223,5334.49Z" transform="translate(-1873.99 -2012.01)"/><path class="cls-11" d="M8146.51,4400.28c-117.3,157.45-497.27,267.54-848.69,245.9s-541.22-166.82-423.93-324.27,497.27-267.54,848.69-245.9S8263.8,4242.83,8146.51,4400.28Z" transform="translate(-1873.99 -2012.01)"/><path class="cls-11" d="M6656.64,4317.19c49.36,141.68-128.07,262.8-396.31,270.52s-525.7-100.87-575.06-242.55,128.07-262.8,396.31-270.52S6607.28,4175.51,6656.64,4317.19Z" transform="translate(-1873.99 -2012.01)"/><ellipse class="cls-12" cx="4513.76" cy="2438.12" rx="206.86" ry="97.18"/><path class="cls-12" d="M7565.28,4475.48c-34.91,60.86-165.73,105.34-292.2,99.35s-200.7-60.19-165.79-121.06,165.73-105.34,292.2-99.35S7600.19,4414.62,7565.28,4475.48Z" transform="translate(-1873.99 -2012.01)"/><ellipse class="cls-7" cx="4488.54" cy="2427.96" rx="60.54" ry="37.71"/><path class="cls-7" d="M7401.39,4456.93c-8.81,22.29-49.62,39.25-91.15,37.9S7242.19,4474.3,7251,4452s49.62-39.25,91.15-37.9S7410.21,4434.64,7401.39,4456.93Z" transform="translate(-1873.99 -2012.01)"/></g></svg>