<svg xmlns="http://www.w3.org/2000/svg" xmlns:xlink="http://www.w3.org/1999/xlink" viewBox="0 0 3552.05 3624">
  <defs>
    <style>
      .cls-1, .cls-6, .cls-7 {
        stroke: #030202;
      }

      .cls-1, .cls-2, .cls-3, .cls-6, .cls-7 {
        stroke-miterlimit: 10;
      }

      .cls-1 {
        stroke-width: 6px;
        fill: url(#linear-gradient);
      }

      .cls-2 {
        fill: none;
        stroke: #efeded;
        stroke-width: 26px;
      }

      .cls-3 {
        fill: #aad14d;
        stroke: #070404;
        stroke-width: 5px;
      }

      .cls-4 {
        fill: #5eab46;
      }

      .cls-5 {
        fill: #030202;
      }

      .cls-6, .cls-7 {
        fill: #ededed;
      }

      .cls-6 {
        stroke-width: 4px;
      }

      .cls-7 {
        stroke-width: 3px;
      }

      .cls-8 {
        fill: #f0efef;
      }
    </style>
    <linearGradient id="linear-gradient" x1="2620.46" y1="3387.3" x2="5997.8" y2="3387.3" gradientUnits="userSpaceOnUse">
      <stop offset="0" stop-color="#db385d"/>
      <stop offset="0.17" stop-color="#db476a"/>
      <stop offset="0.72" stop-color="#dd7190"/>
      <stop offset="1" stop-color="#dd819f"/>
    </linearGradient>
  </defs>
  <title>watermelon</title>
  <g id="watermelon">
    <g>
      <path class="cls-1" d="M2620.46,2332.41s332.34,2329.78,1212.61,2727.91,1500-870,1500-870L5917,2332.41l80.84-695.49s-979.07,577.53-1239.56,680.75-1446.15,75.59-1446.15,75.59Z" transform="translate(-2616.96 -1516.68)"/>
      <path class="cls-2" d="M2710.28,2378.51s134.73,1256.41,556.9,1900.3c365.91,558.09,485,693,907.21,722.53S4866,4631.6,5063.65,4315.12s328.13-647.84,489.18-1052.62c283.3-712,337.19-1249.57,355.15-1517.45" transform="translate(-2616.96 -1516.68)"/>
      <path class="cls-3" d="M4470.81,5119.3s673.67-29.49,961.11-442.36,583.85-752,664.69-1194.38,89.82-1366.41,35.93-1663.78l-53.89-297.37-134.73,115.51S5881,2444.76,5764.26,2897.3s-458.1,1183.3-583.85,1400.37S4470.81,5119.3,4470.81,5119.3Z" transform="translate(-2616.96 -1516.68)"/>
      <path class="cls-4" d="M5836,3190.42c-101.53,299.56-194.59,615.26-314,897-104.3,246.16-264.65,403.12-371,644.15-25.74,20.22-52.46,36.61-80.46,47.19-14.17,5.36-22,20.3-24.65,37.72-7.21,4.16-14.41,8.31-21.65,12.32q-128,24.88-251.43,84c5.37-11,10.63-22.22,15.67-33.9,20.08-46.56-12.36-53.73-37.55-15.16-37.61,57.58-219.15,210.3-184.52,212.43,82.13,5.05,461.29-101.86,510.69-143.64,68.86-31.95,77.68-73.22,102.86-93.31,94.6-25.82,176.19-172.69,242.58-276.66,78.93-123.63,150-259.25,214.69-403.37,12.94-28.85,88.12-293.38,129.58-410.87,57-161.5,101.69-334,134.84-512.44C5913.51,3172,5855.82,3131.9,5836,3190.42Z" transform="translate(-2616.96 -1516.68)"/>
      <path class="cls-4" d="M6116.15,2673.08c-1.28-258.34-9.91-517.06-15.18-775.26-1.54-75.71-73.41-76.05-71.86,0,.08,4.1.18,8.21.27,12.31-12.55,6.7-21.95,24.34-20.12,53.22,15.27,241.46,20.7,484,22.88,726.6.5,55.63,1.94,112.59,3,170-16.93,183.86-50.88,364.07-44.87,551,1.69,52.59,51.59,87.7,67,29.77,45.4-171.19,49.86-350.61,48.75-532.43C6112.87,2830.65,6116.55,2752.74,6116.15,2673.08Z" transform="translate(-2616.96 -1516.68)"/>
      <ellipse class="cls-5" cx="973.59" cy="2633.11" rx="53.89" ry="173.26"/>
      <path class="cls-5" d="M3498,3537.85c-29.14,82.87-73.67,130.24-99.44,105.81s-23-111.41,6.1-194.28,73.67-130.24,99.44-105.81S3527.14,3455,3498,3537.85Z" transform="translate(-2616.96 -1516.68)"/>
      <path class="cls-5" d="M5462.11,2606c-37,74-85.58,108.85-108.6,77.87s-11.71-116.08,25.25-190.07,85.58-108.85,108.6-77.87S5499.07,2532,5462.11,2606Z" transform="translate(-2616.96 -1516.68)"/>
      <path class="cls-5" d="M5320.25,2991.52c51.5,44.81,82,116.14,68,159.31s-67,41.84-118.49-3-82-116.14-68-159.31S5268.75,2946.7,5320.25,2991.52Z" transform="translate(-2616.96 -1516.68)"/>
      <path class="cls-5" d="M5130.26,3762.67c-9.68,94.36-41.32,164.27-70.68,156.16s-45.3-91.19-35.61-185.55,41.32-164.27,70.68-156.16S5139.95,3668.31,5130.26,3762.67Z" transform="translate(-2616.96 -1516.68)"/>
      <path class="cls-5" d="M4799.34,4168.69c21.55,88.91,16.6,175.63-11.05,193.69s-67.55-39.36-89.1-128.27-16.6-175.63,11.05-193.69S4777.79,4079.78,4799.34,4168.69Z" transform="translate(-2616.96 -1516.68)"/>
      <path class="cls-5" d="M4044.83,4353c21.55,88.91,16.6,175.63-11.05,193.69s-67.55-39.36-89.1-128.27-16.6-175.63,11.05-193.69S4023.28,4264.1,4044.83,4353Z" transform="translate(-2616.96 -1516.68)"/>
      <path class="cls-5" d="M3176.63,3154.2c-55.68,28.32-108,13.45-116.76-33.23s29.18-107.47,84.86-135.79,108-13.45,116.76,33.23S3232.31,3125.87,3176.63,3154.2Z" transform="translate(-2616.96 -1516.68)"/>
      <ellipse class="cls-6" cx="1467.62" cy="1656.22" rx="179.65" ry="294.91"/>
      <ellipse class="cls-7" cx="1932.45" cy="1564.07" rx="163.93" ry="269.1"/>
      <ellipse class="cls-5" cx="1490.07" cy="1678.34" rx="76.35" ry="125.34"/>
      <ellipse class="cls-5" cx="1875.19" cy="1573.28" rx="70.74" ry="116.12"/>
      <path class="cls-8" d="M4160.92,3836.45s4.49,457.11,148.21,457.11,282.94-51.61,296.42-228.55,35.93-258-42.67-265.42-32.19,176.95-177.4,176.95c-121.26,0-125.75-221.61-184.14-221.4S4160.92,3836.45,4160.92,3836.45Z" transform="translate(-2616.96 -1516.68)"/>
    </g>
  </g>
</svg>
